{"glyphs":{"0":{"ha":761,"x_min":43,"x_max":718,"o":"m 381 -19 q 192 47 268 -19 q 80 226 117 113 q 43 481 43 339 q 80 726 43 618 q 192 899 117 835 q 381 963 268 963 q 633 828 549 963 q 718 481 718 693 q 681 226 718 339 q 569 47 644 113 q 381 -19 493 -19 m 381 78 q 540 192 489 78 q 590 481 590 306 q 540 756 590 647 q 381 865 489 865 q 222 756 272 865 q 171 481 171 647 q 222 192 171 306 q 381 78 272 78 z "},"1":{"ha":761,"x_min":140,"x_max":689,"o":"m 689 96 l 689 0 l 150 0 l 150 96 l 356 96 l 356 811 l 182 706 l 140 790 l 376 944 l 483 944 l 483 96 l 689 96 z "},"2":{"ha":761,"x_min":43,"x_max":697,"o":"m 61 74 l 300 306 q 474 515 422 424 q 526 683 526 606 q 476 815 526 767 q 342 863 426 863 q 214 833 271 863 q 90 736 157 804 l 43 813 q 184 924 108 888 q 353 961 260 961 q 570 888 488 961 q 653 690 653 815 q 592 483 653 589 q 388 240 532 378 l 242 100 l 242 97 l 697 97 l 697 0 l 61 0 l 61 74 z "},"3":{"ha":763,"x_min":38,"x_max":693,"o":"m 474 508 q 631 428 568 492 q 693 272 693 365 q 651 122 693 190 q 531 14 610 54 q 346 -26 451 -26 q 171 -1 246 -26 q 38 86 96 25 l 81 168 q 203 92 143 114 q 346 71 264 71 q 505 125 444 71 q 565 267 565 179 q 513 392 565 344 q 365 439 460 439 q 224 417 299 439 l 208 511 q 380 563 318 538 q 478 628 442 588 q 514 736 514 669 q 476 826 514 792 q 371 860 438 860 q 242 831 306 860 q 113 739 179 803 l 67 815 q 208 922 128 885 q 375 958 289 958 q 569 899 496 958 q 642 739 642 839 q 474 508 642 589 z "},"4":{"ha":761,"x_min":28,"x_max":747,"o":"m 747 253 l 592 253 l 592 0 l 464 0 l 464 253 l 28 253 l 28 329 l 475 944 l 476 943 l 476 944 l 592 944 l 592 350 l 747 350 l 747 253 m 464 350 l 464 524 l 467 779 l 294 533 l 161 350 l 464 350 z "},"5":{"ha":763,"x_min":53,"x_max":708,"o":"m 381 571 q 557 535 483 571 q 669 434 631 499 q 708 288 708 369 q 666 128 708 200 q 542 15 624 57 q 351 -26 461 -26 q 183 -1 257 -26 q 53 86 110 25 l 96 168 q 216 92 157 114 q 351 71 275 71 q 519 128 457 71 q 581 282 581 185 q 527 422 581 371 q 372 474 474 474 q 146 425 269 474 l 113 446 l 153 944 l 682 944 l 682 846 l 267 846 l 243 551 q 381 571 318 571 z "},"6":{"ha":761,"x_min":54,"x_max":707,"o":"m 408 571 q 568 531 500 571 q 672 425 636 490 q 707 289 707 360 q 668 135 707 206 q 555 22 629 64 q 381 -21 481 -21 q 144 77 233 -21 q 54 357 54 175 q 202 748 54 590 q 608 963 350 906 l 636 871 q 343 731 453 821 q 199 496 233 642 q 296 551 242 532 q 408 571 350 571 m 381 76 q 528 135 476 76 q 579 285 579 194 q 531 420 579 367 q 400 474 483 474 q 182 356 267 474 l 182 347 q 235 146 182 215 q 381 76 289 76 z "},"7":{"ha":761,"x_min":42,"x_max":721,"o":"m 582 844 l 582 847 l 42 847 l 42 944 l 721 944 l 721 867 l 229 0 l 83 0 l 582 844 z "},"8":{"ha":761,"x_min":57,"x_max":704,"o":"m 500 494 q 653 390 601 450 q 704 240 704 329 q 623 53 704 126 q 382 -19 542 -19 q 201 15 275 -19 q 92 107 128 50 q 57 232 57 164 q 247 486 57 400 q 124 582 163 528 q 85 713 85 636 q 118 839 85 782 q 218 929 151 896 q 382 963 285 963 q 544 931 478 963 q 644 845 611 899 q 676 728 676 792 q 634 591 676 646 q 500 494 592 536 m 382 865 q 255 823 297 865 q 213 717 213 781 q 259 606 213 649 q 393 532 306 563 q 513 613 476 565 q 549 724 549 661 q 507 824 549 783 q 382 865 465 865 m 382 78 q 529 123 482 78 q 576 236 576 168 q 523 358 576 314 q 360 442 469 401 q 231 358 276 411 q 185 236 185 306 q 233 124 185 171 q 382 78 282 78 z "},"9":{"ha":761,"x_min":54,"x_max":707,"o":"m 381 963 q 618 865 529 963 q 707 585 707 767 q 560 194 707 351 q 154 -21 413 36 l 126 72 q 418 210 308 121 q 563 444 528 300 q 465 390 519 410 q 353 371 411 371 q 193 411 261 371 q 90 517 125 451 q 54 653 54 582 q 93 807 54 736 q 206 920 132 878 q 381 963 281 963 m 361 468 q 579 585 494 468 l 579 594 q 526 796 579 726 q 381 865 472 865 q 233 806 285 865 q 182 657 182 746 q 230 522 182 576 q 361 468 278 468 z "},"\r":{"ha":244,"x_min":0,"x_max":0,"o":""}," ":{"ha":347,"x_min":0,"x_max":0,"o":""},"A":{"ha":906,"x_min":26,"x_max":879,"o":"m 640 293 l 261 293 l 154 0 l 26 0 l 393 957 l 511 957 l 879 0 l 749 0 l 640 293 m 606 389 l 451 808 l 297 389 l 606 389 z "},"Á":{"ha":906,"x_min":26,"x_max":879,"o":"m 26 0 m 640 293 l 261 293 l 154 0 l 26 0 l 393 957 l 511 957 l 879 0 l 749 0 l 640 293 m 606 389 l 451 808 l 297 389 l 606 389 m 568 1238 l 697 1238 l 501 1028 l 396 1028 l 568 1238 z "},"Ă":{"ha":906,"x_min":26,"x_max":879,"o":"m 26 0 m 640 293 l 261 293 l 154 0 l 26 0 l 393 957 l 511 957 l 879 0 l 749 0 l 640 293 m 606 389 l 451 808 l 297 389 l 606 389 m 453 1051 q 301 1108 357 1051 q 243 1263 246 1164 l 331 1265 q 367 1166 335 1199 q 453 1133 399 1133 q 538 1166 507 1133 q 574 1265 569 1199 l 661 1263 q 603 1108 658 1164 q 453 1051 549 1051 z "},"Â":{"ha":906,"x_min":26,"x_max":879,"o":"m 26 0 m 640 293 l 261 293 l 154 0 l 26 0 l 393 957 l 511 957 l 879 0 l 749 0 l 640 293 m 606 389 l 451 808 l 297 389 l 606 389 m 576 1028 l 453 1176 l 328 1028 l 214 1028 l 389 1238 l 515 1238 l 692 1028 l 576 1028 z "},"Ä":{"ha":906,"x_min":26,"x_max":879,"o":"m 26 0 m 640 293 l 261 293 l 154 0 l 26 0 l 393 957 l 511 957 l 879 0 l 749 0 l 640 293 m 606 389 l 451 808 l 297 389 l 606 389 m 313 1067 q 262 1088 283 1067 q 240 1138 240 1110 q 262 1190 240 1168 q 313 1211 283 1211 q 365 1190 343 1211 q 386 1138 386 1168 q 365 1088 386 1110 q 313 1067 343 1067 m 594 1067 q 544 1088 565 1067 q 522 1138 522 1110 q 544 1190 522 1168 q 594 1211 565 1211 q 647 1190 625 1211 q 668 1138 668 1168 q 647 1088 668 1110 q 594 1067 625 1067 z "},"À":{"ha":906,"x_min":26,"x_max":879,"o":"m 26 0 m 640 293 l 261 293 l 154 0 l 26 0 l 393 957 l 511 957 l 879 0 l 749 0 l 640 293 m 606 389 l 451 808 l 297 389 l 606 389 m 210 1238 l 339 1238 l 511 1028 l 406 1028 l 210 1238 z "},"Ā":{"ha":906,"x_min":26,"x_max":879,"o":"m 26 0 m 640 293 l 261 293 l 154 0 l 26 0 l 393 957 l 511 957 l 879 0 l 749 0 l 640 293 m 606 389 l 451 808 l 297 389 l 606 389 m 233 1188 l 671 1188 l 671 1096 l 233 1096 l 233 1188 z "},"Ą":{"ha":906,"x_min":26,"x_max":901,"o":"m 901 -272 q 836 -324 876 -303 q 751 -344 796 -344 q 645 -308 685 -344 q 606 -208 606 -272 q 642 -95 606 -153 q 743 14 678 -37 l 640 293 l 261 293 l 154 0 l 26 0 l 393 957 l 511 957 l 879 0 l 836 0 q 739 -103 771 -57 q 707 -190 707 -149 q 724 -235 707 -219 q 769 -251 740 -251 q 858 -208 814 -251 l 901 -272 m 606 389 l 451 808 l 297 389 l 606 389 z "},"Å":{"ha":906,"x_min":26,"x_max":879,"o":"m 26 0 m 640 293 l 261 293 l 154 0 l 26 0 l 393 957 l 511 957 l 879 0 l 749 0 l 640 293 m 606 389 l 451 808 l 297 389 l 606 389 m 453 1024 q 346 1058 385 1024 q 307 1143 307 1093 q 346 1229 307 1194 q 453 1264 385 1264 q 561 1228 522 1264 q 600 1143 600 1193 q 560 1058 600 1093 q 453 1024 521 1024 m 453 1090 q 498 1105 482 1090 q 514 1143 514 1119 q 498 1183 514 1168 q 453 1197 482 1197 q 408 1182 425 1197 q 392 1143 392 1167 q 408 1105 392 1119 q 453 1090 425 1090 z "},"Ã":{"ha":906,"x_min":26,"x_max":879,"o":"m 26 0 m 640 293 l 261 293 l 154 0 l 26 0 l 393 957 l 511 957 l 879 0 l 749 0 l 640 293 m 606 389 l 451 808 l 297 389 l 606 389 m 219 1042 q 263 1186 226 1135 q 358 1238 299 1238 q 417 1222 393 1238 q 468 1176 440 1206 q 507 1140 492 1151 q 543 1129 522 1129 q 586 1156 571 1129 q 610 1242 601 1182 l 686 1236 q 643 1092 679 1146 q 547 1039 607 1039 q 485 1056 510 1039 q 432 1103 460 1072 q 396 1136 411 1125 q 363 1147 381 1147 q 320 1122 335 1147 q 296 1036 306 1097 l 219 1042 z "},"Æ":{"ha":1374,"x_min":18,"x_max":1294,"o":"m 1294 96 l 1294 0 l 715 0 l 715 390 l 410 390 l 156 0 l 18 0 l 650 944 l 1267 944 l 1267 849 l 843 849 l 843 513 l 1211 513 l 1211 417 l 843 417 l 843 96 l 1294 96 m 715 486 l 715 860 l 472 486 l 715 486 z "},"B":{"ha":879,"x_min":154,"x_max":813,"o":"m 610 499 q 760 415 708 478 q 813 261 813 351 q 724 71 813 142 q 471 0 636 0 l 154 0 l 154 944 l 471 944 q 694 881 617 944 q 771 704 771 818 q 729 575 771 631 q 610 499 688 519 m 282 849 l 282 544 l 471 544 q 598 585 553 544 q 643 696 643 625 q 599 810 643 772 q 471 849 554 849 l 282 849 m 471 96 q 629 142 574 96 q 685 272 685 189 q 630 405 685 361 q 471 449 575 449 l 282 449 l 282 96 l 471 96 z "},"C":{"ha":963,"x_min":78,"x_max":897,"o":"m 554 -21 q 292 47 399 -21 q 131 228 185 115 q 78 474 78 340 q 133 718 78 607 q 300 896 189 829 q 571 963 411 963 q 745 933 664 963 q 883 849 826 903 l 831 764 q 717 837 786 810 q 571 864 647 864 q 372 813 454 864 q 248 672 290 761 q 206 472 206 583 q 246 269 206 358 q 365 129 286 181 q 554 78 443 78 q 850 208 725 78 l 897 125 q 747 20 835 61 q 554 -21 660 -21 z "},"Ć":{"ha":963,"x_min":78,"x_max":897,"o":"m 78 0 m 554 -21 q 292 47 399 -21 q 131 228 185 115 q 78 474 78 340 q 133 718 78 607 q 300 896 189 829 q 571 963 411 963 q 745 933 664 963 q 883 849 826 903 l 831 764 q 717 837 786 810 q 571 864 647 864 q 372 813 454 864 q 248 672 290 761 q 206 472 206 583 q 246 269 206 358 q 365 129 286 181 q 554 78 443 78 q 850 208 725 78 l 897 125 q 747 20 835 61 q 554 -21 660 -21 m 668 1238 l 797 1238 l 601 1028 l 496 1028 l 668 1238 z "},"Č":{"ha":963,"x_min":78,"x_max":897,"o":"m 78 0 m 554 -21 q 292 47 399 -21 q 131 228 185 115 q 78 474 78 340 q 133 718 78 607 q 300 896 189 829 q 571 963 411 963 q 745 933 664 963 q 883 849 826 903 l 831 764 q 717 837 786 810 q 571 864 647 864 q 372 813 454 864 q 248 672 290 761 q 206 472 206 583 q 246 269 206 358 q 365 129 286 181 q 554 78 443 78 q 850 208 725 78 l 897 125 q 747 20 835 61 q 554 -21 660 -21 m 792 1238 l 615 1028 l 489 1028 l 314 1238 l 428 1238 l 553 1089 l 676 1238 l 792 1238 z "},"Ç":{"ha":963,"x_min":78,"x_max":897,"o":"m 897 125 q 765 28 842 67 q 596 -19 688 -11 l 558 -89 q 579 -87 565 -87 q 656 -113 625 -87 q 688 -178 688 -139 q 642 -269 688 -229 q 499 -332 596 -310 l 469 -272 q 564 -231 539 -251 q 589 -186 589 -210 q 578 -162 589 -171 q 546 -153 567 -153 q 496 -165 524 -153 l 453 -121 l 507 -19 q 270 61 367 -8 q 126 239 174 131 q 78 474 78 347 q 133 718 78 607 q 300 896 189 829 q 571 963 411 963 q 745 933 664 963 q 883 849 826 903 l 831 764 q 717 837 786 810 q 571 864 647 864 q 372 813 454 864 q 248 672 290 761 q 206 472 206 583 q 246 269 206 358 q 365 129 286 181 q 554 78 443 78 q 850 208 725 78 l 897 125 z "},"D":{"ha":1021,"x_min":154,"x_max":943,"o":"m 485 944 q 735 883 632 944 q 891 715 839 822 q 943 474 943 608 q 891 228 943 335 q 735 60 839 121 q 485 0 632 0 l 154 0 l 154 944 l 485 944 m 485 97 q 729 199 643 97 q 815 472 815 300 q 728 745 815 643 q 485 847 642 847 l 282 847 l 282 97 l 485 97 z "},"Ð":{"ha":1021,"x_min":4,"x_max":943,"o":"m 485 944 q 735 883 632 944 q 891 715 839 822 q 943 474 943 608 q 891 228 943 335 q 735 60 839 121 q 485 0 632 0 l 154 0 l 154 435 l 4 435 l 4 526 l 154 526 l 154 944 l 485 944 m 485 97 q 729 199 643 97 q 815 472 815 300 q 728 745 815 643 q 485 847 642 847 l 282 847 l 282 526 l 546 526 l 546 435 l 282 435 l 282 97 l 485 97 z "},"Ď":{"ha":1021,"x_min":154,"x_max":943,"o":"m 154 0 m 485 944 q 735 883 632 944 q 891 715 839 822 q 943 474 943 608 q 891 228 943 335 q 735 60 839 121 q 485 0 632 0 l 154 0 l 154 944 l 485 944 m 485 97 q 729 199 643 97 q 815 472 815 300 q 728 745 815 643 q 485 847 642 847 l 282 847 l 282 97 l 485 97 m 733 1238 l 557 1028 l 431 1028 l 256 1238 l 369 1238 l 494 1089 l 618 1238 l 733 1238 z "},"Đ":{"ha":1021,"x_min":4,"x_max":943,"o":"m 485 944 q 735 883 632 944 q 891 715 839 822 q 943 474 943 608 q 891 228 943 335 q 735 60 839 121 q 485 0 632 0 l 154 0 l 154 435 l 4 435 l 4 526 l 154 526 l 154 944 l 485 944 m 485 97 q 729 199 643 97 q 815 472 815 300 q 728 745 815 643 q 485 847 642 847 l 282 847 l 282 526 l 546 526 l 546 435 l 282 435 l 282 97 l 485 97 z "},"E":{"ha":813,"x_min":154,"x_max":733,"o":"m 733 96 l 733 0 l 154 0 l 154 944 l 706 944 l 706 849 l 282 849 l 282 547 l 650 547 l 650 451 l 282 451 l 282 96 l 733 96 z "},"É":{"ha":813,"x_min":154,"x_max":733,"o":"m 154 0 m 733 96 l 733 0 l 154 0 l 154 944 l 706 944 l 706 849 l 282 849 l 282 547 l 650 547 l 650 451 l 282 451 l 282 96 l 733 96 m 551 1238 l 681 1238 l 485 1028 l 379 1028 l 551 1238 z "},"Ě":{"ha":813,"x_min":154,"x_max":733,"o":"m 154 0 m 733 96 l 733 0 l 154 0 l 154 944 l 706 944 l 706 849 l 282 849 l 282 547 l 650 547 l 650 451 l 282 451 l 282 96 l 733 96 m 675 1238 l 499 1028 l 372 1028 l 197 1238 l 311 1238 l 436 1089 l 560 1238 l 675 1238 z "},"Ê":{"ha":813,"x_min":154,"x_max":733,"o":"m 154 0 m 733 96 l 733 0 l 154 0 l 154 944 l 706 944 l 706 849 l 282 849 l 282 547 l 650 547 l 650 451 l 282 451 l 282 96 l 733 96 m 560 1028 l 436 1176 l 311 1028 l 197 1028 l 372 1238 l 499 1238 l 675 1028 l 560 1028 z "},"Ë":{"ha":813,"x_min":154,"x_max":733,"o":"m 154 0 m 733 96 l 733 0 l 154 0 l 154 944 l 706 944 l 706 849 l 282 849 l 282 547 l 650 547 l 650 451 l 282 451 l 282 96 l 733 96 m 296 1067 q 245 1088 267 1067 q 224 1138 224 1110 q 245 1190 224 1168 q 296 1211 267 1211 q 348 1190 326 1211 q 369 1138 369 1168 q 348 1088 369 1110 q 296 1067 326 1067 m 578 1067 q 527 1088 549 1067 q 506 1138 506 1110 q 527 1190 506 1168 q 578 1211 549 1211 q 630 1190 608 1211 q 651 1138 651 1168 q 630 1088 651 1110 q 578 1067 608 1067 z "},"Ė":{"ha":813,"x_min":154,"x_max":733,"o":"m 154 0 m 733 96 l 733 0 l 154 0 l 154 944 l 706 944 l 706 849 l 282 849 l 282 547 l 650 547 l 650 451 l 282 451 l 282 96 l 733 96 m 436 1067 q 385 1088 407 1067 q 364 1138 364 1108 q 385 1189 364 1168 q 436 1210 407 1210 q 488 1189 467 1210 q 510 1138 510 1168 q 488 1088 510 1108 q 436 1067 467 1067 z "},"È":{"ha":813,"x_min":154,"x_max":733,"o":"m 154 0 m 733 96 l 733 0 l 154 0 l 154 944 l 706 944 l 706 849 l 282 849 l 282 547 l 650 547 l 650 451 l 282 451 l 282 96 l 733 96 m 193 1238 l 322 1238 l 494 1028 l 389 1028 l 193 1238 z "},"Ē":{"ha":813,"x_min":154,"x_max":733,"o":"m 154 0 m 733 96 l 733 0 l 154 0 l 154 944 l 706 944 l 706 849 l 282 849 l 282 547 l 650 547 l 650 451 l 282 451 l 282 96 l 733 96 m 217 1188 l 654 1188 l 654 1096 l 217 1096 l 217 1188 z "},"Ę":{"ha":813,"x_min":154,"x_max":746,"o":"m 154 0 m 733 96 l 733 0 l 154 0 l 154 944 l 706 944 l 706 849 l 282 849 l 282 547 l 650 547 l 650 451 l 282 451 l 282 96 l 733 96 m 596 -344 q 490 -308 529 -344 q 450 -208 450 -272 q 488 -92 450 -151 q 596 21 526 -32 l 706 21 q 589 -94 626 -44 q 551 -190 551 -144 q 568 -235 551 -219 q 614 -251 585 -251 q 703 -208 658 -251 l 746 -272 q 681 -324 721 -303 q 596 -344 640 -344 z "},"F":{"ha":743,"x_min":154,"x_max":706,"o":"m 282 847 l 282 522 l 650 522 l 650 425 l 282 425 l 282 0 l 154 0 l 154 944 l 706 944 l 706 847 l 282 847 z "},"G":{"ha":990,"x_min":78,"x_max":889,"o":"m 889 442 l 889 54 q 747 0 835 21 q 554 -21 660 -21 q 292 47 399 -21 q 131 228 185 115 q 78 474 78 340 q 133 718 78 607 q 300 896 189 829 q 571 963 411 963 q 745 933 664 963 q 883 849 826 903 l 831 764 q 717 837 786 810 q 571 864 647 864 q 372 813 454 864 q 248 672 290 761 q 206 472 206 583 q 246 269 206 358 q 365 129 286 181 q 554 78 443 78 q 765 106 671 78 l 765 442 l 889 442 z "},"Ğ":{"ha":990,"x_min":78,"x_max":889,"o":"m 78 0 m 889 442 l 889 54 q 747 0 835 21 q 554 -21 660 -21 q 292 47 399 -21 q 131 228 185 115 q 78 474 78 340 q 133 718 78 607 q 300 896 189 829 q 571 963 411 963 q 745 933 664 963 q 883 849 826 903 l 831 764 q 717 837 786 810 q 571 864 647 864 q 372 813 454 864 q 248 672 290 761 q 206 472 206 583 q 246 269 206 358 q 365 129 286 181 q 554 78 443 78 q 765 106 671 78 l 765 442 l 889 442 m 551 1051 q 400 1108 456 1051 q 342 1263 344 1164 l 429 1265 q 465 1166 433 1199 q 551 1133 497 1133 q 637 1166 606 1133 q 672 1265 668 1199 l 760 1263 q 702 1108 757 1164 q 551 1051 647 1051 z "},"Ģ":{"ha":990,"x_min":78,"x_max":889,"o":"m 78 0 m 889 442 l 889 54 q 747 0 835 21 q 554 -21 660 -21 q 292 47 399 -21 q 131 228 185 115 q 78 474 78 340 q 133 718 78 607 q 300 896 189 829 q 571 963 411 963 q 745 933 664 963 q 883 849 826 903 l 831 764 q 717 837 786 810 q 571 864 647 864 q 372 813 454 864 q 248 672 290 761 q 206 472 206 583 q 246 269 206 358 q 365 129 286 181 q 554 78 443 78 q 765 106 671 78 l 765 442 l 889 442 m 465 -279 q 542 -244 521 -264 q 564 -197 564 -225 q 548 -165 564 -178 q 494 -146 532 -151 l 522 -78 q 628 -117 596 -86 q 661 -193 661 -149 q 620 -283 661 -244 q 494 -340 579 -321 l 465 -279 z "},"H":{"ha":1075,"x_min":154,"x_max":919,"o":"m 919 944 l 919 0 l 792 0 l 792 451 l 282 451 l 282 0 l 154 0 l 154 944 l 282 944 l 282 549 l 792 549 l 792 944 l 919 944 z "},"Ħ":{"ha":1075,"x_min":4,"x_max":1072,"o":"m 1072 703 l 919 703 l 919 0 l 792 0 l 792 451 l 282 451 l 282 0 l 154 0 l 154 703 l 4 703 l 4 794 l 154 794 l 154 944 l 282 944 l 282 794 l 792 794 l 792 944 l 919 944 l 919 794 l 1072 794 l 1072 703 m 792 703 l 282 703 l 282 549 l 792 549 l 792 703 z "},"I":{"ha":438,"x_min":154,"x_max":282,"o":"m 154 944 l 282 944 l 282 0 l 154 0 l 154 944 z "},"Ĳ":{"ha":875,"x_min":154,"x_max":721,"o":"m 154 0 m 154 944 l 282 944 l 282 0 l 154 0 l 154 944 m 460 -337 q 368 -326 419 -337 l 383 -231 q 447 -237 418 -237 q 558 -186 524 -237 q 592 -26 592 -135 l 592 944 l 721 944 l 721 -29 q 656 -258 721 -179 q 460 -337 592 -337 z "},"Í":{"ha":438,"x_min":154,"x_max":463,"o":"m 154 0 m 154 944 l 282 944 l 282 0 l 154 0 l 154 944 m 333 1238 l 463 1238 l 267 1028 l 161 1028 l 333 1238 z "},"Î":{"ha":438,"x_min":-21,"x_max":457,"o":"m 0 0 m 154 944 l 282 944 l 282 0 l 154 0 l 154 944 m 342 1028 l 218 1176 l 93 1028 l -21 1028 l 154 1238 l 281 1238 l 457 1028 l 342 1028 z "},"Ï":{"ha":438,"x_min":6,"x_max":433,"o":"m 6 0 m 154 944 l 282 944 l 282 0 l 154 0 l 154 944 m 78 1067 q 27 1088 49 1067 q 6 1138 6 1110 q 27 1190 6 1168 q 78 1211 49 1211 q 130 1190 108 1211 q 151 1138 151 1168 q 130 1088 151 1110 q 78 1067 108 1067 m 360 1067 q 309 1088 331 1067 q 288 1138 288 1110 q 309 1190 288 1168 q 360 1211 331 1211 q 412 1190 390 1211 q 433 1138 433 1168 q 412 1088 433 1110 q 360 1067 390 1067 z "},"İ":{"ha":438,"x_min":146,"x_max":292,"o":"m 146 0 m 154 944 l 282 944 l 282 0 l 154 0 l 154 944 m 218 1067 q 167 1088 189 1067 q 146 1138 146 1108 q 167 1189 146 1168 q 218 1210 189 1210 q 270 1189 249 1210 q 292 1138 292 1168 q 270 1088 292 1108 q 218 1067 249 1067 z "},"Ì":{"ha":438,"x_min":-25,"x_max":282,"o":"m 0 0 m 154 944 l 282 944 l 282 0 l 154 0 l 154 944 m -25 1238 l 104 1238 l 276 1028 l 171 1028 l -25 1238 z "},"Ī":{"ha":438,"x_min":-1,"x_max":436,"o":"m 0 0 m 154 944 l 282 944 l 282 0 l 154 0 l 154 944 m -1 1188 l 436 1188 l 436 1096 l -1 1096 l -1 1188 z "},"Į":{"ha":438,"x_min":17,"x_max":313,"o":"m 313 -272 q 247 -324 288 -303 q 163 -344 207 -344 q 56 -308 96 -344 q 17 -208 17 -272 q 52 -96 17 -153 q 154 14 88 -39 l 154 944 l 282 944 l 282 0 l 247 0 q 150 -103 182 -57 q 118 -190 118 -149 q 135 -235 118 -219 q 181 -251 151 -251 q 269 -208 225 -251 l 313 -272 z "},"Ĩ":{"ha":438,"x_min":-15,"x_max":451,"o":"m 0 0 m 154 944 l 282 944 l 282 0 l 154 0 l 154 944 m -15 1042 q 28 1186 -8 1135 q 124 1238 64 1238 q 182 1222 158 1238 q 233 1176 206 1206 q 272 1140 257 1151 q 308 1129 288 1129 q 351 1156 336 1129 q 375 1242 367 1182 l 451 1236 q 408 1092 444 1146 q 313 1039 372 1039 q 250 1056 275 1039 q 197 1103 225 1072 q 161 1136 176 1125 q 128 1147 146 1147 q 85 1122 100 1147 q 61 1036 71 1097 l -15 1042 z "},"J":{"ha":438,"x_min":-69,"x_max":283,"o":"m 22 -337 q -69 -326 -18 -337 l -54 -231 q 10 -237 -19 -237 q 120 -186 86 -237 q 154 -26 154 -135 l 154 944 l 283 944 l 283 -29 q 219 -258 283 -179 q 22 -337 154 -337 z "},"Ĵ":{"ha":438,"x_min":-69,"x_max":457,"o":"m 0 0 m 22 -337 q -69 -326 -18 -337 l -54 -231 q 10 -237 -19 -237 q 120 -186 86 -237 q 154 -26 154 -135 l 154 944 l 283 944 l 283 -29 q 219 -258 283 -179 q 22 -337 154 -337 m 342 1028 l 218 1176 l 93 1028 l -21 1028 l 154 1238 l 281 1238 l 457 1028 l 342 1028 z "},"K":{"ha":949,"x_min":154,"x_max":913,"o":"m 154 944 l 282 944 l 282 0 l 154 0 l 154 944 m 913 0 l 757 0 l 306 493 l 306 521 l 707 944 l 857 944 l 435 511 l 913 0 z "},"Ķ":{"ha":949,"x_min":154,"x_max":913,"o":"m 154 0 m 154 944 l 282 944 l 282 0 l 154 0 l 154 944 m 913 0 l 757 0 l 306 493 l 306 521 l 707 944 l 857 944 l 435 511 l 913 0 m 392 -279 q 469 -244 447 -264 q 490 -197 490 -225 q 474 -165 490 -178 q 421 -146 458 -151 l 449 -78 q 555 -117 522 -86 q 588 -193 588 -149 q 547 -283 588 -244 q 421 -340 506 -321 l 392 -279 z "},"L":{"ha":778,"x_min":154,"x_max":733,"o":"m 733 96 l 733 0 l 154 0 l 154 944 l 282 944 l 282 96 l 733 96 z "},"Ĺ":{"ha":778,"x_min":154,"x_max":733,"o":"m 154 0 m 733 96 l 733 0 l 154 0 l 154 944 l 282 944 l 282 96 l 733 96 m 342 1238 l 471 1238 l 275 1028 l 169 1028 l 342 1238 z "},"Ľ":{"ha":778,"x_min":154,"x_max":733,"o":"m 154 0 m 733 96 l 733 0 l 154 0 l 154 944 l 282 944 l 282 96 l 733 96 m 368 668 q 450 840 450 731 q 429 944 450 886 l 538 944 q 551 847 551 894 q 511 710 551 772 q 408 615 471 647 l 368 668 z "},"Ļ":{"ha":778,"x_min":154,"x_max":733,"o":"m 154 0 m 733 96 l 733 0 l 154 0 l 154 944 l 282 944 l 282 96 l 733 96 m 369 -279 q 447 -244 425 -264 q 468 -197 468 -225 q 452 -165 468 -178 q 399 -146 436 -151 l 426 -78 q 533 -117 500 -86 q 565 -193 565 -149 q 524 -283 565 -244 q 399 -340 483 -321 l 369 -279 z "},"Ŀ":{"ha":778,"x_min":154,"x_max":733,"o":"m 154 0 m 733 96 l 733 0 l 154 0 l 154 944 l 282 944 l 282 96 l 733 96 m 586 421 q 526 446 551 421 q 501 506 501 471 q 526 565 501 540 q 586 590 551 590 q 646 565 621 590 q 671 506 671 540 q 646 446 671 471 q 586 421 621 421 z "},"Ł":{"ha":778,"x_min":4,"x_max":733,"o":"m 733 96 l 733 0 l 154 0 l 154 304 l 54 240 l 4 319 l 154 415 l 154 944 l 282 944 l 282 496 l 510 640 l 560 563 l 282 386 l 282 96 l 733 96 z "},"M":{"ha":1218,"x_min":154,"x_max":1063,"o":"m 1063 944 l 1063 0 l 936 0 l 936 329 l 943 738 l 653 304 l 565 304 l 272 742 l 281 329 l 281 0 l 154 0 l 154 944 l 268 944 l 608 439 l 949 944 l 1063 944 z "},"N":{"ha":1075,"x_min":154,"x_max":919,"o":"m 919 944 l 919 0 l 808 -1 l 275 740 l 282 411 l 282 0 l 154 0 l 154 944 l 265 944 l 799 201 l 792 569 l 792 944 l 919 944 z "},"Ń":{"ha":1075,"x_min":154,"x_max":919,"o":"m 154 0 m 919 944 l 919 0 l 808 -1 l 275 740 l 282 411 l 282 0 l 154 0 l 154 944 l 265 944 l 799 201 l 792 569 l 792 944 l 919 944 m 653 1238 l 782 1238 l 586 1028 l 481 1028 l 653 1238 z "},"Ň":{"ha":1075,"x_min":154,"x_max":919,"o":"m 154 0 m 919 944 l 919 0 l 808 -1 l 275 740 l 282 411 l 282 0 l 154 0 l 154 944 l 265 944 l 799 201 l 792 569 l 792 944 l 919 944 m 776 1238 l 600 1028 l 474 1028 l 299 1238 l 413 1238 l 538 1089 l 661 1238 l 776 1238 z "},"Ņ":{"ha":1075,"x_min":154,"x_max":919,"o":"m 154 0 m 919 944 l 919 0 l 808 -1 l 275 740 l 282 411 l 282 0 l 154 0 l 154 944 l 265 944 l 799 201 l 792 569 l 792 944 l 919 944 m 446 -279 q 523 -244 501 -264 q 544 -197 544 -225 q 528 -165 544 -178 q 475 -146 513 -151 l 503 -78 q 609 -117 576 -86 q 642 -193 642 -149 q 601 -283 642 -244 q 475 -340 560 -321 l 446 -279 z "},"Ñ":{"ha":1075,"x_min":154,"x_max":919,"o":"m 154 0 m 919 944 l 919 0 l 808 -1 l 275 740 l 282 411 l 282 0 l 154 0 l 154 944 l 265 944 l 799 201 l 792 569 l 792 944 l 919 944 m 304 1042 q 347 1186 311 1135 q 443 1238 383 1238 q 501 1222 478 1238 q 553 1176 525 1206 q 592 1140 576 1151 q 628 1129 607 1129 q 671 1156 656 1129 q 694 1242 686 1182 l 771 1236 q 728 1092 764 1146 q 632 1039 692 1039 q 569 1056 594 1039 q 517 1103 544 1072 q 481 1136 496 1125 q 447 1147 465 1147 q 405 1122 419 1147 q 381 1036 390 1097 l 304 1042 z "},"O":{"ha":1079,"x_min":78,"x_max":1003,"o":"m 540 -22 q 288 44 393 -22 q 131 222 183 110 q 78 471 78 335 q 131 719 78 607 q 288 897 183 831 q 540 963 393 963 q 792 897 688 963 q 950 719 897 831 q 1003 472 1003 607 q 950 222 1003 335 q 792 44 897 110 q 540 -22 688 -22 m 540 78 q 721 128 646 78 q 835 269 796 179 q 874 471 874 358 q 835 672 874 583 q 720 813 796 761 q 540 864 644 864 q 359 813 435 864 q 244 672 283 761 q 206 471 206 583 q 244 269 206 358 q 359 128 283 179 q 540 78 435 78 z "},"Ó":{"ha":1079,"x_min":78,"x_max":1003,"o":"m 78 0 m 540 -22 q 288 44 393 -22 q 131 222 183 110 q 78 471 78 335 q 131 719 78 607 q 288 897 183 831 q 540 963 393 963 q 792 897 688 963 q 950 719 897 831 q 1003 472 1003 607 q 950 222 1003 335 q 792 44 897 110 q 540 -22 688 -22 m 540 78 q 721 128 646 78 q 835 269 796 179 q 874 471 874 358 q 835 672 874 583 q 720 813 796 761 q 540 864 644 864 q 359 813 435 864 q 244 672 283 761 q 206 471 206 583 q 244 269 206 358 q 359 128 283 179 q 540 78 435 78 m 656 1238 l 785 1238 l 589 1028 l 483 1028 l 656 1238 z "},"Ô":{"ha":1079,"x_min":78,"x_max":1003,"o":"m 78 0 m 540 -22 q 288 44 393 -22 q 131 222 183 110 q 78 471 78 335 q 131 719 78 607 q 288 897 183 831 q 540 963 393 963 q 792 897 688 963 q 950 719 897 831 q 1003 472 1003 607 q 950 222 1003 335 q 792 44 897 110 q 540 -22 688 -22 m 540 78 q 721 128 646 78 q 835 269 796 179 q 874 471 874 358 q 835 672 874 583 q 720 813 796 761 q 540 864 644 864 q 359 813 435 864 q 244 672 283 761 q 206 471 206 583 q 244 269 206 358 q 359 128 283 179 q 540 78 435 78 m 664 1028 l 540 1176 l 415 1028 l 301 1028 l 476 1238 l 603 1238 l 779 1028 l 664 1028 z "},"Ö":{"ha":1079,"x_min":78,"x_max":1003,"o":"m 78 0 m 540 -22 q 288 44 393 -22 q 131 222 183 110 q 78 471 78 335 q 131 719 78 607 q 288 897 183 831 q 540 963 393 963 q 792 897 688 963 q 950 719 897 831 q 1003 472 1003 607 q 950 222 1003 335 q 792 44 897 110 q 540 -22 688 -22 m 540 78 q 721 128 646 78 q 835 269 796 179 q 874 471 874 358 q 835 672 874 583 q 720 813 796 761 q 540 864 644 864 q 359 813 435 864 q 244 672 283 761 q 206 471 206 583 q 244 269 206 358 q 359 128 283 179 q 540 78 435 78 m 400 1067 q 349 1088 371 1067 q 328 1138 328 1110 q 349 1190 328 1168 q 400 1211 371 1211 q 452 1190 431 1211 q 474 1138 474 1168 q 452 1088 474 1110 q 400 1067 431 1067 m 682 1067 q 631 1088 653 1067 q 610 1138 610 1110 q 631 1190 610 1168 q 682 1211 653 1211 q 734 1190 713 1211 q 756 1138 756 1168 q 734 1088 756 1110 q 682 1067 713 1067 z "},"Ò":{"ha":1079,"x_min":78,"x_max":1003,"o":"m 78 0 m 540 -22 q 288 44 393 -22 q 131 222 183 110 q 78 471 78 335 q 131 719 78 607 q 288 897 183 831 q 540 963 393 963 q 792 897 688 963 q 950 719 897 831 q 1003 472 1003 607 q 950 222 1003 335 q 792 44 897 110 q 540 -22 688 -22 m 540 78 q 721 128 646 78 q 835 269 796 179 q 874 471 874 358 q 835 672 874 583 q 720 813 796 761 q 540 864 644 864 q 359 813 435 864 q 244 672 283 761 q 206 471 206 583 q 244 269 206 358 q 359 128 283 179 q 540 78 435 78 m 297 1238 l 426 1238 l 599 1028 l 493 1028 l 297 1238 z "},"Ő":{"ha":1079,"x_min":78,"x_max":1003,"o":"m 78 0 m 540 -22 q 288 44 393 -22 q 131 222 183 110 q 78 471 78 335 q 131 719 78 607 q 288 897 183 831 q 540 963 393 963 q 792 897 688 963 q 950 719 897 831 q 1003 472 1003 607 q 950 222 1003 335 q 792 44 897 110 q 540 -22 688 -22 m 540 78 q 721 128 646 78 q 835 269 796 179 q 874 471 874 358 q 835 672 874 583 q 720 813 796 761 q 540 864 644 864 q 359 813 435 864 q 244 672 283 761 q 206 471 206 583 q 244 269 206 358 q 359 128 283 179 q 540 78 435 78 m 531 1238 l 651 1238 l 457 1028 l 358 1028 l 531 1238 m 783 1238 l 904 1238 l 710 1028 l 611 1028 l 783 1238 z "},"Ō":{"ha":1079,"x_min":78,"x_max":1003,"o":"m 78 0 m 540 -22 q 288 44 393 -22 q 131 222 183 110 q 78 471 78 335 q 131 719 78 607 q 288 897 183 831 q 540 963 393 963 q 792 897 688 963 q 950 719 897 831 q 1003 472 1003 607 q 950 222 1003 335 q 792 44 897 110 q 540 -22 688 -22 m 540 78 q 721 128 646 78 q 835 269 796 179 q 874 471 874 358 q 835 672 874 583 q 720 813 796 761 q 540 864 644 864 q 359 813 435 864 q 244 672 283 761 q 206 471 206 583 q 244 269 206 358 q 359 128 283 179 q 540 78 435 78 m 321 1188 l 758 1188 l 758 1096 l 321 1096 l 321 1188 z "},"Ø":{"ha":1128,"x_min":78,"x_max":1003,"o":"m 896 806 q 976 653 949 739 q 1003 472 1003 568 q 950 222 1003 335 q 792 44 897 110 q 540 -22 688 -22 q 254 67 372 -22 l 153 -50 l 82 11 l 188 132 q 106 286 133 199 q 78 471 78 374 q 131 719 78 607 q 288 897 183 831 q 540 963 393 963 q 829 871 711 963 l 929 985 l 999 924 l 896 806 m 206 471 q 268 225 206 325 l 756 785 q 540 864 669 864 q 359 813 435 864 q 244 672 283 761 q 206 471 206 583 m 540 78 q 721 128 646 78 q 835 269 796 179 q 874 471 874 358 q 814 711 874 611 l 328 153 q 540 78 414 78 z "},"Õ":{"ha":1079,"x_min":78,"x_max":1003,"o":"m 78 0 m 540 -22 q 288 44 393 -22 q 131 222 183 110 q 78 471 78 335 q 131 719 78 607 q 288 897 183 831 q 540 963 393 963 q 792 897 688 963 q 950 719 897 831 q 1003 472 1003 607 q 950 222 1003 335 q 792 44 897 110 q 540 -22 688 -22 m 540 78 q 721 128 646 78 q 835 269 796 179 q 874 471 874 358 q 835 672 874 583 q 720 813 796 761 q 540 864 644 864 q 359 813 435 864 q 244 672 283 761 q 206 471 206 583 q 244 269 206 358 q 359 128 283 179 q 540 78 435 78 m 307 1042 q 350 1186 314 1135 q 446 1238 386 1238 q 504 1222 481 1238 q 556 1176 528 1206 q 594 1140 579 1151 q 631 1129 610 1129 q 674 1156 658 1129 q 697 1242 689 1182 l 774 1236 q 731 1092 767 1146 q 635 1039 694 1039 q 572 1056 597 1039 q 519 1103 547 1072 q 483 1136 499 1125 q 450 1147 468 1147 q 408 1122 422 1147 q 383 1036 393 1097 l 307 1042 z "},"Œ":{"ha":1397,"x_min":78,"x_max":1318,"o":"m 1318 96 l 1318 0 l 536 0 q 287 61 390 0 q 131 229 183 122 q 78 471 78 336 q 131 716 78 608 q 286 884 183 824 q 536 944 389 944 l 1290 944 l 1290 849 l 867 849 l 867 547 l 1235 547 l 1235 451 l 867 451 l 867 96 l 1318 96 m 739 97 l 739 847 l 536 847 q 292 746 379 847 q 206 472 206 644 q 292 200 206 303 q 536 97 379 97 l 739 97 z "},"P":{"ha":856,"x_min":154,"x_max":813,"o":"m 475 944 q 727 870 642 944 q 813 667 813 796 q 727 461 813 535 q 475 388 642 388 l 282 388 l 282 0 l 154 0 l 154 944 l 475 944 m 475 485 q 685 667 685 485 q 631 801 685 753 q 475 849 576 849 l 282 849 l 282 485 l 475 485 z "},"Þ":{"ha":917,"x_min":154,"x_max":813,"o":"m 475 764 q 727 690 642 764 q 813 488 813 617 q 728 281 813 354 q 475 208 643 208 l 282 208 l 282 0 l 154 0 l 154 944 l 282 944 l 282 764 l 475 764 m 475 304 q 685 486 685 304 q 631 620 685 572 q 475 668 576 668 l 282 668 l 282 304 l 475 304 z "},"Q":{"ha":1079,"x_min":78,"x_max":1194,"o":"m 1194 -272 q 1113 -317 1153 -303 q 1032 -332 1074 -332 q 767 -192 886 -332 l 619 -17 q 540 -22 586 -22 q 288 44 393 -22 q 131 222 183 110 q 78 471 78 335 q 131 719 78 607 q 288 897 183 831 q 540 963 393 963 q 792 897 688 963 q 950 719 897 831 q 1003 472 1003 607 q 935 195 1003 317 q 742 18 868 74 l 849 -108 q 1039 -226 950 -226 q 1172 -181 1110 -226 l 1194 -272 m 206 471 q 244 269 206 358 q 359 128 283 179 q 540 78 435 78 q 721 128 646 78 q 835 269 796 179 q 874 471 874 358 q 835 672 874 583 q 720 813 796 761 q 540 864 644 864 q 359 813 435 864 q 244 672 283 761 q 206 471 206 583 z "},"R":{"ha":946,"x_min":154,"x_max":893,"o":"m 454 415 l 282 415 l 282 0 l 154 0 l 154 944 l 471 944 q 715 875 632 944 q 799 685 799 806 q 744 519 799 583 q 585 433 690 454 l 893 0 l 744 0 l 454 415 m 282 513 l 471 513 q 671 681 671 513 q 619 804 671 760 q 471 849 568 849 l 282 849 l 282 513 z "},"Ŕ":{"ha":946,"x_min":154,"x_max":893,"o":"m 154 0 m 454 415 l 282 415 l 282 0 l 154 0 l 154 944 l 471 944 q 715 875 632 944 q 799 685 799 806 q 744 519 799 583 q 585 433 690 454 l 893 0 l 744 0 l 454 415 m 282 513 l 471 513 q 671 681 671 513 q 619 804 671 760 q 471 849 568 849 l 282 849 l 282 513 m 550 1238 l 679 1238 l 483 1028 l 378 1028 l 550 1238 z "},"Ř":{"ha":946,"x_min":154,"x_max":893,"o":"m 154 0 m 454 415 l 282 415 l 282 0 l 154 0 l 154 944 l 471 944 q 715 875 632 944 q 799 685 799 806 q 744 519 799 583 q 585 433 690 454 l 893 0 l 744 0 l 454 415 m 282 513 l 471 513 q 671 681 671 513 q 619 804 671 760 q 471 849 568 849 l 282 849 l 282 513 m 674 1238 l 497 1028 l 371 1028 l 196 1238 l 310 1238 l 435 1089 l 558 1238 l 674 1238 z "},"Ŗ":{"ha":946,"x_min":154,"x_max":893,"o":"m 154 0 m 454 415 l 282 415 l 282 0 l 154 0 l 154 944 l 471 944 q 715 875 632 944 q 799 685 799 806 q 744 519 799 583 q 585 433 690 454 l 893 0 l 744 0 l 454 415 m 282 513 l 471 513 q 671 681 671 513 q 619 804 671 760 q 471 849 568 849 l 282 849 l 282 513 m 385 -279 q 462 -244 440 -264 q 483 -197 483 -225 q 467 -165 483 -178 q 414 -146 451 -151 l 442 -78 q 548 -117 515 -86 q 581 -193 581 -149 q 540 -283 581 -244 q 414 -340 499 -321 l 385 -279 z "},"S":{"ha":821,"x_min":75,"x_max":746,"o":"m 400 -22 q 218 0 296 -22 q 75 67 140 22 l 119 161 q 400 78 236 78 q 557 124 494 78 q 619 249 619 169 q 590 331 619 297 q 517 384 561 364 q 396 432 474 404 q 247 493 303 465 q 151 572 190 521 q 111 701 111 622 q 200 894 111 826 q 428 963 289 963 q 718 875 594 963 l 674 783 q 431 864 563 864 q 292 824 346 864 q 238 707 238 783 q 267 628 238 660 q 339 576 296 596 q 458 528 382 556 q 608 466 551 494 q 706 385 665 438 q 746 254 746 333 q 703 107 746 169 q 581 11 660 44 q 400 -22 503 -22 z "},"Ś":{"ha":821,"x_min":75,"x_max":746,"o":"m 75 0 m 400 -22 q 218 0 296 -22 q 75 67 140 22 l 119 161 q 400 78 236 78 q 557 124 494 78 q 619 249 619 169 q 590 331 619 297 q 517 384 561 364 q 396 432 474 404 q 247 493 303 465 q 151 572 190 521 q 111 701 111 622 q 200 894 111 826 q 428 963 289 963 q 718 875 594 963 l 674 783 q 431 864 563 864 q 292 824 346 864 q 238 707 238 783 q 267 628 238 660 q 339 576 296 596 q 458 528 382 556 q 608 466 551 494 q 706 385 665 438 q 746 254 746 333 q 703 107 746 169 q 581 11 660 44 q 400 -22 503 -22 m 532 1238 l 661 1238 l 465 1028 l 360 1028 l 532 1238 z "},"Š":{"ha":821,"x_min":75,"x_max":746,"o":"m 75 0 m 400 -22 q 218 0 296 -22 q 75 67 140 22 l 119 161 q 400 78 236 78 q 557 124 494 78 q 619 249 619 169 q 590 331 619 297 q 517 384 561 364 q 396 432 474 404 q 247 493 303 465 q 151 572 190 521 q 111 701 111 622 q 200 894 111 826 q 428 963 289 963 q 718 875 594 963 l 674 783 q 431 864 563 864 q 292 824 346 864 q 238 707 238 783 q 267 628 238 660 q 339 576 296 596 q 458 528 382 556 q 608 466 551 494 q 706 385 665 438 q 746 254 746 333 q 703 107 746 169 q 581 11 660 44 q 400 -22 503 -22 m 656 1238 l 479 1028 l 353 1028 l 178 1238 l 292 1238 l 417 1089 l 540 1238 l 656 1238 z "},"Ş":{"ha":821,"x_min":75,"x_max":746,"o":"m 746 254 q 668 67 746 140 q 458 -19 590 -6 l 421 -89 q 442 -87 428 -87 q 519 -113 488 -87 q 550 -178 550 -139 q 504 -269 550 -229 q 361 -332 458 -310 l 332 -272 q 426 -231 401 -251 q 451 -186 451 -210 q 440 -162 451 -171 q 408 -153 429 -153 q 358 -165 386 -153 l 315 -121 l 368 -22 q 206 3 276 -19 q 75 67 136 25 l 119 161 q 400 78 236 78 q 557 124 494 78 q 619 249 619 169 q 590 331 619 297 q 517 384 561 364 q 396 432 474 404 q 247 493 303 465 q 151 572 190 521 q 111 701 111 622 q 200 894 111 826 q 428 963 289 963 q 718 875 594 963 l 674 783 q 431 864 563 864 q 292 824 346 864 q 238 707 238 783 q 267 628 238 660 q 339 576 296 596 q 458 528 382 556 q 608 466 551 494 q 706 385 665 438 q 746 254 746 333 z "},"Ș":{"ha":821,"x_min":75,"x_max":746,"o":"m 75 0 m 400 -22 q 218 0 296 -22 q 75 67 140 22 l 119 161 q 400 78 236 78 q 557 124 494 78 q 619 249 619 169 q 590 331 619 297 q 517 384 561 364 q 396 432 474 404 q 247 493 303 465 q 151 572 190 521 q 111 701 111 622 q 200 894 111 826 q 428 963 289 963 q 718 875 594 963 l 674 783 q 431 864 563 864 q 292 824 346 864 q 238 707 238 783 q 267 628 238 660 q 339 576 296 596 q 458 528 382 556 q 608 466 551 494 q 706 385 665 438 q 746 254 746 333 q 703 107 746 169 q 581 11 660 44 q 400 -22 503 -22 m 332 -279 q 409 -244 388 -264 q 431 -197 431 -225 q 415 -165 431 -178 q 361 -146 399 -151 l 389 -78 q 495 -117 463 -86 q 528 -193 528 -149 q 487 -283 528 -244 q 361 -340 446 -321 l 332 -279 z "},"T":{"ha":858,"x_min":47,"x_max":811,"o":"m 811 847 l 493 847 l 493 0 l 365 0 l 365 847 l 47 847 l 47 944 l 811 944 l 811 847 z "},"Ť":{"ha":858,"x_min":47,"x_max":811,"o":"m 47 0 m 811 847 l 493 847 l 493 0 l 365 0 l 365 847 l 47 847 l 47 944 l 811 944 l 811 847 m 668 1238 l 492 1028 l 365 1028 l 190 1238 l 304 1238 l 429 1089 l 553 1238 l 668 1238 z "},"Ț":{"ha":858,"x_min":47,"x_max":811,"o":"m 47 0 m 811 847 l 493 847 l 493 0 l 365 0 l 365 847 l 47 847 l 47 944 l 811 944 l 811 847 m 338 -279 q 415 -244 393 -264 q 436 -197 436 -225 q 420 -165 436 -178 q 367 -146 404 -151 l 394 -78 q 501 -117 468 -86 q 533 -193 533 -149 q 492 -283 533 -244 q 367 -340 451 -321 l 338 -279 z "},"U":{"ha":1047,"x_min":140,"x_max":906,"o":"m 524 -22 q 240 81 339 -22 q 140 353 140 183 l 140 944 l 268 944 l 268 354 q 335 150 268 222 q 524 78 401 78 q 712 150 646 78 q 778 354 778 222 l 778 944 l 906 944 l 906 356 q 807 81 906 183 q 524 -22 708 -22 z "},"Ú":{"ha":1047,"x_min":140,"x_max":906,"o":"m 140 0 m 524 -22 q 240 81 339 -22 q 140 353 140 183 l 140 944 l 268 944 l 268 354 q 335 150 268 222 q 524 78 401 78 q 712 150 646 78 q 778 354 778 222 l 778 944 l 906 944 l 906 356 q 807 81 906 183 q 524 -22 708 -22 m 639 1238 l 768 1238 l 572 1028 l 467 1028 l 639 1238 z "},"Û":{"ha":1047,"x_min":140,"x_max":906,"o":"m 140 0 m 524 -22 q 240 81 339 -22 q 140 353 140 183 l 140 944 l 268 944 l 268 354 q 335 150 268 222 q 524 78 401 78 q 712 150 646 78 q 778 354 778 222 l 778 944 l 906 944 l 906 356 q 807 81 906 183 q 524 -22 708 -22 m 647 1028 l 524 1176 l 399 1028 l 285 1028 l 460 1238 l 586 1238 l 763 1028 l 647 1028 z "},"Ü":{"ha":1047,"x_min":140,"x_max":906,"o":"m 140 0 m 524 -22 q 240 81 339 -22 q 140 353 140 183 l 140 944 l 268 944 l 268 354 q 335 150 268 222 q 524 78 401 78 q 712 150 646 78 q 778 354 778 222 l 778 944 l 906 944 l 906 356 q 807 81 906 183 q 524 -22 708 -22 m 383 1067 q 333 1088 354 1067 q 311 1138 311 1110 q 333 1190 311 1168 q 383 1211 354 1211 q 435 1190 414 1211 q 457 1138 457 1168 q 435 1088 457 1110 q 383 1067 414 1067 m 665 1067 q 615 1088 636 1067 q 593 1138 593 1110 q 615 1190 593 1168 q 665 1211 636 1211 q 717 1190 696 1211 q 739 1138 739 1168 q 717 1088 739 1110 q 665 1067 696 1067 z "},"Ù":{"ha":1047,"x_min":140,"x_max":906,"o":"m 140 0 m 524 -22 q 240 81 339 -22 q 140 353 140 183 l 140 944 l 268 944 l 268 354 q 335 150 268 222 q 524 78 401 78 q 712 150 646 78 q 778 354 778 222 l 778 944 l 906 944 l 906 356 q 807 81 906 183 q 524 -22 708 -22 m 281 1238 l 410 1238 l 582 1028 l 476 1028 l 281 1238 z "},"Ű":{"ha":1047,"x_min":140,"x_max":906,"o":"m 140 0 m 524 -22 q 240 81 339 -22 q 140 353 140 183 l 140 944 l 268 944 l 268 354 q 335 150 268 222 q 524 78 401 78 q 712 150 646 78 q 778 354 778 222 l 778 944 l 906 944 l 906 356 q 807 81 906 183 q 524 -22 708 -22 m 514 1238 l 635 1238 l 440 1028 l 342 1028 l 514 1238 m 767 1238 l 888 1238 l 693 1028 l 594 1028 l 767 1238 z "},"Ū":{"ha":1047,"x_min":140,"x_max":906,"o":"m 140 0 m 524 -22 q 240 81 339 -22 q 140 353 140 183 l 140 944 l 268 944 l 268 354 q 335 150 268 222 q 524 78 401 78 q 712 150 646 78 q 778 354 778 222 l 778 944 l 906 944 l 906 356 q 807 81 906 183 q 524 -22 708 -22 m 304 1188 l 742 1188 l 742 1096 l 304 1096 l 304 1188 z "},"Ų":{"ha":1047,"x_min":140,"x_max":906,"o":"m 906 944 l 906 356 q 851 137 906 228 q 690 6 796 46 q 588 -100 621 -53 q 554 -190 554 -147 q 571 -235 554 -219 q 617 -251 588 -251 q 706 -208 661 -251 l 749 -272 q 683 -324 724 -303 q 599 -344 643 -344 q 492 -308 532 -344 q 453 -208 453 -272 q 478 -115 453 -162 q 549 -22 503 -68 l 524 -22 q 240 81 339 -22 q 140 353 140 183 l 140 944 l 268 944 l 268 354 q 335 150 268 222 q 524 78 401 78 q 712 150 646 78 q 778 354 778 222 l 778 944 l 906 944 z "},"Ů":{"ha":1047,"x_min":140,"x_max":906,"o":"m 140 0 m 524 -22 q 240 81 339 -22 q 140 353 140 183 l 140 944 l 268 944 l 268 354 q 335 150 268 222 q 524 78 401 78 q 712 150 646 78 q 778 354 778 222 l 778 944 l 906 944 l 906 356 q 807 81 906 183 q 524 -22 708 -22 m 524 1024 q 417 1058 456 1024 q 378 1143 378 1093 q 417 1229 378 1194 q 524 1264 456 1264 q 632 1228 593 1264 q 671 1143 671 1193 q 631 1058 671 1093 q 524 1024 592 1024 m 524 1090 q 569 1105 553 1090 q 585 1143 585 1119 q 569 1183 585 1168 q 524 1197 553 1197 q 479 1182 496 1197 q 463 1143 463 1167 q 479 1105 463 1119 q 524 1090 496 1090 z "},"V":{"ha":932,"x_min":39,"x_max":894,"o":"m 894 944 l 529 -11 l 406 -11 l 39 944 l 169 944 l 468 132 l 767 944 l 894 944 z "},"W":{"ha":1422,"x_min":39,"x_max":1385,"o":"m 1385 944 l 1078 -11 l 956 -11 l 704 769 l 453 -11 l 331 -11 l 39 944 l 169 944 l 394 143 l 649 944 l 761 944 l 1018 140 l 1254 944 l 1385 944 z "},"X":{"ha":978,"x_min":50,"x_max":928,"o":"m 774 0 l 489 406 l 203 0 l 50 0 l 408 489 l 75 944 l 228 944 l 489 571 l 750 944 l 901 944 l 568 490 l 928 0 l 774 0 z "},"Y":{"ha":899,"x_min":36,"x_max":863,"o":"m 513 383 l 513 0 l 385 0 l 385 382 l 36 944 l 176 944 l 450 483 l 724 944 l 863 944 l 513 383 z "},"Ý":{"ha":899,"x_min":36,"x_max":863,"o":"m 36 0 m 513 383 l 513 0 l 385 0 l 385 382 l 36 944 l 176 944 l 450 483 l 724 944 l 863 944 l 513 383 m 564 1238 l 693 1238 l 497 1028 l 392 1028 l 564 1238 z "},"Ÿ":{"ha":899,"x_min":36,"x_max":863,"o":"m 36 0 m 513 383 l 513 0 l 385 0 l 385 382 l 36 944 l 176 944 l 450 483 l 724 944 l 863 944 l 513 383 m 308 1067 q 258 1088 279 1067 q 236 1138 236 1110 q 258 1190 236 1168 q 308 1211 279 1211 q 360 1190 339 1211 q 382 1138 382 1168 q 360 1088 382 1110 q 308 1067 339 1067 m 590 1067 q 540 1088 561 1067 q 518 1138 518 1110 q 540 1190 518 1168 q 590 1211 561 1211 q 642 1190 621 1211 q 664 1138 664 1168 q 642 1088 664 1110 q 590 1067 621 1067 z "},"Z":{"ha":926,"x_min":99,"x_max":854,"o":"m 854 97 l 854 0 l 99 0 l 99 71 l 682 847 l 117 847 l 117 944 l 835 944 l 835 863 l 258 97 l 854 97 z "},"Ź":{"ha":926,"x_min":99,"x_max":854,"o":"m 99 0 m 854 97 l 854 0 l 99 0 l 99 71 l 682 847 l 117 847 l 117 944 l 835 944 l 835 863 l 258 97 l 854 97 m 593 1238 l 722 1238 l 526 1028 l 421 1028 l 593 1238 z "},"Ž":{"ha":926,"x_min":99,"x_max":854,"o":"m 99 0 m 854 97 l 854 0 l 99 0 l 99 71 l 682 847 l 117 847 l 117 944 l 835 944 l 835 863 l 258 97 l 854 97 m 717 1238 l 540 1028 l 414 1028 l 239 1238 l 353 1238 l 478 1089 l 601 1238 l 717 1238 z "},"Ż":{"ha":926,"x_min":99,"x_max":854,"o":"m 99 0 m 854 97 l 854 0 l 99 0 l 99 71 l 682 847 l 117 847 l 117 944 l 835 944 l 835 863 l 258 97 l 854 97 m 478 1067 q 427 1088 449 1067 q 406 1138 406 1108 q 427 1189 406 1168 q 478 1210 449 1210 q 530 1189 508 1210 q 551 1138 551 1168 q 530 1088 551 1108 q 478 1067 508 1067 z "},"a":{"ha":771,"x_min":67,"x_max":744,"o":"m 744 1 q 644 -18 694 -17 q 553 4 589 -18 q 510 82 518 26 q 265 -19 378 -19 q 122 31 178 -19 q 67 158 67 82 q 106 276 67 229 q 215 353 144 322 q 404 418 285 383 l 507 447 l 507 501 q 381 668 507 668 q 253 640 311 668 q 121 533 194 611 l 69 611 q 404 767 225 767 q 577 704 524 767 q 631 496 631 642 l 631 133 q 642 90 631 103 q 676 76 653 76 q 736 90 697 76 l 744 1 m 190 168 q 218 99 190 121 q 292 76 246 76 q 390 100 339 76 q 507 172 440 124 l 507 365 l 428 342 q 243 264 296 301 q 190 168 190 226 z "},"á":{"ha":771,"x_min":67,"x_max":744,"o":"m 67 0 m 744 1 q 644 -18 694 -17 q 553 4 589 -18 q 510 82 518 26 q 265 -19 378 -19 q 122 31 178 -19 q 67 158 67 82 q 106 276 67 229 q 215 353 144 322 q 404 418 285 383 l 507 447 l 507 501 q 381 668 507 668 q 253 640 311 668 q 121 533 194 611 l 69 611 q 404 767 225 767 q 577 704 524 767 q 631 496 631 642 l 631 133 q 642 90 631 103 q 676 76 653 76 q 736 90 697 76 l 744 1 m 190 168 q 218 99 190 121 q 292 76 246 76 q 390 100 339 76 q 507 172 440 124 l 507 365 l 428 342 q 243 264 296 301 q 190 168 190 226 m 456 1131 l 588 1131 l 418 836 l 321 836 l 456 1131 z "},"ă":{"ha":771,"x_min":67,"x_max":744,"o":"m 67 0 m 744 1 q 644 -18 694 -17 q 553 4 589 -18 q 510 82 518 26 q 265 -19 378 -19 q 122 31 178 -19 q 67 158 67 82 q 106 276 67 229 q 215 353 144 322 q 404 418 285 383 l 507 447 l 507 501 q 381 668 507 668 q 253 640 311 668 q 121 533 194 611 l 69 611 q 404 767 225 767 q 577 704 524 767 q 631 496 631 642 l 631 133 q 642 90 631 103 q 676 76 653 76 q 736 90 697 76 l 744 1 m 190 168 q 218 99 190 121 q 292 76 246 76 q 390 100 339 76 q 507 172 440 124 l 507 365 l 428 342 q 243 264 296 301 q 190 168 190 226 m 379 863 q 230 925 285 863 q 174 1101 175 988 l 258 1104 q 293 985 261 1025 q 379 944 325 944 q 464 985 432 944 q 500 1104 496 1025 l 583 1101 q 528 925 582 988 q 379 863 474 863 z "},"â":{"ha":771,"x_min":67,"x_max":744,"o":"m 67 0 m 744 1 q 644 -18 694 -17 q 553 4 589 -18 q 510 82 518 26 q 265 -19 378 -19 q 122 31 178 -19 q 67 158 67 82 q 106 276 67 229 q 215 353 144 322 q 404 418 285 383 l 507 447 l 507 501 q 381 668 507 668 q 253 640 311 668 q 121 533 194 611 l 69 611 q 404 767 225 767 q 577 704 524 767 q 631 496 631 642 l 631 133 q 642 90 631 103 q 676 76 653 76 q 736 90 697 76 l 744 1 m 190 168 q 218 99 190 121 q 292 76 246 76 q 390 100 339 76 q 507 172 440 124 l 507 365 l 428 342 q 243 264 296 301 q 190 168 190 226 m 492 836 l 379 1042 l 265 836 l 168 836 l 318 1128 l 439 1128 l 589 836 l 492 836 z "},"ä":{"ha":771,"x_min":67,"x_max":744,"o":"m 67 0 m 744 1 q 644 -18 694 -17 q 553 4 589 -18 q 510 82 518 26 q 265 -19 378 -19 q 122 31 178 -19 q 67 158 67 82 q 106 276 67 229 q 215 353 144 322 q 404 418 285 383 l 507 447 l 507 501 q 381 668 507 668 q 253 640 311 668 q 121 533 194 611 l 69 611 q 404 767 225 767 q 577 704 524 767 q 631 496 631 642 l 631 133 q 642 90 631 103 q 676 76 653 76 q 736 90 697 76 l 744 1 m 190 168 q 218 99 190 121 q 292 76 246 76 q 390 100 339 76 q 507 172 440 124 l 507 365 l 428 342 q 243 264 296 301 q 190 168 190 226 m 238 971 q 185 993 207 971 q 163 1044 163 1015 q 185 1098 163 1075 q 238 1121 207 1121 q 292 1099 269 1121 q 314 1044 314 1076 q 291 993 314 1015 q 238 971 268 971 m 519 971 q 467 993 489 971 q 444 1044 444 1015 q 467 1098 444 1075 q 519 1121 489 1121 q 574 1099 551 1121 q 596 1044 596 1076 q 573 993 596 1015 q 519 971 550 971 z "},"à":{"ha":771,"x_min":67,"x_max":744,"o":"m 67 0 m 744 1 q 644 -18 694 -17 q 553 4 589 -18 q 510 82 518 26 q 265 -19 378 -19 q 122 31 178 -19 q 67 158 67 82 q 106 276 67 229 q 215 353 144 322 q 404 418 285 383 l 507 447 l 507 501 q 381 668 507 668 q 253 640 311 668 q 121 533 194 611 l 69 611 q 404 767 225 767 q 577 704 524 767 q 631 496 631 642 l 631 133 q 642 90 631 103 q 676 76 653 76 q 736 90 697 76 l 744 1 m 190 168 q 218 99 190 121 q 292 76 246 76 q 390 100 339 76 q 507 172 440 124 l 507 365 l 428 342 q 243 264 296 301 q 190 168 190 226 m 167 1129 l 299 1129 l 433 836 l 336 836 l 167 1129 z "},"ā":{"ha":771,"x_min":67,"x_max":744,"o":"m 67 0 m 744 1 q 644 -18 694 -17 q 553 4 589 -18 q 510 82 518 26 q 265 -19 378 -19 q 122 31 178 -19 q 67 158 67 82 q 106 276 67 229 q 215 353 144 322 q 404 418 285 383 l 507 447 l 507 501 q 381 668 507 668 q 253 640 311 668 q 121 533 194 611 l 69 611 q 404 767 225 767 q 577 704 524 767 q 631 496 631 642 l 631 133 q 642 90 631 103 q 676 76 653 76 q 736 90 697 76 l 744 1 m 190 168 q 218 99 190 121 q 292 76 246 76 q 390 100 339 76 q 507 172 440 124 l 507 365 l 428 342 q 243 264 296 301 q 190 168 190 226 m 160 1103 l 597 1103 l 597 1011 l 160 1011 l 160 1103 z "},"ą":{"ha":771,"x_min":67,"x_max":744,"o":"m 594 -251 q 683 -208 639 -251 l 726 -272 q 661 -324 701 -303 q 576 -344 621 -344 q 470 -308 510 -344 q 431 -208 431 -272 q 463 -101 431 -156 q 554 4 494 -46 q 510 82 517 29 q 265 -19 378 -19 q 122 31 178 -19 q 67 158 67 82 q 106 276 67 229 q 215 353 144 322 q 404 418 285 383 l 507 447 l 507 501 q 381 668 507 668 q 253 640 311 668 q 121 533 194 611 l 69 611 q 404 767 225 767 q 577 704 524 767 q 631 496 631 642 l 631 133 q 642 90 631 103 q 676 76 653 76 q 736 90 697 76 l 744 1 q 644 -18 694 -17 l 642 -18 q 559 -110 586 -68 q 532 -190 532 -151 q 549 -235 532 -219 q 594 -251 565 -251 m 190 168 q 218 99 190 121 q 292 76 246 76 q 390 100 339 76 q 507 172 440 124 l 507 365 l 428 342 q 243 264 296 301 q 190 168 190 226 z "},"å":{"ha":771,"x_min":67,"x_max":744,"o":"m 67 0 m 744 1 q 644 -18 694 -17 q 553 4 589 -18 q 510 82 518 26 q 265 -19 378 -19 q 122 31 178 -19 q 67 158 67 82 q 106 276 67 229 q 215 353 144 322 q 404 418 285 383 l 507 447 l 507 501 q 381 668 507 668 q 253 640 311 668 q 121 533 194 611 l 69 611 q 404 767 225 767 q 577 704 524 767 q 631 496 631 642 l 631 133 q 642 90 631 103 q 676 76 653 76 q 736 90 697 76 l 744 1 m 190 168 q 218 99 190 121 q 292 76 246 76 q 390 100 339 76 q 507 172 440 124 l 507 365 l 428 342 q 243 264 296 301 q 190 168 190 226 m 379 833 q 258 879 303 833 q 214 988 214 925 q 258 1094 214 1049 q 379 1139 303 1139 q 500 1094 456 1139 q 544 988 544 1049 q 500 879 544 925 q 379 833 456 833 m 379 899 q 439 924 417 899 q 461 988 461 949 q 439 1050 461 1025 q 379 1075 417 1075 q 318 1050 340 1075 q 296 988 296 1025 q 318 924 296 949 q 379 899 340 899 z "},"ã":{"ha":771,"x_min":67,"x_max":744,"o":"m 67 0 m 744 1 q 644 -18 694 -17 q 553 4 589 -18 q 510 82 518 26 q 265 -19 378 -19 q 122 31 178 -19 q 67 158 67 82 q 106 276 67 229 q 215 353 144 322 q 404 418 285 383 l 507 447 l 507 501 q 381 668 507 668 q 253 640 311 668 q 121 533 194 611 l 69 611 q 404 767 225 767 q 577 704 524 767 q 631 496 631 642 l 631 133 q 642 90 631 103 q 676 76 653 76 q 736 90 697 76 l 744 1 m 190 168 q 218 99 190 121 q 292 76 246 76 q 390 100 339 76 q 507 172 440 124 l 507 365 l 428 342 q 243 264 296 301 q 190 168 190 226 m 146 894 q 189 1039 153 988 q 285 1090 225 1090 q 343 1074 319 1090 q 394 1029 367 1058 q 433 994 418 1006 q 469 983 449 983 q 513 1009 497 983 q 536 1094 528 1035 l 613 1089 q 569 946 606 999 q 474 893 533 893 q 412 909 436 893 q 358 956 388 925 q 322 989 338 978 q 289 1000 307 1000 q 247 975 261 1000 q 222 889 232 950 l 146 894 z "},"æ":{"ha":1214,"x_min":67,"x_max":1146,"o":"m 864 71 q 989 101 933 71 q 1097 188 1044 132 l 1143 110 q 864 -25 1024 -25 q 688 16 763 -25 q 569 131 614 57 q 415 20 489 60 q 265 -19 340 -19 q 122 31 178 -19 q 67 158 67 82 q 106 276 67 229 q 215 353 144 322 q 404 418 285 383 l 507 447 l 507 501 q 381 668 507 668 q 253 640 311 668 q 121 533 194 611 l 69 611 q 404 767 225 767 q 530 740 482 767 q 600 654 578 713 q 864 767 697 767 q 1066 693 988 767 q 1146 492 1144 619 q 1135 408 1146 456 l 633 408 q 632 372 632 396 q 692 153 632 235 q 864 71 751 71 m 860 675 q 724 628 778 675 q 647 499 671 581 l 1022 499 l 1022 510 q 974 633 1022 590 q 860 675 926 675 m 292 76 q 401 106 346 76 q 538 199 456 136 q 510 365 510 278 l 428 342 q 243 264 296 301 q 190 168 190 226 q 218 99 190 121 q 292 76 246 76 z "},"b":{"ha":838,"x_min":131,"x_max":772,"o":"m 464 767 q 625 722 556 767 q 733 592 694 678 q 772 388 772 507 q 726 161 772 253 q 598 24 679 69 q 414 -22 517 -22 q 226 33 311 -22 l 207 -1 l 131 -1 l 131 1111 l 254 1111 l 254 694 q 464 767 347 767 m 404 72 q 587 156 528 72 q 646 388 646 240 q 591 603 646 536 q 456 671 536 671 q 351 653 396 671 q 254 596 306 636 l 254 113 q 404 72 322 72 z "},"c":{"ha":725,"x_min":65,"x_max":690,"o":"m 422 -25 q 225 28 306 -25 q 105 171 144 82 q 65 369 65 260 q 106 568 65 478 q 231 713 147 658 q 438 767 314 767 q 568 744 506 767 q 671 679 631 721 l 625 592 q 540 649 590 628 q 438 671 490 671 q 256 588 321 671 q 192 371 192 506 q 252 153 192 235 q 422 71 313 71 q 543 99 490 71 q 643 178 596 128 l 690 99 q 574 10 643 44 q 422 -25 506 -25 z "},"ć":{"ha":725,"x_min":65,"x_max":690,"o":"m 65 0 m 422 -25 q 225 28 306 -25 q 105 171 144 82 q 65 369 65 260 q 106 568 65 478 q 231 713 147 658 q 438 767 314 767 q 568 744 506 767 q 671 679 631 721 l 625 592 q 540 649 590 628 q 438 671 490 671 q 256 588 321 671 q 192 371 192 506 q 252 153 192 235 q 422 71 313 71 q 543 99 490 71 q 643 178 596 128 l 690 99 q 574 10 643 44 q 422 -25 506 -25 m 507 1131 l 639 1131 l 469 836 l 372 836 l 507 1131 z "},"č":{"ha":725,"x_min":65,"x_max":690,"o":"m 65 0 m 422 -25 q 225 28 306 -25 q 105 171 144 82 q 65 369 65 260 q 106 568 65 478 q 231 713 147 658 q 438 767 314 767 q 568 744 506 767 q 671 679 631 721 l 625 592 q 540 649 590 628 q 438 671 490 671 q 256 588 321 671 q 192 371 192 506 q 252 153 192 235 q 422 71 313 71 q 543 99 490 71 q 643 178 596 128 l 690 99 q 574 10 643 44 q 422 -25 506 -25 m 640 1128 l 490 836 l 369 836 l 219 1128 l 317 1128 l 431 922 l 543 1128 l 640 1128 z "},"ç":{"ha":725,"x_min":65,"x_max":690,"o":"m 690 99 q 588 17 647 50 q 457 -24 529 -17 l 422 -89 q 443 -87 429 -87 q 520 -113 489 -87 q 551 -178 551 -139 q 506 -269 551 -229 q 363 -332 460 -310 l 333 -272 q 428 -231 403 -251 q 453 -186 453 -210 q 442 -162 453 -171 q 410 -153 431 -153 q 360 -165 388 -153 l 317 -121 l 369 -22 q 143 105 221 -4 q 65 369 65 214 q 106 568 65 478 q 231 713 147 658 q 438 767 314 767 q 568 744 506 767 q 671 679 631 721 l 625 592 q 540 649 590 628 q 438 671 490 671 q 256 588 321 671 q 192 371 192 506 q 252 153 192 235 q 422 71 313 71 q 543 99 490 71 q 643 178 596 128 l 690 99 z "},"d":{"ha":838,"x_min":65,"x_max":707,"o":"m 707 1111 l 707 0 l 611 0 l 597 63 q 374 -25 496 -25 q 213 20 283 -25 q 104 151 143 65 q 65 358 65 238 q 169 664 65 561 q 444 767 272 767 q 583 743 522 767 l 583 1111 l 707 1111 m 192 358 q 247 140 192 208 q 382 72 301 72 q 485 90 440 72 q 583 149 529 108 l 583 647 q 450 671 525 671 q 256 587 319 671 q 192 358 192 503 z "},"ð":{"ha":879,"x_min":65,"x_max":776,"o":"m 525 958 q 712 708 647 853 q 776 406 776 563 q 732 178 776 276 q 609 28 688 81 q 429 -25 531 -25 q 229 28 311 -25 q 106 169 147 81 q 65 363 65 257 q 107 556 65 468 q 228 697 149 644 q 419 750 308 750 q 583 706 508 750 q 424 907 524 825 l 219 800 l 182 876 l 346 961 q 160 1042 265 1011 l 219 1118 q 450 1015 347 1083 l 638 1113 l 674 1036 l 525 958 m 429 71 q 590 158 529 71 q 650 401 650 246 q 640 526 650 468 q 419 654 556 654 q 251 574 311 654 q 192 363 192 494 q 253 153 192 236 q 429 71 315 71 z "},"ď":{"ha":838,"x_min":65,"x_max":943,"o":"m 65 0 m 707 1111 l 707 0 l 611 0 l 597 63 q 374 -25 496 -25 q 213 20 283 -25 q 104 151 143 65 q 65 358 65 238 q 169 664 65 561 q 444 767 272 767 q 583 743 522 767 l 583 1111 l 707 1111 m 192 358 q 247 140 192 208 q 382 72 301 72 q 485 90 440 72 q 583 149 529 108 l 583 647 q 450 671 525 671 q 256 587 319 671 q 192 358 192 503 m 760 835 q 842 1007 842 897 q 821 1111 842 1053 l 929 1111 q 943 1014 943 1061 q 903 876 943 939 q 800 782 863 814 l 760 835 z "},"đ":{"ha":838,"x_min":65,"x_max":836,"o":"m 836 872 l 707 872 l 707 0 l 611 0 l 597 63 q 374 -25 496 -25 q 213 20 283 -25 q 104 151 143 65 q 65 358 65 238 q 169 664 65 561 q 444 767 272 767 q 583 743 522 767 l 583 872 l 363 872 l 363 963 l 583 963 l 583 1111 l 707 1111 l 707 963 l 836 963 l 836 872 m 192 358 q 247 140 192 208 q 382 72 301 72 q 485 90 440 72 q 583 149 529 108 l 583 647 q 450 671 525 671 q 256 587 319 671 q 192 358 192 503 z "},"e":{"ha":772,"x_min":65,"x_max":703,"o":"m 422 71 q 547 101 492 71 q 654 185 603 132 l 701 107 q 577 10 646 44 q 421 -25 508 -25 q 224 28 304 -25 q 105 172 144 82 q 65 369 65 261 q 105 571 65 481 q 225 714 144 661 q 421 767 306 767 q 566 734 501 767 q 667 639 631 701 q 703 492 703 576 q 693 408 703 460 l 192 408 q 190 372 190 396 q 249 153 190 235 q 422 71 308 71 m 417 675 q 281 628 335 675 q 206 499 228 581 l 581 499 l 581 510 q 533 633 581 590 q 417 675 485 675 z "},"é":{"ha":772,"x_min":65,"x_max":703,"o":"m 65 0 m 422 71 q 547 101 492 71 q 654 185 603 132 l 701 107 q 577 10 646 44 q 421 -25 508 -25 q 224 28 304 -25 q 105 172 144 82 q 65 369 65 261 q 105 571 65 481 q 225 714 144 661 q 421 767 306 767 q 566 734 501 767 q 667 639 631 701 q 703 492 703 576 q 693 408 703 460 l 192 408 q 190 372 190 396 q 249 153 190 235 q 422 71 308 71 m 417 675 q 281 628 335 675 q 206 499 228 581 l 581 499 l 581 510 q 533 633 581 590 q 417 675 485 675 m 482 1131 l 614 1131 l 444 836 l 347 836 l 482 1131 z "},"ě":{"ha":772,"x_min":65,"x_max":703,"o":"m 65 0 m 422 71 q 547 101 492 71 q 654 185 603 132 l 701 107 q 577 10 646 44 q 421 -25 508 -25 q 224 28 304 -25 q 105 172 144 82 q 65 369 65 261 q 105 571 65 481 q 225 714 144 661 q 421 767 306 767 q 566 734 501 767 q 667 639 631 701 q 703 492 703 576 q 693 408 703 460 l 192 408 q 190 372 190 396 q 249 153 190 235 q 422 71 308 71 m 417 675 q 281 628 335 675 q 206 499 228 581 l 581 499 l 581 510 q 533 633 581 590 q 417 675 485 675 m 615 1128 l 465 836 l 344 836 l 194 1128 l 292 1128 l 406 922 l 518 1128 l 615 1128 z "},"ê":{"ha":772,"x_min":65,"x_max":703,"o":"m 65 0 m 422 71 q 547 101 492 71 q 654 185 603 132 l 701 107 q 577 10 646 44 q 421 -25 508 -25 q 224 28 304 -25 q 105 172 144 82 q 65 369 65 261 q 105 571 65 481 q 225 714 144 661 q 421 767 306 767 q 566 734 501 767 q 667 639 631 701 q 703 492 703 576 q 693 408 703 460 l 192 408 q 190 372 190 396 q 249 153 190 235 q 422 71 308 71 m 417 675 q 281 628 335 675 q 206 499 228 581 l 581 499 l 581 510 q 533 633 581 590 q 417 675 485 675 m 518 836 l 406 1042 l 292 836 l 194 836 l 344 1128 l 465 1128 l 615 836 l 518 836 z "},"ë":{"ha":772,"x_min":65,"x_max":703,"o":"m 65 0 m 422 71 q 547 101 492 71 q 654 185 603 132 l 701 107 q 577 10 646 44 q 421 -25 508 -25 q 224 28 304 -25 q 105 172 144 82 q 65 369 65 261 q 105 571 65 481 q 225 714 144 661 q 421 767 306 767 q 566 734 501 767 q 667 639 631 701 q 703 492 703 576 q 693 408 703 460 l 192 408 q 190 372 190 396 q 249 153 190 235 q 422 71 308 71 m 417 675 q 281 628 335 675 q 206 499 228 581 l 581 499 l 581 510 q 533 633 581 590 q 417 675 485 675 m 264 971 q 211 993 233 971 q 189 1044 189 1015 q 211 1098 189 1075 q 264 1121 233 1121 q 318 1099 296 1121 q 340 1044 340 1076 q 317 993 340 1015 q 264 971 294 971 m 546 971 q 493 993 515 971 q 471 1044 471 1015 q 493 1098 471 1075 q 546 1121 515 1121 q 600 1099 578 1121 q 622 1044 622 1076 q 599 993 622 1015 q 546 971 576 971 z "},"ė":{"ha":772,"x_min":65,"x_max":703,"o":"m 65 0 m 422 71 q 547 101 492 71 q 654 185 603 132 l 701 107 q 577 10 646 44 q 421 -25 508 -25 q 224 28 304 -25 q 105 172 144 82 q 65 369 65 261 q 105 571 65 481 q 225 714 144 661 q 421 767 306 767 q 566 734 501 767 q 667 639 631 701 q 703 492 703 576 q 693 408 703 460 l 192 408 q 190 372 190 396 q 249 153 190 235 q 422 71 308 71 m 417 675 q 281 628 335 675 q 206 499 228 581 l 581 499 l 581 510 q 533 633 581 590 q 417 675 485 675 m 406 971 q 353 993 375 971 q 331 1044 331 1015 q 353 1098 331 1075 q 406 1121 375 1121 q 460 1099 438 1121 q 482 1044 482 1076 q 459 993 482 1015 q 406 971 436 971 z "},"è":{"ha":772,"x_min":65,"x_max":703,"o":"m 65 0 m 422 71 q 547 101 492 71 q 654 185 603 132 l 701 107 q 577 10 646 44 q 421 -25 508 -25 q 224 28 304 -25 q 105 172 144 82 q 65 369 65 261 q 105 571 65 481 q 225 714 144 661 q 421 767 306 767 q 566 734 501 767 q 667 639 631 701 q 703 492 703 576 q 693 408 703 460 l 192 408 q 190 372 190 396 q 249 153 190 235 q 422 71 308 71 m 417 675 q 281 628 335 675 q 206 499 228 581 l 581 499 l 581 510 q 533 633 581 590 q 417 675 485 675 m 193 1129 l 325 1129 l 460 836 l 363 836 l 193 1129 z "},"ē":{"ha":772,"x_min":65,"x_max":703,"o":"m 65 0 m 422 71 q 547 101 492 71 q 654 185 603 132 l 701 107 q 577 10 646 44 q 421 -25 508 -25 q 224 28 304 -25 q 105 172 144 82 q 65 369 65 261 q 105 571 65 481 q 225 714 144 661 q 421 767 306 767 q 566 734 501 767 q 667 639 631 701 q 703 492 703 576 q 693 408 703 460 l 192 408 q 190 372 190 396 q 249 153 190 235 q 422 71 308 71 m 417 675 q 281 628 335 675 q 206 499 228 581 l 581 499 l 581 510 q 533 633 581 590 q 417 675 485 675 m 186 1103 l 624 1103 l 624 1011 l 186 1011 l 186 1103 z "},"ę":{"ha":772,"x_min":65,"x_max":703,"o":"m 422 71 q 547 101 492 71 q 654 185 603 132 l 701 107 q 582 13 643 44 q 473 -97 508 -49 q 438 -190 438 -146 q 454 -235 438 -219 q 500 -251 471 -251 q 589 -208 544 -251 l 632 -272 q 567 -324 607 -303 q 482 -344 526 -344 q 376 -308 415 -344 q 336 -208 336 -272 q 429 -25 336 -118 l 421 -25 q 224 28 304 -25 q 105 172 144 82 q 65 369 65 261 q 105 571 65 481 q 225 714 144 661 q 421 767 306 767 q 566 734 501 767 q 667 639 631 701 q 703 492 703 576 q 693 408 703 460 l 192 408 q 190 372 190 396 q 249 153 190 235 q 422 71 308 71 m 417 675 q 281 628 335 675 q 206 499 228 581 l 581 499 l 581 510 q 533 633 581 590 q 417 675 485 675 z "},"f":{"ha":558,"x_min":79,"x_max":546,"o":"m 321 742 l 543 742 l 543 649 l 321 649 l 321 0 l 197 0 l 197 649 l 79 649 l 79 701 l 197 735 l 197 810 q 260 1035 197 957 q 456 1114 324 1114 q 546 1103 497 1114 l 531 1010 q 467 1017 496 1017 q 356 965 390 1017 q 321 807 321 914 l 321 742 z "},"g":{"ha":776,"x_min":50,"x_max":764,"o":"m 764 649 l 601 664 q 643 524 643 601 q 613 401 643 457 q 521 310 582 344 q 371 276 460 276 q 282 286 328 276 q 224 230 242 253 q 207 181 207 207 q 229 137 207 150 q 301 124 251 124 l 538 124 q 695 75 639 124 q 751 -56 751 26 q 697 -201 751 -135 q 549 -304 643 -267 q 338 -342 454 -342 q 117 -287 185 -342 q 50 -149 50 -232 q 79 -49 50 -92 q 169 42 108 -6 q 86 156 86 74 q 113 235 86 197 q 200 322 139 274 q 124 407 150 354 q 97 521 97 460 q 128 644 97 588 q 220 733 158 700 q 371 767 282 767 q 503 742 443 767 l 764 742 l 764 649 m 369 368 q 480 410 439 368 q 521 522 521 453 q 481 633 521 590 q 369 675 440 675 q 260 633 300 675 q 219 522 219 590 q 260 410 219 453 q 369 368 300 368 m 635 -72 q 518 24 635 24 l 289 24 l 272 24 q 194 -57 221 -18 q 168 -140 168 -96 q 212 -222 168 -197 q 338 -247 256 -247 q 489 -222 421 -247 q 596 -155 557 -196 q 635 -72 635 -114 z "},"ğ":{"ha":776,"x_min":50,"x_max":764,"o":"m 50 0 m 764 649 l 601 664 q 643 524 643 601 q 613 401 643 457 q 521 310 582 344 q 371 276 460 276 q 282 286 328 276 q 224 230 242 253 q 207 181 207 207 q 229 137 207 150 q 301 124 251 124 l 538 124 q 695 75 639 124 q 751 -56 751 26 q 697 -201 751 -135 q 549 -304 643 -267 q 338 -342 454 -342 q 117 -287 185 -342 q 50 -149 50 -232 q 79 -49 50 -92 q 169 42 108 -6 q 86 156 86 74 q 113 235 86 197 q 200 322 139 274 q 124 407 150 354 q 97 521 97 460 q 128 644 97 588 q 220 733 158 700 q 371 767 282 767 q 503 742 443 767 l 764 742 l 764 649 m 369 368 q 480 410 439 368 q 521 522 521 453 q 481 633 521 590 q 369 675 440 675 q 260 633 300 675 q 219 522 219 590 q 260 410 219 453 q 369 368 300 368 m 635 -72 q 518 24 635 24 l 289 24 l 272 24 q 194 -57 221 -18 q 168 -140 168 -96 q 212 -222 168 -197 q 338 -247 256 -247 q 489 -222 421 -247 q 596 -155 557 -196 q 635 -72 635 -114 m 389 863 q 240 925 294 863 q 183 1101 185 988 l 268 1104 q 303 985 271 1025 q 389 944 335 944 q 474 985 442 944 q 510 1104 506 1025 l 593 1101 q 538 925 592 988 q 389 863 483 863 z "},"ģ":{"ha":776,"x_min":50,"x_max":764,"o":"m 50 0 m 764 649 l 601 664 q 643 524 643 601 q 613 401 643 457 q 521 310 582 344 q 371 276 460 276 q 282 286 328 276 q 224 230 242 253 q 207 181 207 207 q 229 137 207 150 q 301 124 251 124 l 538 124 q 695 75 639 124 q 751 -56 751 26 q 697 -201 751 -135 q 549 -304 643 -267 q 338 -342 454 -342 q 117 -287 185 -342 q 50 -149 50 -232 q 79 -49 50 -92 q 169 42 108 -6 q 86 156 86 74 q 113 235 86 197 q 200 322 139 274 q 124 407 150 354 q 97 521 97 460 q 128 644 97 588 q 220 733 158 700 q 371 767 282 767 q 503 742 443 767 l 764 742 l 764 649 m 369 368 q 480 410 439 368 q 521 522 521 453 q 481 633 521 590 q 369 675 440 675 q 260 633 300 675 q 219 522 219 590 q 260 410 219 453 q 369 368 300 368 m 635 -72 q 518 24 635 24 l 289 24 l 272 24 q 194 -57 221 -18 q 168 -140 168 -96 q 212 -222 168 -197 q 338 -247 256 -247 q 489 -222 421 -247 q 596 -155 557 -196 q 635 -72 635 -114 m 431 861 q 324 901 357 869 q 292 976 292 932 q 333 1066 292 1028 q 458 1122 374 1104 l 488 1063 q 411 1027 432 1046 q 390 981 390 1008 q 406 948 390 961 q 460 929 422 935 l 431 861 z "},"h":{"ha":844,"x_min":131,"x_max":721,"o":"m 506 767 q 675 703 629 767 q 721 517 721 639 l 721 0 l 597 0 l 597 506 q 569 631 597 593 q 474 668 542 668 q 369 644 422 668 q 254 572 317 621 l 254 0 l 131 0 l 131 1111 l 254 1111 l 254 671 q 506 767 385 767 z "},"ħ":{"ha":844,"x_min":1,"x_max":721,"o":"m 506 767 q 675 703 629 767 q 721 517 721 639 l 721 0 l 597 0 l 597 506 q 569 631 597 593 q 474 668 542 668 q 369 644 422 668 q 254 572 317 621 l 254 0 l 131 0 l 131 872 l 1 872 l 1 963 l 131 963 l 131 1111 l 254 1111 l 254 963 l 475 963 l 475 872 l 254 872 l 254 671 q 506 767 385 767 z "},"i":{"ha":403,"x_min":121,"x_max":281,"o":"m 200 971 q 144 994 168 971 q 121 1049 121 1017 q 144 1106 121 1082 q 200 1129 168 1129 q 257 1106 233 1129 q 281 1049 281 1082 q 257 994 281 1017 q 200 971 233 971 m 139 742 l 263 742 l 263 0 l 139 0 l 139 742 z "},"ı":{"ha":403,"x_min":139,"x_max":263,"o":"m 139 742 l 263 742 l 263 0 l 139 0 l 139 742 z "},"í":{"ha":403,"x_min":139,"x_max":410,"o":"m 139 0 m 139 742 l 263 742 l 263 0 l 139 0 l 139 742 m 278 1131 l 410 1131 l 240 836 l 143 836 l 278 1131 z "},"î":{"ha":403,"x_min":-10,"x_max":411,"o":"m 0 0 m 139 742 l 263 742 l 263 0 l 139 0 l 139 742 m 314 836 l 201 1042 l 88 836 l -10 836 l 140 1128 l 261 1128 l 411 836 l 314 836 z "},"ï":{"ha":403,"x_min":-15,"x_max":418,"o":"m 0 0 m 139 742 l 263 742 l 263 0 l 139 0 l 139 742 m 60 971 q 7 993 29 971 q -15 1044 -15 1015 q 7 1098 -15 1075 q 60 1121 29 1121 q 114 1099 92 1121 q 136 1044 136 1076 q 113 993 136 1015 q 60 971 90 971 m 342 971 q 289 993 311 971 q 267 1044 267 1015 q 289 1098 267 1075 q 342 1121 311 1121 q 396 1099 374 1121 q 418 1044 418 1076 q 395 993 418 1015 q 342 971 372 971 z "},"ì":{"ha":403,"x_min":-11,"x_max":263,"o":"m 0 0 m 139 742 l 263 742 l 263 0 l 139 0 l 139 742 m -11 1129 l 121 1129 l 256 836 l 158 836 l -11 1129 z "},"ĳ":{"ha":788,"x_min":121,"x_max":679,"o":"m 121 0 m 200 971 q 144 994 168 971 q 121 1049 121 1017 q 144 1106 121 1082 q 200 1129 168 1129 q 257 1106 233 1129 q 281 1049 281 1082 q 257 994 281 1017 q 200 971 233 971 m 139 742 l 263 742 l 263 0 l 139 0 l 139 742 m 599 971 q 543 994 567 971 q 519 1049 519 1017 q 543 1106 519 1082 q 599 1129 567 1129 q 656 1106 632 1129 q 679 1049 679 1082 q 656 994 679 1017 q 599 971 632 971 m 400 -337 q 308 -326 360 -337 l 324 -233 q 388 -240 358 -240 q 499 -189 464 -240 q 533 -31 533 -137 l 533 742 l 658 742 l 658 -33 q 594 -259 658 -181 q 400 -337 531 -337 z "},"ī":{"ha":403,"x_min":-18,"x_max":419,"o":"m 0 0 m 139 742 l 263 742 l 263 0 l 139 0 l 139 742 m -18 1103 l 419 1103 l 419 1011 l -18 1011 l -18 1103 z "},"į":{"ha":403,"x_min":-11,"x_max":285,"o":"m 200 971 q 144 994 168 971 q 121 1049 121 1017 q 144 1106 121 1082 q 200 1129 168 1129 q 257 1106 233 1129 q 281 1049 281 1082 q 257 994 281 1017 q 200 971 233 971 m 285 -272 q 219 -324 260 -303 q 135 -344 179 -344 q 28 -308 68 -344 q -11 -208 -11 -272 q 27 -92 -11 -151 q 135 21 65 -32 l 139 21 l 139 742 l 263 742 l 263 0 l 219 0 q 122 -103 154 -57 q 90 -190 90 -149 q 107 -235 90 -219 q 153 -251 124 -251 q 242 -208 197 -251 l 285 -272 z "},"ĩ":{"ha":403,"x_min":-32,"x_max":435,"o":"m 0 0 m 139 742 l 263 742 l 263 0 l 139 0 l 139 742 m -32 894 q 11 1039 -25 988 q 107 1090 47 1090 q 165 1074 142 1090 q 217 1029 189 1058 q 256 994 240 1006 q 292 983 271 983 q 335 1009 319 983 q 358 1094 350 1035 l 435 1089 q 392 946 428 999 q 296 893 356 893 q 234 909 258 893 q 181 956 210 925 q 144 989 160 978 q 111 1000 129 1000 q 69 975 83 1000 q 44 889 54 950 l -32 894 z "},"j":{"ha":386,"x_min":-94,"x_max":276,"o":"m 196 971 q 140 994 164 971 q 117 1049 117 1017 q 140 1106 117 1082 q 196 1129 164 1129 q 253 1106 229 1129 q 276 1049 276 1082 q 253 994 276 1017 q 196 971 229 971 m -3 -337 q -94 -326 -43 -337 l -79 -233 q -15 -240 -44 -240 q 96 -189 61 -240 q 131 -31 131 -137 l 131 742 l 256 742 l 256 -33 q 192 -259 256 -181 q -3 -337 128 -337 z "},"ȷ":{"ha":386,"x_min":-94,"x_max":256,"o":"m -3 -337 q -94 -326 -43 -337 l -79 -233 q -15 -240 -44 -240 q 96 -189 61 -240 q 131 -31 131 -137 l 131 742 l 256 742 l 256 -33 q 192 -259 256 -181 q -3 -337 128 -337 z "},"ĵ":{"ha":386,"x_min":-94,"x_max":403,"o":"m 0 0 m -3 -337 q -94 -326 -43 -337 l -79 -233 q -15 -240 -44 -240 q 96 -189 61 -240 q 131 -31 131 -137 l 131 742 l 256 742 l 256 -33 q 192 -259 256 -181 q -3 -337 128 -337 m 306 836 l 193 1042 l 79 836 l -18 836 l 132 1128 l 253 1128 l 403 836 l 306 836 z "},"k":{"ha":781,"x_min":131,"x_max":750,"o":"m 131 1111 l 254 1111 l 254 0 l 131 0 l 131 1111 m 750 0 l 607 0 l 282 392 l 282 419 l 563 742 l 697 742 l 403 408 l 750 0 z "},"ķ":{"ha":781,"x_min":131,"x_max":750,"o":"m 131 0 m 131 1111 l 254 1111 l 254 0 l 131 0 l 131 1111 m 750 0 l 607 0 l 282 392 l 282 419 l 563 742 l 697 742 l 403 408 l 750 0 m 313 -279 q 390 -244 368 -264 q 411 -197 411 -225 q 395 -165 411 -178 q 342 -146 379 -151 l 369 -78 q 476 -117 443 -86 q 508 -193 508 -149 q 467 -283 508 -244 q 342 -340 426 -321 l 313 -279 z "},"ĸ":{"ha":874,"x_min":131,"x_max":750,"o":"m 131 742 l 254 742 l 254 0 l 131 0 l 131 742 m 750 0 l 607 0 l 282 392 l 282 419 l 563 742 l 697 742 l 403 408 l 750 0 z "},"l":{"ha":386,"x_min":131,"x_max":254,"o":"m 131 1111 l 254 1111 l 254 0 l 131 0 l 131 1111 z "},"ĺ":{"ha":386,"x_min":131,"x_max":401,"o":"m 131 0 m 131 1111 l 254 1111 l 254 0 l 131 0 l 131 1111 m 269 1433 l 401 1433 l 232 1139 l 135 1139 l 269 1433 z "},"ľ":{"ha":386,"x_min":131,"x_max":490,"o":"m 131 0 m 131 1111 l 254 1111 l 254 0 l 131 0 l 131 1111 m 307 835 q 389 1007 389 897 q 368 1111 389 1053 l 476 1111 q 490 1014 490 1061 q 450 876 490 939 q 347 782 410 814 l 307 835 z "},"ļ":{"ha":386,"x_min":101,"x_max":297,"o":"m 101 0 m 131 1111 l 254 1111 l 254 0 l 131 0 l 131 1111 m 101 -279 q 178 -244 157 -264 q 200 -197 200 -225 q 184 -165 200 -178 q 131 -146 168 -151 l 158 -78 q 265 -117 232 -86 q 297 -193 297 -149 q 256 -283 297 -244 q 131 -340 215 -321 l 101 -279 z "},"ŀ":{"ha":386,"x_min":131,"x_max":469,"o":"m 131 0 m 131 1111 l 254 1111 l 254 0 l 131 0 l 131 1111 m 385 282 q 325 307 350 282 q 300 367 300 332 q 325 426 300 401 q 385 451 350 451 q 444 426 419 451 q 469 367 469 401 q 444 307 469 332 q 385 282 419 282 z "},"ł":{"ha":386,"x_min":-26,"x_max":414,"o":"m 254 553 l 254 0 l 131 0 l 131 464 l 26 390 l -26 464 l 131 576 l 131 1111 l 254 1111 l 254 665 l 360 740 l 414 667 l 254 553 z "},"m":{"ha":1271,"x_min":131,"x_max":1147,"o":"m 942 767 q 1103 703 1060 767 q 1147 517 1147 639 l 1147 0 l 1024 0 l 1024 506 q 998 631 1024 593 q 910 668 972 668 q 811 644 861 668 q 699 571 761 619 q 701 517 701 554 l 701 0 l 578 0 l 578 506 q 552 631 578 593 q 464 668 526 668 q 367 644 417 668 q 254 572 317 621 l 254 0 l 131 0 l 131 742 l 226 742 l 244 664 q 496 767 378 767 q 617 739 572 767 q 682 658 661 711 q 942 767 821 767 z "},"n":{"ha":844,"x_min":131,"x_max":721,"o":"m 506 767 q 674 702 628 767 q 721 517 721 638 l 721 0 l 597 0 l 597 506 q 569 631 597 593 q 474 668 542 668 q 369 644 422 668 q 254 572 317 621 l 254 0 l 131 0 l 131 742 l 226 742 l 244 664 q 506 767 379 767 z "},"ń":{"ha":844,"x_min":131,"x_max":721,"o":"m 131 0 m 506 767 q 674 702 628 767 q 721 517 721 638 l 721 0 l 597 0 l 597 506 q 569 631 597 593 q 474 668 542 668 q 369 644 422 668 q 254 572 317 621 l 254 0 l 131 0 l 131 742 l 226 742 l 244 664 q 506 767 379 767 m 500 1131 l 632 1131 l 463 836 l 365 836 l 500 1131 z "},"ň":{"ha":844,"x_min":131,"x_max":721,"o":"m 131 0 m 506 767 q 674 702 628 767 q 721 517 721 638 l 721 0 l 597 0 l 597 506 q 569 631 597 593 q 474 668 542 668 q 369 644 422 668 q 254 572 317 621 l 254 0 l 131 0 l 131 742 l 226 742 l 244 664 q 506 767 379 767 m 633 1128 l 483 836 l 363 836 l 213 1128 l 310 1128 l 424 922 l 536 1128 l 633 1128 z "},"ņ":{"ha":844,"x_min":131,"x_max":721,"o":"m 131 0 m 506 767 q 674 702 628 767 q 721 517 721 638 l 721 0 l 597 0 l 597 506 q 569 631 597 593 q 474 668 542 668 q 369 644 422 668 q 254 572 317 621 l 254 0 l 131 0 l 131 742 l 226 742 l 244 664 q 506 767 379 767 m 332 -279 q 409 -244 388 -264 q 431 -197 431 -225 q 415 -165 431 -178 q 361 -146 399 -151 l 389 -78 q 495 -117 463 -86 q 528 -193 528 -149 q 487 -283 528 -244 q 361 -340 446 -321 l 332 -279 z "},"ñ":{"ha":844,"x_min":131,"x_max":721,"o":"m 131 0 m 506 767 q 674 702 628 767 q 721 517 721 638 l 721 0 l 597 0 l 597 506 q 569 631 597 593 q 474 668 542 668 q 369 644 422 668 q 254 572 317 621 l 254 0 l 131 0 l 131 742 l 226 742 l 244 664 q 506 767 379 767 m 190 894 q 233 1039 197 988 q 329 1090 269 1090 q 388 1074 364 1090 q 439 1029 411 1058 q 478 994 463 1006 q 514 983 493 983 q 557 1009 542 983 q 581 1094 572 1035 l 657 1089 q 614 946 650 999 q 518 893 578 893 q 456 909 481 893 q 403 956 432 925 q 367 989 382 978 q 333 1000 351 1000 q 291 975 306 1000 q 267 889 276 950 l 190 894 z "},"o":{"ha":843,"x_min":65,"x_max":778,"o":"m 422 -25 q 225 28 306 -25 q 105 170 144 81 q 65 369 65 260 q 105 571 65 481 q 225 714 144 661 q 422 767 306 767 q 618 713 538 767 q 738 569 699 658 q 778 372 778 479 q 738 174 778 264 q 618 29 699 83 q 422 -25 538 -25 m 421 71 q 592 152 532 71 q 651 371 651 233 q 592 589 651 507 q 421 671 532 671 q 251 589 310 671 q 192 371 192 507 q 251 152 192 233 q 421 71 310 71 z "},"ó":{"ha":843,"x_min":65,"x_max":778,"o":"m 65 0 m 422 -25 q 225 28 306 -25 q 105 170 144 81 q 65 369 65 260 q 105 571 65 481 q 225 714 144 661 q 422 767 306 767 q 618 713 538 767 q 738 569 699 658 q 778 372 778 479 q 738 174 778 264 q 618 29 699 83 q 422 -25 538 -25 m 421 71 q 592 152 532 71 q 651 371 651 233 q 592 589 651 507 q 421 671 532 671 q 251 589 310 671 q 192 371 192 507 q 251 152 192 233 q 421 71 310 71 m 499 1131 l 631 1131 l 461 836 l 364 836 l 499 1131 z "},"ô":{"ha":843,"x_min":65,"x_max":778,"o":"m 65 0 m 422 -25 q 225 28 306 -25 q 105 170 144 81 q 65 369 65 260 q 105 571 65 481 q 225 714 144 661 q 422 767 306 767 q 618 713 538 767 q 738 569 699 658 q 778 372 778 479 q 738 174 778 264 q 618 29 699 83 q 422 -25 538 -25 m 421 71 q 592 152 532 71 q 651 371 651 233 q 592 589 651 507 q 421 671 532 671 q 251 589 310 671 q 192 371 192 507 q 251 152 192 233 q 421 71 310 71 m 535 836 l 422 1042 l 308 836 l 211 836 l 361 1128 l 482 1128 l 632 836 l 535 836 z "},"ö":{"ha":843,"x_min":65,"x_max":778,"o":"m 65 0 m 422 -25 q 225 28 306 -25 q 105 170 144 81 q 65 369 65 260 q 105 571 65 481 q 225 714 144 661 q 422 767 306 767 q 618 713 538 767 q 738 569 699 658 q 778 372 778 479 q 738 174 778 264 q 618 29 699 83 q 422 -25 538 -25 m 421 71 q 592 152 532 71 q 651 371 651 233 q 592 589 651 507 q 421 671 532 671 q 251 589 310 671 q 192 371 192 507 q 251 152 192 233 q 421 71 310 71 m 281 971 q 228 993 250 971 q 206 1044 206 1015 q 228 1098 206 1075 q 281 1121 250 1121 q 335 1099 313 1121 q 357 1044 357 1076 q 334 993 357 1015 q 281 971 311 971 m 563 971 q 510 993 532 971 q 488 1044 488 1015 q 510 1098 488 1075 q 563 1121 532 1121 q 617 1099 594 1121 q 639 1044 639 1076 q 616 993 639 1015 q 563 971 593 971 z "},"ò":{"ha":843,"x_min":65,"x_max":778,"o":"m 65 0 m 422 -25 q 225 28 306 -25 q 105 170 144 81 q 65 369 65 260 q 105 571 65 481 q 225 714 144 661 q 422 767 306 767 q 618 713 538 767 q 738 569 699 658 q 778 372 778 479 q 738 174 778 264 q 618 29 699 83 q 422 -25 538 -25 m 421 71 q 592 152 532 71 q 651 371 651 233 q 592 589 651 507 q 421 671 532 671 q 251 589 310 671 q 192 371 192 507 q 251 152 192 233 q 421 71 310 71 m 210 1129 l 342 1129 l 476 836 l 379 836 l 210 1129 z "},"ő":{"ha":843,"x_min":65,"x_max":778,"o":"m 65 0 m 422 -25 q 225 28 306 -25 q 105 170 144 81 q 65 369 65 260 q 105 571 65 481 q 225 714 144 661 q 422 767 306 767 q 618 713 538 767 q 738 569 699 658 q 778 372 778 479 q 738 174 778 264 q 618 29 699 83 q 422 -25 538 -25 m 421 71 q 592 152 532 71 q 651 371 651 233 q 592 589 651 507 q 421 671 532 671 q 251 589 310 671 q 192 371 192 507 q 251 152 192 233 q 421 71 310 71 m 393 1129 l 513 1129 l 344 836 l 258 836 l 393 1129 m 626 1129 l 746 1129 l 578 836 l 492 836 l 626 1129 z "},"ō":{"ha":843,"x_min":65,"x_max":778,"o":"m 65 0 m 422 -25 q 225 28 306 -25 q 105 170 144 81 q 65 369 65 260 q 105 571 65 481 q 225 714 144 661 q 422 767 306 767 q 618 713 538 767 q 738 569 699 658 q 778 372 778 479 q 738 174 778 264 q 618 29 699 83 q 422 -25 538 -25 m 421 71 q 592 152 532 71 q 651 371 651 233 q 592 589 651 507 q 421 671 532 671 q 251 589 310 671 q 192 371 192 507 q 251 152 192 233 q 421 71 310 71 m 203 1103 l 640 1103 l 640 1011 l 203 1011 l 203 1103 z "},"ø":{"ha":843,"x_min":65,"x_max":778,"o":"m 688 650 q 755 524 732 596 q 778 372 778 453 q 738 174 778 264 q 618 29 699 83 q 422 -25 538 -25 q 208 39 296 -25 l 142 -46 l 81 -1 l 154 92 q 88 216 110 144 q 65 369 65 288 q 105 571 65 481 q 225 714 144 661 q 422 767 306 767 q 633 701 546 767 l 700 786 l 760 742 l 688 650 m 192 371 q 229 188 192 261 l 567 617 q 421 671 510 671 q 251 589 310 671 q 192 371 192 507 m 421 71 q 592 152 532 71 q 651 371 651 233 q 613 554 651 482 l 275 124 q 421 71 332 71 z "},"õ":{"ha":843,"x_min":65,"x_max":778,"o":"m 65 0 m 422 -25 q 225 28 306 -25 q 105 170 144 81 q 65 369 65 260 q 105 571 65 481 q 225 714 144 661 q 422 767 306 767 q 618 713 538 767 q 738 569 699 658 q 778 372 778 479 q 738 174 778 264 q 618 29 699 83 q 422 -25 538 -25 m 421 71 q 592 152 532 71 q 651 371 651 233 q 592 589 651 507 q 421 671 532 671 q 251 589 310 671 q 192 371 192 507 q 251 152 192 233 q 421 71 310 71 m 189 894 q 232 1039 196 988 q 328 1090 268 1090 q 386 1074 363 1090 q 438 1029 410 1058 q 476 994 461 1006 q 513 983 492 983 q 556 1009 540 983 q 579 1094 571 1035 l 656 1089 q 613 946 649 999 q 517 893 576 893 q 455 909 479 893 q 401 956 431 925 q 365 989 381 978 q 332 1000 350 1000 q 290 975 304 1000 q 265 889 275 950 l 189 894 z "},"œ":{"ha":1358,"x_min":65,"x_max":1289,"o":"m 1008 71 q 1133 102 1078 71 q 1240 188 1189 133 l 1288 110 q 1162 10 1229 46 q 1007 -25 1094 -25 q 831 16 906 -25 q 713 129 757 57 q 594 16 668 57 q 422 -25 521 -25 q 225 28 306 -25 q 105 170 144 81 q 65 369 65 260 q 106 571 65 481 q 226 714 146 661 q 422 767 307 767 q 594 726 521 767 q 713 613 668 685 q 833 726 758 685 q 1007 767 907 767 q 1152 734 1088 767 q 1253 639 1217 701 q 1289 492 1289 576 q 1279 408 1289 460 l 778 408 q 776 372 776 396 q 835 153 776 235 q 1008 71 894 71 m 1003 675 q 867 628 921 675 q 792 499 814 581 l 1167 499 l 1167 510 q 1119 633 1167 590 q 1003 675 1071 675 m 421 71 q 592 152 532 71 q 651 371 651 233 q 592 589 651 507 q 421 671 532 671 q 251 589 310 671 q 192 371 192 507 q 251 152 192 233 q 421 71 310 71 z "},"p":{"ha":838,"x_min":131,"x_max":772,"o":"m 464 767 q 625 722 556 767 q 733 590 694 676 q 772 385 772 503 q 668 79 772 183 q 393 -25 564 -25 q 254 0 319 -25 l 254 -328 l 131 -328 l 131 744 l 226 744 l 240 682 q 464 767 339 767 m 388 71 q 583 156 519 71 q 646 388 646 240 q 591 602 646 535 q 456 669 536 669 q 351 652 396 669 q 254 596 306 635 l 254 97 q 388 71 314 71 z "},"þ":{"ha":838,"x_min":131,"x_max":772,"o":"m 464 767 q 625 722 556 767 q 733 592 694 678 q 772 388 772 506 q 726 159 772 251 q 598 21 679 67 q 414 -25 517 -25 q 254 15 329 -25 l 254 -328 l 131 -328 l 131 1111 l 254 1111 l 254 693 q 464 767 349 767 m 404 71 q 587 156 528 71 q 646 388 646 240 q 591 602 646 535 q 456 669 536 669 q 351 653 396 669 q 254 596 306 636 l 254 111 q 404 71 322 71 z "},"q":{"ha":838,"x_min":65,"x_max":707,"o":"m 707 744 l 707 -329 l 583 -329 l 583 49 q 374 -25 489 -25 q 213 20 283 -25 q 104 151 143 65 q 65 356 65 236 q 112 583 65 490 q 240 721 158 675 q 424 767 321 767 q 611 711 526 767 l 631 744 l 707 744 m 382 72 q 487 90 442 72 q 583 147 532 107 l 583 632 q 433 671 518 671 q 251 587 310 671 q 192 356 192 503 q 247 140 192 207 q 382 72 301 72 z "},"r":{"ha":557,"x_min":131,"x_max":517,"o":"m 517 650 q 390 627 450 650 q 254 543 329 604 l 254 0 l 131 0 l 131 742 l 226 742 l 249 642 q 381 738 317 710 q 517 765 446 765 l 517 650 z "},"ŕ":{"ha":557,"x_min":131,"x_max":521,"o":"m 131 0 m 517 650 q 390 627 450 650 q 254 543 329 604 l 254 0 l 131 0 l 131 742 l 226 742 l 249 642 q 381 738 317 710 q 517 765 446 765 l 517 650 m 389 1131 l 521 1131 l 351 836 l 254 836 l 389 1131 z "},"ř":{"ha":557,"x_min":101,"x_max":522,"o":"m 101 0 m 517 650 q 390 627 450 650 q 254 543 329 604 l 254 0 l 131 0 l 131 742 l 226 742 l 249 642 q 381 738 317 710 q 517 765 446 765 l 517 650 m 522 1128 l 372 836 l 251 836 l 101 1128 l 199 1128 l 313 922 l 425 1128 l 522 1128 z "},"ŗ":{"ha":557,"x_min":97,"x_max":517,"o":"m 97 0 m 517 650 q 390 627 450 650 q 254 543 329 604 l 254 0 l 131 0 l 131 742 l 226 742 l 249 642 q 381 738 317 710 q 517 765 446 765 l 517 650 m 97 -279 q 174 -244 153 -264 q 196 -197 196 -225 q 180 -165 196 -178 q 126 -146 164 -151 l 154 -78 q 260 -117 228 -86 q 293 -193 293 -149 q 252 -283 293 -244 q 126 -340 211 -321 l 97 -279 z "},"s":{"ha":678,"x_min":65,"x_max":613,"o":"m 328 -25 q 182 -7 244 -25 q 65 46 119 11 l 103 136 q 328 71 196 71 q 445 104 400 71 q 490 199 490 138 q 468 258 490 233 q 413 298 446 282 q 321 336 381 314 q 201 385 247 363 q 124 449 156 408 q 92 554 92 490 q 165 712 92 657 q 353 767 238 767 q 589 699 486 767 l 553 608 q 356 671 464 671 q 253 644 292 671 q 214 564 214 618 q 256 486 214 514 q 382 429 297 458 q 501 379 456 403 q 580 313 547 356 q 613 203 613 269 q 535 37 613 99 q 328 -25 457 -25 z "},"ś":{"ha":678,"x_min":65,"x_max":613,"o":"m 65 0 m 328 -25 q 182 -7 244 -25 q 65 46 119 11 l 103 136 q 328 71 196 71 q 445 104 400 71 q 490 199 490 138 q 468 258 490 233 q 413 298 446 282 q 321 336 381 314 q 201 385 247 363 q 124 449 156 408 q 92 554 92 490 q 165 712 92 657 q 353 767 238 767 q 589 699 486 767 l 553 608 q 356 671 464 671 q 253 644 292 671 q 214 564 214 618 q 256 486 214 514 q 382 429 297 458 q 501 379 456 403 q 580 313 547 356 q 613 203 613 269 q 535 37 613 99 q 328 -25 457 -25 m 421 1131 l 553 1131 l 383 836 l 286 836 l 421 1131 z "},"š":{"ha":678,"x_min":65,"x_max":613,"o":"m 65 0 m 328 -25 q 182 -7 244 -25 q 65 46 119 11 l 103 136 q 328 71 196 71 q 445 104 400 71 q 490 199 490 138 q 468 258 490 233 q 413 298 446 282 q 321 336 381 314 q 201 385 247 363 q 124 449 156 408 q 92 554 92 490 q 165 712 92 657 q 353 767 238 767 q 589 699 486 767 l 553 608 q 356 671 464 671 q 253 644 292 671 q 214 564 214 618 q 256 486 214 514 q 382 429 297 458 q 501 379 456 403 q 580 313 547 356 q 613 203 613 269 q 535 37 613 99 q 328 -25 457 -25 m 554 1128 l 404 836 l 283 836 l 133 1128 l 231 1128 l 344 922 l 457 1128 l 554 1128 z "},"ş":{"ha":678,"x_min":65,"x_max":613,"o":"m 613 203 q 545 45 613 106 q 364 -24 478 -15 l 329 -89 q 350 -87 336 -87 q 427 -113 396 -87 q 458 -178 458 -139 q 413 -269 458 -229 q 269 -332 367 -310 l 240 -272 q 335 -231 310 -251 q 360 -186 360 -210 q 349 -162 360 -171 q 317 -153 338 -153 q 267 -165 293 -153 l 224 -121 l 276 -24 q 65 46 157 -14 l 103 136 q 328 71 196 71 q 445 104 400 71 q 490 199 490 138 q 468 258 490 233 q 413 298 446 282 q 321 336 381 314 q 201 385 247 363 q 124 449 156 408 q 92 554 92 490 q 165 712 92 657 q 353 767 238 767 q 589 699 486 767 l 553 608 q 356 671 464 671 q 253 644 292 671 q 214 564 214 618 q 256 486 214 514 q 382 429 297 458 q 501 379 456 403 q 580 313 547 356 q 613 203 613 269 z "},"ș":{"ha":678,"x_min":65,"x_max":613,"o":"m 65 0 m 328 -25 q 182 -7 244 -25 q 65 46 119 11 l 103 136 q 328 71 196 71 q 445 104 400 71 q 490 199 490 138 q 468 258 490 233 q 413 298 446 282 q 321 336 381 314 q 201 385 247 363 q 124 449 156 408 q 92 554 92 490 q 165 712 92 657 q 353 767 238 767 q 589 699 486 767 l 553 608 q 356 671 464 671 q 253 644 292 671 q 214 564 214 618 q 256 486 214 514 q 382 429 297 458 q 501 379 456 403 q 580 313 547 356 q 613 203 613 269 q 535 37 613 99 q 328 -25 457 -25 m 240 -279 q 317 -244 296 -264 q 339 -197 339 -225 q 323 -165 339 -178 q 269 -146 307 -151 l 297 -78 q 403 -117 371 -86 q 436 -193 436 -149 q 395 -283 436 -244 q 269 -340 354 -321 l 240 -279 z "},"ß":{"ha":850,"x_min":131,"x_max":785,"o":"m 531 -25 q 331 26 417 -25 l 367 117 q 441 83 400 96 q 525 71 482 71 q 625 104 586 71 q 664 197 664 138 q 647 262 664 235 q 604 308 629 289 q 533 353 579 326 q 451 407 482 383 q 399 468 421 431 q 376 560 376 506 q 407 667 376 625 q 496 760 438 710 q 569 831 544 800 q 593 906 593 863 q 555 988 593 960 q 446 1017 517 1017 q 254 804 254 1017 l 254 0 l 131 0 l 131 807 q 213 1033 131 953 q 450 1114 294 1114 q 646 1058 575 1114 q 717 906 717 1003 q 685 798 717 840 q 593 708 653 756 q 520 638 543 667 q 497 569 497 610 q 526 501 497 528 q 614 439 554 474 q 703 379 669 406 q 760 309 736 353 q 785 203 785 265 q 750 83 785 135 q 657 3 715 31 q 531 -25 599 -25 z "},"t":{"ha":594,"x_min":40,"x_max":547,"o":"m 547 28 q 392 -18 475 -18 q 215 47 272 -18 q 158 232 158 111 l 158 649 l 40 649 l 40 701 l 169 738 l 207 917 l 282 917 l 282 742 l 504 742 l 504 649 l 282 649 l 282 251 q 311 120 282 161 q 406 79 340 79 q 465 89 438 81 q 525 115 492 97 l 547 28 z "},"ť":{"ha":594,"x_min":40,"x_max":547,"o":"m 40 0 m 547 28 q 392 -18 475 -18 q 215 47 272 -18 q 158 232 158 111 l 158 649 l 40 649 l 40 701 l 169 738 l 207 917 l 282 917 l 282 742 l 504 742 l 504 649 l 282 649 l 282 251 q 311 120 282 161 q 406 79 340 79 q 465 89 438 81 q 525 115 492 97 l 547 28 m 331 874 q 413 1046 413 936 q 392 1150 413 1092 l 500 1150 q 514 1053 514 1100 q 474 915 514 978 q 371 821 433 853 l 331 874 z "},"ț":{"ha":594,"x_min":40,"x_max":547,"o":"m 40 0 m 547 28 q 392 -18 475 -18 q 215 47 272 -18 q 158 232 158 111 l 158 649 l 40 649 l 40 701 l 169 738 l 207 917 l 282 917 l 282 742 l 504 742 l 504 649 l 282 649 l 282 251 q 311 120 282 161 q 406 79 340 79 q 465 89 438 81 q 525 115 492 97 l 547 28 m 265 -279 q 342 -244 321 -264 q 364 -197 364 -225 q 348 -165 364 -178 q 294 -146 332 -151 l 322 -78 q 428 -117 396 -86 q 461 -193 461 -149 q 420 -283 461 -244 q 294 -340 379 -321 l 265 -279 z "},"u":{"ha":844,"x_min":124,"x_max":714,"o":"m 714 742 l 714 0 l 618 0 l 600 78 q 339 -25 465 -25 q 170 40 217 -25 q 124 225 124 104 l 124 742 l 247 742 l 247 236 q 275 111 247 149 q 371 74 303 74 q 475 97 422 74 q 590 169 528 121 l 590 742 l 714 742 z "},"ú":{"ha":844,"x_min":124,"x_max":714,"o":"m 124 0 m 714 742 l 714 0 l 618 0 l 600 78 q 339 -25 465 -25 q 170 40 217 -25 q 124 225 124 104 l 124 742 l 247 742 l 247 236 q 275 111 247 149 q 371 74 303 74 q 475 97 422 74 q 590 169 528 121 l 590 742 l 714 742 m 497 1131 l 629 1131 l 460 836 l 363 836 l 497 1131 z "},"û":{"ha":844,"x_min":124,"x_max":714,"o":"m 124 0 m 714 742 l 714 0 l 618 0 l 600 78 q 339 -25 465 -25 q 170 40 217 -25 q 124 225 124 104 l 124 742 l 247 742 l 247 236 q 275 111 247 149 q 371 74 303 74 q 475 97 422 74 q 590 169 528 121 l 590 742 l 714 742 m 533 836 l 421 1042 l 307 836 l 210 836 l 360 1128 l 481 1128 l 631 836 l 533 836 z "},"ü":{"ha":844,"x_min":124,"x_max":714,"o":"m 124 0 m 714 742 l 714 0 l 618 0 l 600 78 q 339 -25 465 -25 q 170 40 217 -25 q 124 225 124 104 l 124 742 l 247 742 l 247 236 q 275 111 247 149 q 371 74 303 74 q 475 97 422 74 q 590 169 528 121 l 590 742 l 714 742 m 279 971 q 226 993 249 971 q 204 1044 204 1015 q 226 1098 204 1075 q 279 1121 249 1121 q 333 1099 311 1121 q 356 1044 356 1076 q 333 993 356 1015 q 279 971 310 971 m 561 971 q 508 993 531 971 q 486 1044 486 1015 q 508 1098 486 1075 q 561 1121 531 1121 q 615 1099 593 1121 q 638 1044 638 1076 q 615 993 638 1015 q 561 971 592 971 z "},"ù":{"ha":844,"x_min":124,"x_max":714,"o":"m 124 0 m 714 742 l 714 0 l 618 0 l 600 78 q 339 -25 465 -25 q 170 40 217 -25 q 124 225 124 104 l 124 742 l 247 742 l 247 236 q 275 111 247 149 q 371 74 303 74 q 475 97 422 74 q 590 169 528 121 l 590 742 l 714 742 m 208 1129 l 340 1129 l 475 836 l 378 836 l 208 1129 z "},"ű":{"ha":844,"x_min":124,"x_max":744,"o":"m 124 0 m 714 742 l 714 0 l 618 0 l 600 78 q 339 -25 465 -25 q 170 40 217 -25 q 124 225 124 104 l 124 742 l 247 742 l 247 236 q 275 111 247 149 q 371 74 303 74 q 475 97 422 74 q 590 169 528 121 l 590 742 l 714 742 m 392 1129 l 511 1129 l 343 836 l 257 836 l 392 1129 m 625 1129 l 744 1129 l 576 836 l 490 836 l 625 1129 z "},"ū":{"ha":844,"x_min":124,"x_max":714,"o":"m 124 0 m 714 742 l 714 0 l 618 0 l 600 78 q 339 -25 465 -25 q 170 40 217 -25 q 124 225 124 104 l 124 742 l 247 742 l 247 236 q 275 111 247 149 q 371 74 303 74 q 475 97 422 74 q 590 169 528 121 l 590 742 l 714 742 m 201 1103 l 639 1103 l 639 1011 l 201 1011 l 201 1103 z "},"ų":{"ha":844,"x_min":124,"x_max":764,"o":"m 764 -272 q 699 -324 739 -303 q 614 -344 658 -344 q 508 -308 547 -344 q 468 -208 468 -272 q 506 -92 468 -151 q 614 21 544 -32 l 600 78 q 339 -25 465 -25 q 170 40 217 -25 q 124 225 124 104 l 124 742 l 247 742 l 247 236 q 275 111 247 149 q 371 74 303 74 q 475 97 422 74 q 590 169 528 121 l 590 742 l 714 742 l 714 21 l 724 21 l 714 13 l 714 0 l 699 0 q 601 -103 633 -57 q 569 -190 569 -149 q 586 -235 569 -219 q 632 -251 603 -251 q 721 -208 676 -251 l 764 -272 z "},"ů":{"ha":844,"x_min":124,"x_max":714,"o":"m 124 0 m 714 742 l 714 0 l 618 0 l 600 78 q 339 -25 465 -25 q 170 40 217 -25 q 124 225 124 104 l 124 742 l 247 742 l 247 236 q 275 111 247 149 q 371 74 303 74 q 475 97 422 74 q 590 169 528 121 l 590 742 l 714 742 m 421 833 q 300 879 344 833 q 256 988 256 925 q 300 1094 256 1049 q 421 1139 344 1139 q 542 1094 497 1139 q 586 988 586 1049 q 542 879 586 925 q 421 833 497 833 m 421 899 q 481 924 458 899 q 503 988 503 949 q 481 1050 503 1025 q 421 1075 458 1075 q 360 1050 382 1075 q 338 988 338 1025 q 360 924 338 949 q 421 899 382 899 z "},"v":{"ha":738,"x_min":22,"x_max":715,"o":"m 715 742 l 425 -11 l 313 -11 l 22 742 l 150 742 l 369 138 l 589 742 l 715 742 z "},"w":{"ha":1125,"x_min":24,"x_max":1101,"o":"m 1101 742 l 868 -11 l 756 -11 l 563 588 l 371 -11 l 258 -11 l 24 742 l 151 742 l 317 143 l 508 742 l 619 742 l 814 140 l 976 742 l 1101 742 z "},"x":{"ha":786,"x_min":32,"x_max":756,"o":"m 610 0 l 392 308 l 174 0 l 32 0 l 315 386 l 57 742 l 200 742 l 394 463 l 588 742 l 728 742 l 469 388 l 756 0 l 610 0 z "},"y":{"ha":754,"x_min":24,"x_max":732,"o":"m 732 742 l 410 -103 q 293 -287 363 -231 q 124 -344 224 -344 q 24 -328 68 -344 l 39 -231 q 115 -242 81 -242 q 232 -200 185 -242 q 321 -47 279 -158 l 332 -15 l 39 742 l 167 742 l 389 142 l 607 742 l 732 742 z "},"ý":{"ha":754,"x_min":24,"x_max":732,"o":"m 24 0 m 732 742 l 410 -103 q 293 -287 363 -231 q 124 -344 224 -344 q 24 -328 68 -344 l 39 -231 q 115 -242 81 -242 q 232 -200 185 -242 q 321 -47 279 -158 l 332 -15 l 39 742 l 167 742 l 389 142 l 607 742 l 732 742 m 463 1131 l 594 1131 l 425 836 l 328 836 l 463 1131 z "},"ÿ":{"ha":754,"x_min":24,"x_max":732,"o":"m 24 0 m 732 742 l 410 -103 q 293 -287 363 -231 q 124 -344 224 -344 q 24 -328 68 -344 l 39 -231 q 115 -242 81 -242 q 232 -200 185 -242 q 321 -47 279 -158 l 332 -15 l 39 742 l 167 742 l 389 142 l 607 742 l 732 742 m 244 971 q 192 993 214 971 q 169 1044 169 1015 q 192 1098 169 1075 q 244 1121 214 1121 q 299 1099 276 1121 q 321 1044 321 1076 q 298 993 321 1015 q 244 971 275 971 m 526 971 q 474 993 496 971 q 451 1044 451 1015 q 474 1098 451 1075 q 526 1121 496 1121 q 581 1099 558 1121 q 603 1044 603 1076 q 580 993 603 1015 q 526 971 557 971 z "},"z":{"ha":707,"x_min":60,"x_max":647,"o":"m 647 93 l 647 0 l 60 0 l 60 65 l 489 649 l 75 649 l 75 742 l 633 742 l 633 671 l 207 93 l 647 93 z "},"ź":{"ha":707,"x_min":60,"x_max":647,"o":"m 60 0 m 647 93 l 647 0 l 60 0 l 60 65 l 489 649 l 75 649 l 75 742 l 633 742 l 633 671 l 207 93 l 647 93 m 432 1131 l 564 1131 l 394 836 l 297 836 l 432 1131 z "},"ž":{"ha":707,"x_min":60,"x_max":647,"o":"m 60 0 m 647 93 l 647 0 l 60 0 l 60 65 l 489 649 l 75 649 l 75 742 l 633 742 l 633 671 l 207 93 l 647 93 m 565 1128 l 415 836 l 294 836 l 144 1128 l 242 1128 l 356 922 l 468 1128 l 565 1128 z "},"ż":{"ha":707,"x_min":60,"x_max":647,"o":"m 60 0 m 647 93 l 647 0 l 60 0 l 60 65 l 489 649 l 75 649 l 75 742 l 633 742 l 633 671 l 207 93 l 647 93 m 356 971 q 303 993 325 971 q 281 1044 281 1015 q 303 1098 281 1075 q 356 1121 325 1121 q 410 1099 388 1121 q 432 1044 432 1076 q 409 993 432 1015 q 356 971 386 971 z "},"ﬁ":{"ha":960,"x_min":79,"x_max":839,"o":"m 79 0 m 321 742 l 543 742 l 543 649 l 321 649 l 321 0 l 197 0 l 197 649 l 79 649 l 79 701 l 197 735 l 197 810 q 260 1035 197 957 q 456 1114 324 1114 q 546 1103 497 1114 l 531 1010 q 467 1017 496 1017 q 356 965 390 1017 q 321 807 321 914 l 321 742 m 758 971 q 703 994 726 971 q 679 1049 679 1017 q 703 1106 679 1082 q 758 1129 726 1129 q 815 1106 792 1129 q 839 1049 839 1082 q 815 994 839 1017 q 758 971 792 971 m 697 742 l 821 742 l 821 0 l 697 0 l 697 742 z "},"ﬂ":{"ha":943,"x_min":79,"x_max":813,"o":"m 79 0 m 321 742 l 543 742 l 543 649 l 321 649 l 321 0 l 197 0 l 197 649 l 79 649 l 79 701 l 197 735 l 197 810 q 260 1035 197 957 q 456 1114 324 1114 q 546 1103 497 1114 l 531 1010 q 467 1017 496 1017 q 356 965 390 1017 q 321 807 321 914 l 321 742 m 689 1111 l 813 1111 l 813 0 l 689 0 l 689 1111 z "},"ª":{"ha":497,"x_min":40,"x_max":479,"o":"m 40 590 q 72 677 40 643 q 160 733 103 711 q 318 783 217 756 l 318 810 q 243 897 318 897 q 165 880 201 897 q 82 819 128 863 l 40 881 q 261 976 146 976 q 385 935 347 976 q 424 800 424 893 l 424 596 q 444 567 424 567 q 471 575 457 567 l 479 494 q 410 483 442 483 q 321 544 335 483 q 165 482 236 482 q 75 513 110 482 q 40 590 40 544 m 147 600 q 161 569 147 581 q 197 558 175 558 q 251 573 222 558 q 318 617 279 588 l 318 715 q 185 664 224 689 q 147 600 147 639 m 42 360 l 464 360 l 464 274 l 42 274 l 42 360 z "},"º":{"ha":535,"x_min":38,"x_max":497,"o":"m 38 729 q 97 907 38 835 q 267 979 156 979 q 394 944 342 979 q 472 853 446 910 q 497 732 497 797 q 438 553 497 626 q 267 481 378 481 q 97 553 156 481 q 38 729 38 625 m 389 731 q 358 853 389 807 q 267 900 326 900 q 176 853 207 900 q 146 731 146 807 q 176 607 146 653 q 267 561 207 561 q 358 607 326 561 q 389 731 389 653 m 478 360 l 478 274 l 57 274 l 57 360 l 478 360 z "},"Ω":{"ha":1103,"x_min":76,"x_max":1028,"o":"m 1024 519 q 788 100 1024 290 l 788 96 l 1028 96 l 1028 0 l 622 0 l 622 81 q 828 299 763 194 q 894 521 894 403 q 851 699 894 619 q 731 823 808 778 q 551 868 653 868 q 372 823 450 868 q 251 699 294 778 q 208 521 208 619 q 274 299 208 403 q 482 81 340 194 l 482 0 l 76 0 l 76 96 l 317 96 l 317 100 q 81 519 81 294 q 138 747 81 646 q 303 907 196 849 q 551 965 410 965 q 801 907 694 965 q 966 747 908 849 q 1024 519 1024 646 z "},"μ":{"ha":849,"x_min":129,"x_max":718,"o":"m 718 742 l 718 0 l 622 0 l 606 76 q 344 -25 469 -25 q 229 4 269 -25 l 253 -329 l 129 -329 l 129 742 l 253 742 l 253 236 q 281 111 253 149 q 376 74 308 74 q 594 168 475 74 l 594 742 l 718 742 z "},"π":{"ha":926,"x_min":44,"x_max":864,"o":"m 864 15 q 731 -18 797 -18 q 576 149 576 -18 l 576 649 l 346 649 l 283 0 l 160 0 l 222 649 l 44 649 l 44 742 l 849 742 l 849 649 l 700 649 l 700 161 q 715 100 700 119 q 761 81 729 81 q 800 86 783 81 q 844 104 817 92 l 864 15 z "},"ॲ":{"ha":1088,"x_min":0,"x_max":1181,"o":"m 0 0 m 1088 803 l 936 803 l 936 0 l 821 0 l 821 389 q 755 364 794 375 q 676 353 715 353 q 610 360 644 353 q 628 269 628 315 q 595 153 628 206 q 503 70 563 100 q 364 40 443 40 q 0 331 129 40 l 72 392 q 199 204 126 271 q 363 136 272 138 q 472 177 431 138 q 513 279 513 217 q 488 369 513 329 q 417 446 464 410 q 281 424 353 428 l 256 519 q 434 565 376 525 q 492 682 492 604 q 453 783 492 742 q 351 824 414 824 q 164 746 263 824 l 113 833 q 350 919 225 919 q 476 891 418 919 q 570 806 535 863 q 606 669 606 750 q 510 489 606 556 q 588 462 542 474 q 676 450 635 450 q 821 493 765 450 l 821 803 l 639 803 l 639 899 l 1088 899 l 1088 803 m 878 1018 q 699 1069 778 1018 q 574 1200 619 1119 l 649 1254 q 878 1113 736 1113 q 1107 1254 1019 1113 l 1181 1200 q 1056 1069 1135 1119 q 878 1018 978 1018 z "},"ऄ":{"ha":1088,"x_min":0,"x_max":1088,"o":"m 1088 803 l 936 803 l 936 0 l 821 0 l 821 389 q 755 364 794 375 q 676 353 715 353 q 610 360 644 353 q 628 269 628 315 q 595 153 628 206 q 503 70 563 100 q 364 40 443 40 q 0 331 129 40 l 72 392 q 199 204 126 271 q 363 136 272 138 q 472 177 431 138 q 513 279 513 217 q 488 369 513 329 q 417 446 464 410 q 281 424 353 428 l 256 519 q 434 565 376 525 q 492 682 492 604 q 453 783 492 742 q 351 824 414 824 q 164 746 263 824 l 113 833 q 350 919 225 919 q 476 891 418 919 q 570 806 535 863 q 606 669 606 750 q 510 489 606 556 q 588 462 542 474 q 676 450 635 450 q 821 493 765 450 l 821 803 l 639 803 l 639 899 l 833 899 q 838 944 838 919 q 803 1042 838 1003 q 689 1082 769 1082 q 539 1074 639 1082 q 397 1065 442 1065 q 255 1104 306 1065 q 204 1217 204 1143 q 215 1284 204 1250 q 244 1344 226 1318 l 347 1318 q 318 1232 318 1274 q 339 1180 318 1197 q 407 1163 360 1163 q 549 1171 454 1163 q 689 1179 646 1179 q 884 1114 817 1179 q 951 943 951 1049 q 947 899 951 922 l 1088 899 l 1088 803 z "},"अ":{"ha":1088,"x_min":0,"x_max":1088,"o":"m 1088 803 l 936 803 l 936 0 l 821 0 l 821 389 q 755 364 794 375 q 676 353 715 353 q 610 360 644 353 q 628 269 628 315 q 595 153 628 206 q 503 70 563 100 q 364 40 443 40 q 0 331 129 40 l 72 392 q 199 204 126 271 q 363 136 272 138 q 472 177 431 138 q 513 279 513 217 q 488 369 513 329 q 417 446 464 410 q 281 424 353 428 l 256 519 q 434 565 376 525 q 492 682 492 604 q 453 783 492 742 q 351 824 414 824 q 164 746 263 824 l 113 833 q 350 919 225 919 q 476 891 418 919 q 570 806 535 863 q 606 669 606 750 q 510 489 606 556 q 588 462 542 474 q 676 450 635 450 q 821 493 765 450 l 821 803 l 639 803 l 639 899 l 1088 899 l 1088 803 z "},"आ":{"ha":1507,"x_min":0,"x_max":1507,"o":"m 1507 803 l 1354 803 l 1354 0 l 1239 0 l 1239 803 l 936 803 l 936 0 l 821 0 l 821 389 q 755 364 794 375 q 676 353 715 353 q 610 360 644 353 q 628 269 628 315 q 595 153 628 206 q 503 70 563 100 q 364 40 443 40 q 0 331 129 40 l 72 392 q 199 204 126 271 q 363 136 272 138 q 472 177 431 138 q 513 279 513 217 q 488 369 513 329 q 417 446 464 410 q 281 424 353 428 l 256 519 q 434 565 376 525 q 492 682 492 604 q 453 783 492 742 q 351 824 414 824 q 164 746 263 824 l 113 833 q 350 919 225 919 q 476 891 418 919 q 570 806 535 863 q 606 669 606 750 q 510 489 606 556 q 588 462 542 474 q 676 450 635 450 q 821 493 765 450 l 821 803 l 639 803 l 639 899 l 1507 899 l 1507 803 z "},"इ":{"ha":693,"x_min":-28,"x_max":693,"o":"m 276 585 q 220 563 240 585 q 200 504 200 542 q 230 438 200 463 q 313 414 260 414 q 420 428 363 414 q 524 467 478 442 q 599 376 568 432 q 629 263 629 321 q 551 103 629 167 q 357 28 474 39 l 488 -167 l 389 -222 l 247 32 q 133 74 176 43 q 90 146 90 104 q 124 212 90 186 q 217 239 157 238 l 293 125 q 314 124 300 124 q 418 142 372 124 q 489 193 464 161 q 514 263 514 225 q 504 308 514 285 q 479 349 494 331 q 315 318 397 318 q 144 372 203 318 q 86 510 86 426 q 133 632 86 583 q 267 681 181 681 l 433 681 l 433 803 l -28 803 l -28 899 l 693 899 l 693 803 l 546 803 l 546 585 l 276 585 z "},"ई":{"ha":693,"x_min":-28,"x_max":696,"o":"m 396 1118 q 532 899 396 1008 l 693 899 l 693 803 l 546 803 l 546 585 l 276 585 q 220 563 240 585 q 200 504 200 542 q 230 438 200 463 q 313 414 260 414 q 420 428 363 414 q 524 467 478 442 q 599 376 568 432 q 629 263 629 321 q 551 103 629 167 q 357 28 474 39 l 488 -167 l 389 -222 l 247 32 q 133 74 176 43 q 90 146 90 104 q 124 212 90 186 q 217 239 157 238 l 293 125 q 314 124 300 124 q 418 142 372 124 q 489 193 464 161 q 514 263 514 225 q 504 308 514 285 q 479 349 494 331 q 315 318 397 318 q 144 372 203 318 q 86 510 86 426 q 133 632 86 583 q 267 681 181 681 l 433 681 l 433 803 l -28 803 l -28 899 l 399 899 q 310 1009 340 953 q 281 1133 281 1065 q 342 1286 281 1226 q 511 1346 404 1346 q 696 1276 608 1346 l 657 1194 q 593 1235 625 1219 q 521 1250 561 1250 q 431 1215 467 1250 q 396 1118 396 1179 z "},"उ":{"ha":790,"x_min":-28,"x_max":790,"o":"m 790 803 l 621 803 q 676 649 676 733 q 567 483 676 546 q 690 254 690 376 q 657 130 690 185 q 563 44 624 75 q 422 13 501 13 q 206 95 297 13 q 49 332 114 178 l 121 393 q 421 108 243 110 q 533 153 490 110 q 575 264 575 197 q 548 362 575 318 q 467 446 521 406 q 297 424 399 428 l 272 519 q 491 560 421 525 q 561 660 561 596 q 538 739 561 701 q 471 803 515 776 l -28 803 l -28 899 l 790 899 l 790 803 z "},"ऊ":{"ha":1138,"x_min":-28,"x_max":1138,"o":"m 621 803 q 676 649 676 733 q 567 483 676 546 q 635 411 608 449 q 757 508 701 474 q 878 543 813 543 q 1025 483 971 543 q 1079 332 1079 422 q 1042 182 1079 253 q 939 58 1004 111 l 844 129 q 932 228 900 175 q 964 331 964 281 q 940 416 964 386 q 875 446 915 446 q 783 413 829 446 q 681 322 736 381 q 690 254 690 286 q 657 130 690 185 q 563 44 624 75 q 422 13 501 13 q 206 95 297 13 q 49 332 114 178 l 121 393 q 421 108 243 110 q 533 153 490 110 q 575 264 575 197 q 548 362 575 318 q 467 446 521 406 q 297 424 399 428 l 272 519 q 491 560 421 525 q 561 660 561 596 q 538 739 561 701 q 471 803 515 776 l -28 803 l -28 899 l 1138 899 l 1138 803 l 621 803 z "},"ऋ":{"ha":1179,"x_min":-28,"x_max":1179,"o":"m 651 803 l 651 467 q 696 463 674 463 q 829 493 760 463 l 776 606 q 826 656 796 638 q 889 674 857 674 q 965 642 938 674 q 992 568 992 611 q 944 463 992 510 l 1057 235 l 1060 232 q 951 166 986 200 q 915 93 915 132 q 940 32 915 56 q 1011 8 965 8 q 1075 18 1044 8 q 1128 44 1106 28 l 1174 -39 q 1101 -74 1143 -61 q 1010 -87 1058 -87 q 865 -37 921 -87 q 810 89 810 13 q 840 185 810 142 q 935 269 871 229 l 869 408 q 781 376 828 388 q 693 365 735 365 q 651 369 672 365 l 651 0 l 538 0 l 538 315 l 179 28 l 104 119 l 529 432 q 400 519 456 494 q 290 543 344 543 q 93 489 210 543 l 46 588 q 290 639 168 639 q 408 618 351 639 q 538 543 465 597 l 538 803 l -28 803 l -28 899 l 1179 899 l 1179 803 l 651 803 z "},"ॠ":{"ha":1179,"x_min":-28,"x_max":1301,"o":"m 1301 -269 q 1094 -360 1217 -360 q 955 -312 1010 -360 q 900 -189 900 -265 q 936 -76 900 -129 q 844 -14 878 -58 q 810 89 810 31 q 840 185 810 142 q 935 269 871 229 l 869 408 q 781 376 828 388 q 693 365 735 365 q 651 369 672 365 l 651 0 l 538 0 l 538 315 l 179 28 l 104 119 l 529 432 q 400 519 456 494 q 290 543 344 543 q 93 489 210 543 l 46 588 q 290 639 168 639 q 408 618 351 639 q 538 543 465 597 l 538 803 l -28 803 l -28 899 l 1179 899 l 1179 803 l 651 803 l 651 467 q 696 463 674 463 q 829 493 760 463 l 776 606 q 826 656 796 638 q 889 674 857 674 q 965 642 938 674 q 992 568 992 611 q 944 463 992 510 l 1057 235 l 1060 232 q 951 166 986 200 q 915 93 915 132 q 940 32 915 56 q 1011 8 965 8 q 1075 18 1044 8 q 1128 44 1106 28 l 1174 -39 q 1047 -85 1121 -76 q 1006 -187 1006 -132 q 1029 -244 1006 -224 q 1097 -264 1053 -264 q 1177 -245 1138 -264 q 1251 -190 1217 -226 l 1301 -269 z "},"ऌ":{"ha":1019,"x_min":-28,"x_max":1019,"o":"m 758 803 l 758 594 q 887 520 842 578 q 932 385 932 463 q 900 274 932 324 q 808 160 868 225 q 740 77 763 110 q 718 11 718 44 q 740 -44 718 -24 q 800 -65 763 -65 q 968 18 893 -65 l 1017 -62 q 921 -135 972 -110 q 799 -161 869 -161 q 660 -115 715 -161 q 604 10 604 -69 q 631 104 604 63 q 713 203 658 146 q 790 296 764 256 q 817 385 817 336 q 787 472 817 442 q 706 503 757 503 q 588 438 632 503 q 536 263 544 374 l 421 283 q 454 426 429 367 q 381 501 418 476 q 297 526 343 526 q 217 490 250 526 q 185 385 185 453 q 242 199 185 285 q 403 25 299 113 l 333 -46 q 139 168 208 60 q 69 397 69 276 q 131 565 69 506 q 289 625 192 625 q 409 591 356 625 q 501 506 463 557 q 643 594 558 575 l 643 803 l -28 803 l -28 899 l 1019 899 l 1019 803 l 758 803 z "},"ॡ":{"ha":1019,"x_min":-28,"x_max":1172,"o":"m 1172 -296 q 965 -386 1089 -386 q 826 -340 881 -386 q 771 -215 771 -293 q 779 -160 771 -187 q 653 -110 703 -154 q 604 10 604 -65 q 631 104 604 63 q 713 203 658 146 q 790 296 764 256 q 817 385 817 336 q 787 472 817 442 q 706 503 757 503 q 588 438 632 503 q 536 263 544 374 l 421 283 q 454 426 429 367 q 381 501 418 476 q 297 526 343 526 q 217 490 250 526 q 185 385 185 453 q 242 199 185 285 q 403 25 299 113 l 333 -46 q 139 168 208 60 q 69 397 69 276 q 131 565 69 506 q 289 625 192 625 q 409 591 356 625 q 501 506 463 557 q 643 594 558 575 l 643 803 l -28 803 l -28 899 l 1019 899 l 1019 803 l 758 803 l 758 594 q 887 520 842 578 q 932 385 932 463 q 900 274 932 324 q 808 160 868 225 q 740 77 763 110 q 718 11 718 44 q 740 -44 718 -24 q 800 -65 763 -65 q 968 18 893 -65 l 1017 -62 q 896 -146 958 -124 q 876 -215 876 -175 q 900 -270 876 -250 q 968 -290 924 -290 q 1050 -272 1010 -290 q 1124 -215 1090 -253 l 1172 -296 z "},"ऍ":{"ha":850,"x_min":-28,"x_max":892,"o":"m 0 0 m 782 -17 q 867 -94 843 -58 q 892 -167 892 -131 q 878 -233 892 -203 q 833 -299 864 -264 l 731 -244 q 767 -172 767 -208 q 752 -128 767 -150 q 693 -76 738 -106 l 293 194 q 183 299 214 249 q 151 426 151 349 l 151 803 l -28 803 l -28 899 l 850 899 l 850 803 l 710 803 l 710 471 q 659 342 710 392 q 550 269 608 292 l 472 350 q 563 404 532 375 q 593 489 593 433 l 593 803 l 269 803 l 269 431 q 290 336 269 369 q 360 269 311 303 l 782 -17 m 428 1018 q 249 1069 328 1018 q 124 1200 169 1119 l 199 1254 q 428 1113 286 1113 q 657 1254 569 1113 l 731 1200 q 606 1069 685 1119 q 428 1018 528 1018 z "},"ऎ":{"ha":850,"x_min":-28,"x_max":892,"o":"m 782 -17 q 867 -94 843 -58 q 892 -167 892 -131 q 878 -233 892 -203 q 833 -299 864 -264 l 731 -244 q 767 -172 767 -208 q 752 -128 767 -150 q 693 -76 738 -106 l 293 194 q 183 299 214 249 q 151 426 151 349 l 151 803 l -28 803 l -28 899 l 601 899 q 606 944 606 919 q 572 1042 606 1003 q 457 1082 538 1082 q 307 1074 407 1082 q 165 1065 210 1065 q 23 1104 74 1065 q -28 1217 -28 1143 q -17 1284 -28 1250 q 13 1344 -6 1318 l 115 1318 q 86 1232 86 1274 q 107 1180 86 1197 q 175 1163 128 1163 q 317 1171 222 1163 q 457 1179 414 1179 q 652 1114 585 1179 q 719 943 719 1049 q 715 899 719 922 l 850 899 l 850 803 l 710 803 l 710 471 q 659 342 710 392 q 550 269 608 292 l 472 350 q 563 404 532 375 q 593 489 593 433 l 593 803 l 269 803 l 269 431 q 290 336 269 369 q 360 269 311 303 l 782 -17 z "},"ए":{"ha":850,"x_min":-28,"x_max":892,"o":"m 782 -17 q 867 -94 843 -58 q 892 -167 892 -131 q 878 -233 892 -203 q 833 -299 864 -264 l 731 -244 q 767 -172 767 -208 q 752 -128 767 -150 q 693 -76 738 -106 l 293 194 q 183 299 214 249 q 151 426 151 349 l 151 803 l -28 803 l -28 899 l 850 899 l 850 803 l 710 803 l 710 471 q 659 342 710 392 q 550 269 608 292 l 472 350 q 563 404 532 375 q 593 489 593 433 l 593 803 l 269 803 l 269 431 q 290 336 269 369 q 360 269 311 303 l 782 -17 z "},"ऐ":{"ha":850,"x_min":-28,"x_max":892,"o":"m 782 -17 q 867 -94 843 -58 q 892 -167 892 -131 q 878 -233 892 -203 q 833 -299 864 -264 l 731 -244 q 767 -172 767 -208 q 752 -128 767 -150 q 693 -76 738 -106 l 293 194 q 183 299 214 249 q 151 426 151 349 l 151 803 l -28 803 l -28 899 l 585 899 l 535 1007 q 465 1147 494 1096 q 399 1225 435 1197 q 315 1253 363 1253 q 214 1233 261 1253 l 193 1325 q 314 1353 246 1353 q 438 1319 385 1353 q 535 1217 490 1285 q 635 1029 579 1149 l 696 899 l 850 899 l 850 803 l 710 803 l 710 471 q 659 342 710 392 q 550 269 608 292 l 472 350 q 563 404 532 375 q 593 489 593 433 l 593 803 l 269 803 l 269 431 q 290 336 269 369 q 360 269 311 303 l 782 -17 z "},"ऑ":{"ha":1507,"x_min":0,"x_max":1507,"o":"m 0 0 m 1507 803 l 1354 803 l 1354 0 l 1239 0 l 1239 803 l 936 803 l 936 0 l 821 0 l 821 389 q 755 364 794 375 q 676 353 715 353 q 610 360 644 353 q 628 269 628 315 q 595 153 628 206 q 503 70 563 100 q 364 40 443 40 q 0 331 129 40 l 72 392 q 199 204 126 271 q 363 136 272 138 q 472 177 431 138 q 513 279 513 217 q 488 369 513 329 q 417 446 464 410 q 281 424 353 428 l 256 519 q 434 565 376 525 q 492 682 492 604 q 453 783 492 742 q 351 824 414 824 q 164 746 263 824 l 113 833 q 350 919 225 919 q 476 891 418 919 q 570 806 535 863 q 606 669 606 750 q 510 489 606 556 q 588 462 542 474 q 676 450 635 450 q 821 493 765 450 l 821 803 l 639 803 l 639 899 l 1507 899 l 1507 803 m 1015 1018 q 836 1069 915 1018 q 711 1200 757 1119 l 786 1254 q 1015 1113 874 1113 q 1244 1254 1157 1113 l 1318 1200 q 1194 1069 1272 1119 q 1015 1018 1115 1018 z "},"ऒ":{"ha":1507,"x_min":0,"x_max":1507,"o":"m 1507 803 l 1354 803 l 1354 0 l 1239 0 l 1239 803 l 936 803 l 936 0 l 821 0 l 821 389 q 755 364 794 375 q 676 353 715 353 q 610 360 644 353 q 628 269 628 315 q 595 153 628 206 q 503 70 563 100 q 364 40 443 40 q 0 331 129 40 l 72 392 q 199 204 126 271 q 363 136 272 138 q 472 177 431 138 q 513 279 513 217 q 488 369 513 329 q 417 446 464 410 q 281 424 353 428 l 256 519 q 434 565 376 525 q 492 682 492 604 q 453 783 492 742 q 351 824 414 824 q 164 746 263 824 l 113 833 q 350 919 225 919 q 476 891 418 919 q 570 806 535 863 q 606 669 606 750 q 510 489 606 556 q 588 462 542 474 q 676 450 635 450 q 821 493 765 450 l 821 803 l 639 803 l 639 899 l 1249 899 q 1253 944 1253 919 q 1219 1042 1253 1003 q 1104 1082 1185 1082 q 954 1074 1054 1082 q 813 1065 857 1065 q 670 1104 721 1065 q 619 1217 619 1143 q 631 1285 619 1250 q 660 1344 642 1319 l 761 1318 q 733 1232 733 1275 q 753 1179 733 1196 q 822 1163 774 1163 q 964 1171 869 1163 q 1104 1179 1061 1179 q 1299 1114 1232 1179 q 1367 943 1367 1049 q 1363 899 1367 922 l 1507 899 l 1507 803 z "},"ओ":{"ha":1507,"x_min":0,"x_max":1507,"o":"m 1507 803 l 1354 803 l 1354 0 l 1239 0 l 1239 803 l 936 803 l 936 0 l 821 0 l 821 389 q 755 364 794 375 q 676 353 715 353 q 610 360 644 353 q 628 269 628 315 q 595 153 628 206 q 503 70 563 100 q 364 40 443 40 q 0 331 129 40 l 72 392 q 199 204 126 271 q 363 136 272 138 q 472 177 431 138 q 513 279 513 217 q 488 369 513 329 q 417 446 464 410 q 281 424 353 428 l 256 519 q 434 565 376 525 q 492 682 492 604 q 453 783 492 742 q 351 824 414 824 q 164 746 263 824 l 113 833 q 350 919 225 919 q 476 891 418 919 q 570 806 535 863 q 606 669 606 750 q 510 489 606 556 q 588 462 542 474 q 676 450 635 450 q 821 493 765 450 l 821 803 l 639 803 l 639 899 l 1229 899 l 1179 1007 q 1109 1147 1139 1096 q 1043 1225 1079 1197 q 960 1253 1007 1253 q 858 1233 906 1253 l 838 1325 q 958 1353 890 1353 q 1082 1319 1029 1353 q 1179 1217 1135 1285 q 1279 1029 1224 1149 l 1342 899 l 1507 899 l 1507 803 z "},"औ":{"ha":1507,"x_min":0,"x_max":1507,"o":"m 1507 803 l 1354 803 l 1354 0 l 1239 0 l 1239 803 l 936 803 l 936 0 l 821 0 l 821 389 q 755 364 794 375 q 676 353 715 353 q 610 360 644 353 q 628 269 628 315 q 595 153 628 206 q 503 70 563 100 q 364 40 443 40 q 0 331 129 40 l 72 392 q 199 204 126 271 q 363 136 272 138 q 472 177 431 138 q 513 279 513 217 q 488 369 513 329 q 417 446 464 410 q 281 424 353 428 l 256 519 q 434 565 376 525 q 492 682 492 604 q 453 783 492 742 q 351 824 414 824 q 164 746 263 824 l 113 833 q 350 919 225 919 q 476 891 418 919 q 570 806 535 863 q 606 669 606 750 q 510 489 606 556 q 588 462 542 474 q 676 450 635 450 q 821 493 765 450 l 821 803 l 639 803 l 639 899 l 1182 899 l 1136 976 q 1057 1072 1097 1043 q 967 1101 1017 1101 q 915 1097 938 1101 q 864 1081 892 1093 l 843 1172 q 965 1201 899 1201 q 1108 1147 1043 1201 q 1224 1001 1174 1092 l 1263 932 l 1229 1015 q 1136 1222 1171 1154 q 1062 1327 1101 1290 q 967 1364 1022 1364 q 874 1344 918 1364 l 853 1436 q 974 1464 904 1464 q 1106 1420 1050 1464 q 1211 1285 1163 1376 q 1322 1029 1260 1193 l 1372 899 l 1507 899 l 1507 803 z "},"ॳ":{"ha":1088,"x_min":0,"x_max":1088,"o":"m 1088 803 l 936 803 l 936 0 l 821 0 l 821 389 q 755 364 794 375 q 676 353 715 353 q 610 360 644 353 q 628 269 628 315 q 595 153 628 206 q 503 70 563 100 q 364 40 443 40 q 0 331 129 40 l 72 392 q 199 204 126 271 q 363 136 272 138 q 472 177 431 138 q 513 279 513 217 q 488 369 513 329 q 417 446 464 410 q 281 424 353 428 l 256 519 q 434 565 376 525 q 492 682 492 604 q 453 783 492 742 q 351 824 414 824 q 164 746 263 824 l 113 833 q 350 919 225 919 q 476 891 418 919 q 570 806 535 863 q 606 669 606 750 q 510 489 606 556 q 588 462 542 474 q 676 450 635 450 q 821 493 765 450 l 821 803 l 639 803 l 639 899 l 821 899 l 821 1265 l 939 1265 l 939 899 l 1088 899 l 1088 803 z "},"ॴ":{"ha":1507,"x_min":0,"x_max":1507,"o":"m 1507 803 l 1354 803 l 1354 0 l 1239 0 l 1239 803 l 936 803 l 936 0 l 821 0 l 821 389 q 755 364 794 375 q 676 353 715 353 q 610 360 644 353 q 628 269 628 315 q 595 153 628 206 q 503 70 563 100 q 364 40 443 40 q 0 331 129 40 l 72 392 q 199 204 126 271 q 363 136 272 138 q 472 177 431 138 q 513 279 513 217 q 488 369 513 329 q 417 446 464 410 q 281 424 353 428 l 256 519 q 434 565 376 525 q 492 682 492 604 q 453 783 492 742 q 351 824 414 824 q 164 746 263 824 l 113 833 q 350 919 225 919 q 476 891 418 919 q 570 806 535 863 q 606 669 606 750 q 510 489 606 556 q 588 462 542 474 q 676 450 635 450 q 821 493 765 450 l 821 803 l 639 803 l 639 899 l 1236 899 l 1236 1265 l 1354 1265 l 1354 899 l 1507 899 l 1507 803 z "},"ॶ":{"ha":1088,"x_min":0,"x_max":1197,"o":"m 0 0 m 1088 803 l 936 803 l 936 0 l 821 0 l 821 389 q 755 364 794 375 q 676 353 715 353 q 610 360 644 353 q 628 269 628 315 q 595 153 628 206 q 503 70 563 100 q 364 40 443 40 q 0 331 129 40 l 72 392 q 199 204 126 271 q 363 136 272 138 q 472 177 431 138 q 513 279 513 217 q 488 369 513 329 q 417 446 464 410 q 281 424 353 428 l 256 519 q 434 565 376 525 q 492 682 492 604 q 453 783 492 742 q 351 824 414 824 q 164 746 263 824 l 113 833 q 350 919 225 919 q 476 891 418 919 q 570 806 535 863 q 606 669 606 750 q 510 489 606 556 q 588 462 542 474 q 676 450 635 450 q 821 493 765 450 l 821 803 l 639 803 l 639 899 l 1088 899 l 1088 803 m 878 -306 q 689 -253 775 -306 q 557 -117 603 -200 l 636 -64 q 735 -169 675 -128 q 878 -210 796 -210 q 1020 -169 960 -210 q 1119 -64 1081 -128 l 1197 -117 q 1066 -253 1151 -200 q 878 -306 981 -306 z "},"ॷ":{"ha":1088,"x_min":0,"x_max":1197,"o":"m 0 0 m 1088 803 l 936 803 l 936 0 l 821 0 l 821 389 q 755 364 794 375 q 676 353 715 353 q 610 360 644 353 q 628 269 628 315 q 595 153 628 206 q 503 70 563 100 q 364 40 443 40 q 0 331 129 40 l 72 392 q 199 204 126 271 q 363 136 272 138 q 472 177 431 138 q 513 279 513 217 q 488 369 513 329 q 417 446 464 410 q 281 424 353 428 l 256 519 q 434 565 376 525 q 492 682 492 604 q 453 783 492 742 q 351 824 414 824 q 164 746 263 824 l 113 833 q 350 919 225 919 q 476 891 418 919 q 570 806 535 863 q 606 669 606 750 q 510 489 606 556 q 588 462 542 474 q 676 450 635 450 q 821 493 765 450 l 821 803 l 639 803 l 639 899 l 1088 899 l 1088 803 m 878 -306 q 689 -253 775 -306 q 557 -117 603 -200 l 636 -64 q 735 -169 675 -128 q 878 -210 796 -210 q 1020 -169 960 -210 q 1119 -64 1081 -128 l 1197 -117 q 1066 -253 1151 -200 q 878 -306 981 -306 m 878 -565 q 689 -513 775 -565 q 557 -378 603 -461 l 636 -325 q 735 -430 675 -389 q 878 -471 796 -471 q 1020 -430 960 -471 q 1119 -325 1081 -389 l 1197 -378 q 1066 -513 1151 -461 q 878 -565 981 -565 z "},"ा":{"ha":419,"x_min":-28,"x_max":419,"o":"m 419 803 l 267 803 l 267 0 l 151 0 l 151 803 l -28 803 l -28 899 l 419 899 l 419 803 z "},"ि":{"ha":419,"x_min":-28,"x_max":1019,"o":"m 353 1268 q 223 1226 274 1268 q 172 1110 172 1185 q 192 1001 172 1056 q 249 899 213 946 l 419 899 l 419 803 l 267 803 l 267 0 l 151 0 l 151 803 l -28 803 l -28 899 l 139 899 q 80 1009 103 951 q 57 1122 57 1067 q 92 1249 57 1193 q 191 1335 126 1304 q 342 1367 256 1367 q 587 1313 467 1367 q 801 1190 707 1260 q 1019 1014 896 1119 l 964 947 q 638 1183 783 1097 q 353 1268 492 1268 z "},"ी":{"ha":419,"x_min":-376,"x_max":419,"o":"m 419 803 l 267 803 l 267 0 l 151 0 l 151 803 l -28 803 l -28 899 l 142 899 q 5 1166 76 1067 q -150 1265 -67 1265 q -235 1235 -204 1265 q -265 1156 -265 1204 q -242 1066 -265 1110 q -189 992 -218 1022 l -258 946 q -342 1047 -307 989 q -376 1172 -376 1106 q -350 1267 -376 1224 q -276 1335 -324 1310 q -167 1361 -228 1361 q 6 1299 -69 1361 q 138 1137 82 1236 q 249 899 194 1038 l 419 899 l 419 803 z "},"ॉ":{"ha":419,"x_min":-94,"x_max":513,"o":"m 0 0 m 419 803 l 267 803 l 267 0 l 151 0 l 151 803 l -28 803 l -28 899 l 419 899 l 419 803 m 210 1018 q 31 1069 110 1018 q -94 1200 -49 1119 l -19 1254 q 210 1113 68 1113 q 439 1254 351 1113 l 513 1200 q 388 1069 467 1119 q 210 1018 310 1018 z "},"ॊ":{"ha":419,"x_min":-468,"x_max":419,"o":"m 419 803 l 267 803 l 267 0 l 151 0 l 151 803 l -28 803 l -28 899 l 161 899 q 165 944 165 919 q 131 1042 165 1003 q 17 1082 97 1082 q -133 1074 -33 1082 q -275 1065 -231 1065 q -417 1104 -367 1065 q -468 1217 -468 1143 q -457 1285 -468 1250 q -428 1344 -446 1319 l -326 1318 q -354 1232 -354 1275 q -334 1179 -354 1196 q -265 1163 -314 1163 q -124 1171 -218 1163 q 17 1179 -26 1179 q 212 1114 144 1179 q 279 943 279 1049 q 275 899 279 922 l 419 899 l 419 803 z "},"ो":{"ha":419,"x_min":-250,"x_max":419,"o":"m 419 803 l 267 803 l 267 0 l 151 0 l 151 803 l -28 803 l -28 899 l 142 899 l 92 1007 q 22 1147 51 1096 q -44 1225 -8 1197 q -128 1253 -81 1253 q -229 1233 -182 1253 l -250 1325 q -129 1353 -197 1353 q -6 1319 -58 1353 q 92 1217 47 1285 q 192 1029 136 1149 l 254 899 l 419 899 l 419 803 z "},"ौ":{"ha":419,"x_min":-244,"x_max":419,"o":"m 419 803 l 267 803 l 267 0 l 151 0 l 151 803 l -28 803 l -28 899 l 94 899 l 49 976 q -31 1072 10 1043 q -121 1101 -71 1101 q -173 1097 -150 1101 q -224 1081 -196 1093 l -244 1172 q -122 1201 -187 1201 q 21 1147 -44 1201 q 136 1001 86 1092 l 175 932 l 142 1015 q 49 1222 83 1154 q -26 1327 14 1290 q -121 1364 -65 1364 q -214 1344 -169 1364 l -235 1436 q -114 1464 -183 1464 q 19 1420 -37 1464 q 124 1285 75 1376 q 235 1029 172 1193 l 285 899 l 419 899 l 419 803 z "},"ऻ":{"ha":419,"x_min":-28,"x_max":419,"o":"m 419 803 l 267 803 l 267 0 l 151 0 l 151 803 l -28 803 l -28 899 l 153 899 l 153 1265 l 271 1265 l 271 899 l 419 899 l 419 803 z "},"क":{"ha":1172,"x_min":-28,"x_max":1172,"o":"m 661 803 l 661 503 q 774 587 718 556 q 890 618 829 618 q 1010 588 960 618 q 1088 506 1061 557 q 1114 392 1114 454 q 1074 232 1114 303 q 963 100 1035 161 l 868 171 q 965 277 931 224 q 999 390 999 331 q 968 487 999 453 q 888 521 938 521 q 778 482 832 521 q 661 372 725 443 l 661 0 l 546 0 l 546 281 q 429 199 488 231 q 304 168 371 168 q 176 199 231 168 q 92 280 121 229 q 64 390 64 331 q 96 513 64 458 q 183 599 128 568 q 306 631 239 631 q 546 524 433 631 l 546 803 l -28 803 l -28 899 l 1172 899 l 1172 803 l 661 803 m 311 265 q 427 303 367 265 q 546 401 488 340 l 546 403 q 440 497 497 463 q 324 532 383 532 q 221 492 263 532 q 179 393 179 453 q 216 301 179 338 q 311 265 253 265 z "},"ख":{"ha":1156,"x_min":-28,"x_max":1156,"o":"m 1156 803 l 1006 803 l 1006 -15 l 890 -15 l 890 139 q 726 48 819 81 q 540 15 633 15 q 292 81 397 15 q 133 267 188 146 q 82 547 79 388 l 186 558 q 188 488 186 510 q 224 475 204 475 q 274 501 254 475 q 294 583 294 526 q 282 691 294 629 q 250 803 269 753 l -28 803 l -28 899 l 1156 899 l 1156 803 m 890 803 l 365 803 q 408 576 408 678 q 362 428 408 478 q 250 378 315 378 q 204 386 222 378 q 324 182 236 251 q 540 113 413 113 q 725 149 632 113 q 890 253 818 185 l 890 347 q 788 278 839 304 q 678 253 736 253 q 565 281 613 253 q 493 354 518 308 q 468 451 468 400 q 498 567 468 517 q 576 644 528 617 q 682 672 625 672 q 798 644 742 672 q 890 579 854 617 l 890 803 m 889 461 q 800 549 850 517 q 692 581 750 581 q 609 545 642 581 q 576 457 576 510 q 608 376 576 408 q 688 343 639 343 q 789 376 735 343 q 889 461 843 410 z "},"ग":{"ha":868,"x_min":-28,"x_max":868,"o":"m 868 803 l 715 803 l 715 0 l 601 0 l 601 803 l 331 803 l 331 401 q 303 301 331 336 q 226 265 275 265 q 134 303 171 265 q 97 401 97 342 q 107 460 97 431 l 215 460 l 215 803 l -28 803 l -28 899 l 868 899 l 868 803 z "},"घ":{"ha":954,"x_min":-28,"x_max":954,"o":"m 954 803 l 801 803 l 801 0 l 688 0 l 688 269 q 435 172 565 172 q 260 234 328 172 q 193 397 193 296 q 210 475 193 439 q 256 538 226 511 q 133 630 171 582 q 94 735 94 678 q 106 803 94 769 l -28 803 l -28 899 l 954 899 l 954 803 m 688 803 l 236 803 q 211 728 211 774 q 239 656 211 689 q 340 589 267 624 q 422 603 378 603 q 508 588 475 603 l 496 499 q 435 507 465 507 q 342 475 376 507 q 308 392 308 443 q 344 299 308 329 q 433 268 381 268 q 561 299 500 268 q 688 389 622 331 l 688 803 z "},"ङ":{"ha":994,"x_min":-28,"x_max":994,"o":"m 994 803 l 651 803 l 651 558 l 333 558 q 272 538 293 558 q 250 482 250 518 q 283 415 250 439 q 388 390 317 390 q 521 403 453 390 q 644 443 589 415 q 725 352 692 408 q 758 236 758 296 q 676 70 758 133 q 447 7 594 7 q 231 61 331 7 q 50 215 131 115 l 111 286 q 263 151 179 200 q 439 103 346 103 q 591 139 539 103 q 643 232 643 175 q 601 328 643 281 q 390 294 501 294 q 197 348 260 294 q 135 486 135 401 q 184 606 135 558 q 324 654 233 654 l 538 654 l 538 803 l -28 803 l -28 899 l 994 899 l 994 803 m 882 568 q 946 542 919 568 q 972 478 972 515 q 946 415 972 442 q 882 389 919 389 q 819 415 846 389 q 793 478 793 442 q 819 542 793 515 q 882 568 846 568 z "},"च":{"ha":919,"x_min":-28,"x_max":919,"o":"m 919 803 l 767 803 l 767 0 l 651 0 l 651 275 q 522 186 590 219 q 385 153 454 153 q 216 210 279 153 q 153 356 153 267 q 246 522 153 457 l 53 522 l 53 618 l 485 618 l 485 531 l 486 529 q 331 470 393 517 q 268 356 268 424 q 298 278 268 307 q 383 249 328 249 q 516 289 447 249 q 651 396 585 329 l 651 803 l -28 803 l -28 899 l 919 899 l 919 803 z "},"छ":{"ha":1060,"x_min":-28,"x_max":1060,"o":"m 776 803 l 776 658 q 895 576 850 638 q 940 419 940 514 q 894 258 940 338 q 992 170 957 218 q 1026 56 1026 122 q 915 -214 1026 -72 l 813 -153 q 890 -48 860 -103 q 919 60 919 7 q 899 123 919 94 q 839 179 878 151 q 647 35 761 90 q 414 -19 532 -19 q 224 41 294 -19 q 153 203 153 101 q 192 319 153 267 q 94 397 128 356 q 61 492 61 438 q 119 618 61 569 q 274 667 176 667 q 385 646 339 667 l 369 553 q 282 569 332 569 q 205 547 233 569 q 176 483 176 524 q 195 427 176 453 q 260 376 214 401 q 381 408 315 408 q 467 393 433 408 l 454 303 q 389 311 429 311 q 301 280 333 311 q 268 200 268 249 q 307 108 268 138 q 408 78 346 78 q 593 122 504 78 q 743 236 682 165 q 622 308 668 276 q 544 385 576 339 q 513 494 513 432 q 553 610 513 567 q 661 665 594 654 l 661 803 l -28 803 l -28 899 l 1060 899 l 1060 803 l 776 803 m 825 425 q 792 535 825 497 q 710 572 760 572 q 652 551 676 572 q 628 488 628 531 q 669 396 628 432 q 796 314 711 360 q 825 425 825 368 z "},"ज":{"ha":1025,"x_min":-28,"x_max":1025,"o":"m 1025 803 l 874 803 l 874 0 l 758 0 l 758 511 l 503 511 q 599 417 565 467 q 633 308 633 368 q 606 211 633 253 q 531 147 578 169 q 431 124 485 124 q 186 237 279 124 q 29 569 93 350 l 121 604 q 249 319 175 418 q 410 219 322 219 q 490 246 463 219 q 518 317 518 272 q 471 425 518 375 q 328 539 424 475 l 357 607 l 758 607 l 758 803 l -28 803 l -28 899 l 1025 899 l 1025 803 z "},"झ":{"ha":1085,"x_min":-28,"x_max":1085,"o":"m 1085 803 l 933 803 l 933 0 l 818 0 l 818 311 q 756 290 792 299 q 682 281 719 281 q 628 285 653 281 q 629 263 629 278 q 551 103 629 167 q 357 28 474 39 l 488 -167 l 389 -222 l 247 32 q 133 74 176 43 q 90 146 90 104 q 124 212 90 186 q 217 239 157 238 l 293 125 q 314 124 300 124 q 418 142 372 124 q 489 193 464 161 q 514 263 514 225 q 504 308 514 285 q 479 349 494 331 q 315 318 397 318 q 144 372 203 318 q 86 510 86 426 q 133 632 86 583 q 267 681 181 681 l 433 681 l 433 803 l -28 803 l -28 899 l 1085 899 l 1085 803 m 818 803 l 546 803 l 546 585 l 276 585 q 220 563 240 585 q 200 504 200 542 q 230 438 200 463 q 313 414 260 414 q 420 428 363 414 q 524 467 478 442 q 590 390 564 436 q 682 378 635 378 q 818 415 763 378 l 818 803 z "},"ञ":{"ha":1015,"x_min":-28,"x_max":1015,"o":"m 1015 803 l 864 803 l 864 0 l 749 0 l 749 360 q 651 344 696 344 q 621 346 631 344 q 535 233 600 275 q 376 192 471 192 q 186 258 272 192 q 7 457 100 324 l 78 510 q 224 342 156 397 q 368 288 292 288 q 476 322 438 288 q 514 410 514 357 q 483 499 514 464 q 403 533 453 533 q 340 519 367 533 q 279 478 314 506 l 218 554 q 306 610 260 590 q 410 631 353 631 q 554 582 492 631 q 628 443 617 533 q 651 442 636 442 q 749 458 707 442 l 749 803 l -28 803 l -28 899 l 1015 899 l 1015 803 z "},"ट":{"ha":757,"x_min":-28,"x_max":757,"o":"m 557 547 q 294 481 385 533 q 203 340 203 429 q 256 215 203 260 q 401 168 308 169 q 676 247 533 168 l 719 161 q 401 72 567 72 q 174 144 258 72 q 89 340 89 215 q 181 532 89 458 q 443 632 274 606 l 443 803 l -28 803 l -28 899 l 757 899 l 757 803 l 557 803 l 557 547 z "},"ठ":{"ha":821,"x_min":-28,"x_max":822,"o":"m 822 803 l 556 803 q 578 718 578 761 q 557 618 578 668 q 683 492 635 563 q 731 342 731 421 q 688 197 731 263 q 571 93 646 131 q 404 56 496 56 q 242 90 314 56 q 130 187 171 124 q 89 335 89 250 q 186 541 89 461 q 451 650 283 621 q 464 717 464 682 q 439 803 464 758 l -28 803 l -28 899 l 822 899 l 822 803 m 406 151 q 513 176 464 151 q 590 245 561 201 q 618 342 618 289 q 574 467 618 410 q 482 550 529 525 q 283 480 363 535 q 203 335 203 425 q 262 199 203 246 q 406 151 321 151 z "},"ड":{"ha":797,"x_min":-28,"x_max":799,"o":"m 333 558 q 272 538 293 558 q 250 482 250 518 q 283 415 250 439 q 388 390 317 390 q 521 403 453 390 q 644 443 589 415 q 725 352 692 408 q 758 236 758 296 q 676 70 758 133 q 447 7 594 7 q 231 61 331 7 q 50 215 131 115 l 111 286 q 263 151 179 200 q 439 103 346 103 q 591 139 539 103 q 643 232 643 175 q 601 328 643 281 q 390 294 501 294 q 197 348 260 294 q 135 486 135 401 q 184 606 135 558 q 324 654 233 654 l 538 654 l 538 803 l -28 803 l -28 899 l 799 899 l 799 803 l 651 803 l 651 558 l 333 558 z "},"ढ":{"ha":776,"x_min":-28,"x_max":776,"o":"m 382 556 q 233 511 282 556 q 185 396 185 467 q 236 224 185 296 q 361 119 288 153 q 325 236 325 169 q 378 367 325 317 q 510 417 432 417 q 649 363 593 417 q 704 225 704 310 q 669 107 704 156 q 576 34 633 58 q 456 10 519 10 q 273 60 363 10 q 126 199 183 110 q 69 399 69 288 q 144 582 69 513 q 369 651 219 651 l 481 651 l 481 803 l -28 803 l -28 899 l 776 899 l 776 803 l 594 803 l 594 556 l 382 556 m 514 325 q 452 298 476 325 q 428 224 428 271 q 438 158 428 190 q 468 101 449 125 q 567 140 532 107 q 601 225 601 174 q 576 299 601 272 q 514 325 551 325 z "},"ण":{"ha":1053,"x_min":-28,"x_max":1053,"o":"m 1053 803 l 901 803 l 901 0 l 786 0 l 786 803 l 578 803 l 578 471 q 513 308 578 367 q 349 250 449 250 q 184 308 249 250 q 119 471 119 367 l 119 803 l -28 803 l -28 899 l 1053 899 l 1053 803 m 463 803 l 235 803 l 235 471 q 265 381 235 414 q 349 347 294 347 q 433 381 403 347 q 463 471 463 414 l 463 803 z "},"त":{"ha":831,"x_min":-28,"x_max":831,"o":"m 831 803 l 679 803 l 679 0 l 565 0 l 565 511 l 339 511 q 238 479 274 511 q 203 388 203 447 q 253 227 203 304 q 400 53 303 150 l 328 -15 q 157 187 226 76 q 88 404 88 297 q 147 551 88 497 q 329 606 206 606 l 565 606 l 565 803 l -28 803 l -28 899 l 831 899 l 831 803 z "},"थ":{"ha":926,"x_min":67,"x_max":925,"o":"m 925 803 l 774 803 l 774 0 l 660 0 l 660 286 q 543 213 608 242 q 406 183 478 183 q 209 250 289 183 q 100 439 129 317 q 290 542 228 476 q 124 612 182 553 q 67 753 67 671 q 119 874 67 828 q 254 921 172 921 q 408 858 349 921 q 468 686 468 796 q 407 515 468 596 q 233 385 346 435 q 299 308 256 335 q 406 281 343 281 q 539 315 471 281 q 660 407 607 350 l 660 803 l 511 803 l 511 899 l 925 899 l 925 803 m 182 746 q 218 665 182 700 q 343 626 254 631 q 353 694 353 657 q 328 788 353 751 q 261 825 304 825 q 205 803 228 825 q 182 746 182 782 z "},"द":{"ha":790,"x_min":-28,"x_max":790,"o":"m 394 556 q 251 511 296 556 q 206 394 206 467 q 238 278 206 326 q 319 205 269 229 q 425 181 369 181 q 494 188 457 181 l 447 292 q 499 340 468 321 q 563 360 531 360 q 638 329 610 360 q 665 256 665 299 q 617 147 665 193 l 739 -72 l 639 -125 l 535 101 q 422 83 486 83 q 261 121 338 83 q 138 229 185 158 q 90 394 90 300 q 163 583 90 514 q 383 651 236 651 l 475 651 l 475 803 l -28 803 l -28 899 l 790 899 l 790 803 l 589 803 l 589 556 l 394 556 z "},"ध":{"ha":917,"x_min":72,"x_max":918,"o":"m 918 803 l 765 803 l 765 0 l 651 0 l 651 271 q 397 172 526 172 q 223 234 290 172 q 156 397 156 296 q 173 478 156 440 q 222 542 190 515 q 72 768 72 646 q 124 888 72 838 q 257 938 175 938 q 360 910 319 938 q 421 836 401 882 l 356 775 q 269 842 332 842 q 209 819 231 842 q 188 761 188 796 q 217 677 188 721 q 313 592 247 633 q 385 603 350 603 q 471 588 438 603 l 458 499 q 397 507 428 507 q 305 475 339 507 q 271 392 271 443 q 307 299 271 329 q 396 268 343 268 q 525 300 463 268 q 651 390 588 332 l 651 803 l 510 803 l 510 899 l 918 899 l 918 803 z "},"न":{"ha":815,"x_min":-28,"x_max":815,"o":"m 815 803 l 663 803 l 663 0 l 549 0 l 549 439 l 250 439 l 250 331 q 189 319 217 319 q 97 353 133 319 q 60 436 60 388 q 192 535 60 535 l 549 535 l 549 803 l -28 803 l -28 899 l 815 899 l 815 803 z "},"ऩ":{"ha":815,"x_min":-28,"x_max":815,"o":"m 0 0 m 815 803 l 663 803 l 663 0 l 549 0 l 549 439 l 250 439 l 250 331 q 189 319 217 319 q 97 353 133 319 q 60 436 60 388 q 192 535 60 535 l 549 535 l 549 803 l -28 803 l -28 899 l 815 899 l 815 803 m 207 67 q 233 131 207 104 q 296 157 260 157 q 360 131 333 157 q 386 67 386 104 q 360 4 386 31 q 296 -22 333 -22 q 233 4 260 -22 q 207 67 207 31 z "},"प":{"ha":788,"x_min":-28,"x_max":788,"o":"m 788 803 l 636 803 l 636 0 l 521 0 l 521 314 q 344 254 438 254 q 178 314 235 254 q 121 488 121 374 l 121 803 l -28 803 l -28 899 l 788 899 l 788 803 m 521 803 l 236 803 l 236 485 q 267 385 236 418 q 350 353 297 353 q 441 370 400 353 q 521 421 482 388 l 521 803 z "},"फ":{"ha":1136,"x_min":-28,"x_max":1138,"o":"m 636 515 q 741 590 689 563 q 850 617 793 617 q 970 586 919 617 q 1047 504 1021 556 q 1074 390 1074 453 q 1034 231 1074 301 q 922 99 994 160 l 828 169 q 924 276 890 222 q 958 390 958 331 q 928 484 958 449 q 847 519 899 519 q 747 487 799 519 q 636 397 696 454 l 636 0 l 521 0 l 521 314 q 344 254 438 254 q 178 314 235 254 q 121 488 121 374 l 121 803 l -28 803 l -28 899 l 1138 899 l 1138 803 l 636 803 l 636 515 m 521 803 l 236 803 l 236 485 q 267 385 236 418 q 350 353 297 353 q 441 370 400 353 q 521 421 482 388 l 521 803 z "},"ब":{"ha":881,"x_min":-28,"x_max":886,"o":"m 886 803 l 735 803 l 735 0 l 619 0 l 619 272 q 485 177 551 213 q 339 142 418 142 q 194 176 256 142 q 102 266 133 210 q 71 389 71 322 q 107 526 71 465 q 206 622 143 588 q 346 657 269 657 q 499 619 428 657 q 619 526 569 581 l 619 803 l -28 803 l -28 899 l 886 899 l 886 803 m 492 290 q 619 397 561 335 l 619 401 q 497 515 564 472 q 358 558 429 558 q 318 554 338 558 l 492 290 m 186 393 q 228 282 186 326 q 342 238 271 238 q 431 257 385 238 l 254 526 q 204 469 222 504 q 186 393 186 435 z "},"भ":{"ha":1006,"x_min":64,"x_max":1006,"o":"m 1006 803 l 853 803 l 853 0 l 738 0 l 738 324 l 449 324 l 449 222 q 372 208 411 208 q 267 244 310 208 q 225 328 225 279 q 253 392 225 368 q 333 419 281 417 l 333 518 q 129 598 194 536 q 64 747 64 660 q 116 872 64 822 q 253 921 168 921 q 396 866 343 921 q 449 697 449 811 l 449 419 l 738 419 l 738 803 l 522 803 l 522 899 l 1006 899 l 1006 803 m 179 740 q 218 655 179 690 q 333 607 257 619 l 333 706 q 312 794 333 764 q 253 825 290 825 q 200 801 221 825 q 179 740 179 778 z "},"म":{"ha":860,"x_min":-28,"x_max":860,"o":"m 860 803 l 708 803 l 708 0 l 593 0 l 593 351 l 283 351 l 283 250 q 207 236 246 236 q 102 272 144 236 q 60 356 60 307 q 88 420 60 396 q 168 447 115 444 l 168 803 l -28 803 l -28 899 l 860 899 l 860 803 m 593 803 l 283 803 l 283 447 l 593 447 l 593 803 z "},"य":{"ha":856,"x_min":-28,"x_max":856,"o":"m 856 803 l 703 803 l 703 0 l 589 0 l 589 286 q 476 212 539 240 q 344 183 414 183 q 144 257 226 183 q 33 463 61 331 q 199 538 149 496 q 250 639 250 581 q 219 727 250 688 q 129 803 189 767 l -28 803 l -28 899 l 856 899 l 856 803 m 589 803 l 275 803 q 364 636 364 733 q 313 505 364 567 q 164 403 263 443 q 233 313 188 346 q 344 281 279 281 q 472 315 407 281 q 589 407 538 350 l 589 803 z "},"र":{"ha":554,"x_min":-28,"x_max":554,"o":"m 554 803 l 367 803 q 428 568 428 685 q 400 456 428 501 q 331 390 372 411 q 246 368 289 368 q 203 375 224 368 q 286 256 224 322 l 494 36 l 422 -35 l 238 163 q 133 291 168 235 q 86 401 99 347 q 72 536 74 456 l 178 549 q 181 478 178 519 q 224 465 197 465 q 285 492 256 465 q 314 575 314 519 q 297 690 314 629 q 251 803 281 751 l -28 803 l -28 899 l 554 899 l 554 803 z "},"ऱ":{"ha":554,"x_min":-28,"x_max":554,"o":"m 0 0 m 554 803 l 367 803 q 428 568 428 685 q 400 456 428 501 q 331 390 372 411 q 246 368 289 368 q 203 375 224 368 q 286 256 224 322 l 494 36 l 422 -35 l 238 163 q 133 291 168 235 q 86 401 99 347 q 72 536 74 456 l 178 549 q 181 478 178 519 q 224 465 197 465 q 285 492 256 465 q 314 575 314 519 q 297 690 314 629 q 251 803 281 751 l -28 803 l -28 899 l 554 899 l 554 803 m 50 -3 q 76 61 50 35 q 139 88 103 88 q 203 61 176 88 q 229 -3 229 35 q 203 -65 229 -39 q 139 -92 176 -92 q 76 -65 103 -92 q 50 -3 50 -39 z "},"ल":{"ha":1031,"x_min":-28,"x_max":1031,"o":"m 1031 803 l 879 803 l 879 0 l 764 0 l 764 488 q 701 503 736 503 q 585 438 628 503 q 536 263 543 374 l 421 283 q 453 428 426 358 q 381 501 417 476 q 301 526 346 526 q 217 490 250 526 q 185 385 185 453 q 241 204 185 288 q 403 32 297 121 l 333 -39 q 139 173 208 67 q 69 397 69 279 q 131 566 69 507 q 293 625 193 625 q 500 508 408 625 q 585 578 536 554 q 689 601 633 601 q 764 588 726 601 l 764 803 l -28 803 l -28 899 l 1031 899 l 1031 803 z "},"ळ":{"ha":1068,"x_min":-28,"x_max":1068,"o":"m 839 803 l 839 656 q 963 567 917 633 q 1010 401 1010 500 q 977 261 1010 321 q 890 170 944 201 q 767 139 835 139 q 633 175 683 139 q 540 272 582 211 q 450 174 500 208 q 332 140 400 140 q 206 172 263 140 q 117 263 150 203 q 85 404 85 324 q 153 597 85 526 q 328 668 221 668 q 462 631 411 668 q 554 533 513 594 q 724 664 625 646 l 724 803 l -28 803 l -28 899 l 1068 899 l 1068 803 l 839 803 m 489 401 q 507 443 500 429 q 433 536 474 501 q 329 571 393 571 q 235 526 271 571 q 200 404 200 481 q 235 283 200 328 q 329 238 271 238 q 420 281 383 238 q 489 401 457 325 m 894 401 q 859 524 894 478 q 765 569 824 569 q 674 526 711 569 q 606 404 638 482 l 588 363 q 661 271 621 306 q 765 236 701 236 q 859 281 824 236 q 894 401 894 326 z "},"ऴ":{"ha":1068,"x_min":-28,"x_max":1068,"o":"m 0 0 m 839 803 l 839 656 q 963 567 917 633 q 1010 401 1010 500 q 977 261 1010 321 q 890 170 944 201 q 767 139 835 139 q 633 175 683 139 q 540 272 582 211 q 450 174 500 208 q 332 140 400 140 q 206 172 263 140 q 117 263 150 203 q 85 404 85 324 q 153 597 85 526 q 328 668 221 668 q 462 631 411 668 q 554 533 513 594 q 724 664 625 646 l 724 803 l -28 803 l -28 899 l 1068 899 l 1068 803 l 839 803 m 489 401 q 507 443 500 429 q 433 536 474 501 q 329 571 393 571 q 235 526 271 571 q 200 404 200 481 q 235 283 200 328 q 329 238 271 238 q 420 281 383 238 q 489 401 457 325 m 894 401 q 859 524 894 478 q 765 569 824 569 q 674 526 711 569 q 606 404 638 482 l 588 363 q 661 271 621 306 q 765 236 701 236 q 859 281 824 236 q 894 401 894 326 m 451 14 q 478 78 451 51 q 540 104 504 104 q 604 78 578 104 q 631 14 631 51 q 604 -49 631 -22 q 540 -75 578 -75 q 478 -49 504 -75 q 451 14 451 -22 z "},"व":{"ha":886,"x_min":-28,"x_max":886,"o":"m 886 803 l 735 803 l 735 0 l 619 0 l 619 272 q 485 177 551 213 q 339 142 418 142 q 194 176 256 142 q 102 266 133 210 q 71 389 71 322 q 107 526 71 465 q 206 622 143 588 q 346 657 269 657 q 499 619 428 657 q 619 526 569 581 l 619 803 l -28 803 l -28 899 l 886 899 l 886 803 m 342 238 q 481 283 407 238 q 619 397 554 328 l 619 401 q 497 515 564 472 q 358 558 429 558 q 235 511 283 558 q 186 393 186 464 q 228 282 186 326 q 342 238 271 238 z "},"श":{"ha":1029,"x_min":-28,"x_max":1029,"o":"m 1029 803 l 876 803 l 876 0 l 763 0 l 763 803 l 539 803 q 596 624 596 733 q 553 465 596 540 q 442 335 510 390 q 301 250 375 279 l 457 8 l 358 -47 l 208 233 q 100 269 140 240 q 60 336 60 297 q 93 403 60 378 q 186 429 126 428 l 246 336 q 333 381 290 351 q 410 449 376 410 q 223 559 289 492 q 157 711 157 626 q 182 803 157 763 l -28 803 l -28 899 l 1029 899 l 1029 803 m 481 632 q 447 753 481 704 q 358 803 413 803 q 298 778 324 803 q 272 707 272 754 q 324 605 272 650 q 460 531 375 560 q 481 632 481 579 z "},"ष":{"ha":814,"x_min":-28,"x_max":814,"o":"m 814 803 l 663 803 l 663 0 l 547 0 l 547 272 q 358 208 446 208 q 181 269 242 208 q 121 446 121 331 l 121 803 l -28 803 l -28 899 l 814 899 l 814 803 m 547 803 l 238 803 l 547 479 l 547 803 m 236 443 q 270 340 236 374 q 364 307 304 307 q 457 326 414 307 q 547 378 500 344 l 236 704 l 236 443 z "},"स":{"ha":944,"x_min":-28,"x_max":946,"o":"m 946 803 l 794 803 l 794 0 l 679 0 l 679 328 q 615 303 653 314 q 536 293 576 293 q 412 313 468 293 q 304 378 356 333 q 246 368 276 368 q 203 375 224 368 q 286 256 224 322 l 494 36 l 422 -35 l 238 163 q 133 291 168 235 q 86 401 99 347 q 72 536 74 456 l 178 549 q 181 478 178 519 q 224 465 197 465 q 285 492 256 465 q 314 575 314 519 q 297 690 314 629 q 251 803 281 751 l -28 803 l -28 899 l 946 899 l 946 803 m 679 803 l 367 803 q 428 568 428 685 q 383 433 428 488 q 456 401 417 413 q 536 390 496 390 q 679 432 622 390 l 679 803 z "},"ह":{"ha":785,"x_min":-28,"x_max":783,"o":"m 293 563 q 228 542 250 563 q 207 483 207 521 q 221 435 207 454 q 264 399 235 415 q 435 444 335 444 q 563 419 506 444 q 654 346 621 393 q 688 239 688 299 q 659 133 688 176 q 586 47 631 89 l 499 110 q 554 170 535 139 q 574 240 574 201 q 535 317 574 285 q 435 350 497 350 q 315 310 358 350 q 272 206 272 271 q 351 46 272 118 q 586 -78 431 -26 l 550 -168 q 260 -9 361 -108 q 158 211 158 90 q 196 332 158 276 q 117 403 143 364 q 92 497 92 443 q 136 613 92 568 q 268 657 181 657 l 494 657 l 494 803 l -28 803 l -28 899 l 783 899 l 783 803 l 608 803 l 608 563 l 293 563 z "},"क़":{"ha":1172,"x_min":-28,"x_max":1172,"o":"m 0 0 m 661 803 l 661 503 q 774 587 718 556 q 890 618 829 618 q 1010 588 960 618 q 1088 506 1061 557 q 1114 392 1114 454 q 1074 232 1114 303 q 963 100 1035 161 l 868 171 q 965 277 931 224 q 999 390 999 331 q 968 487 999 453 q 888 521 938 521 q 778 482 832 521 q 661 372 725 443 l 661 0 l 546 0 l 546 281 q 429 199 488 231 q 304 168 371 168 q 176 199 231 168 q 92 280 121 229 q 64 390 64 331 q 96 513 64 458 q 183 599 128 568 q 306 631 239 631 q 546 524 433 631 l 546 803 l -28 803 l -28 899 l 1172 899 l 1172 803 l 661 803 m 311 265 q 427 303 367 265 q 546 401 488 340 l 546 403 q 440 497 497 463 q 324 532 383 532 q 221 492 263 532 q 179 393 179 453 q 216 301 179 338 q 311 265 253 265 m 163 -22 q 189 42 163 15 q 251 68 215 68 q 315 42 289 68 q 342 -22 342 15 q 315 -85 342 -58 q 251 -111 289 -111 q 189 -85 215 -111 q 163 -22 163 -58 z "},"ख़":{"ha":1156,"x_min":-28,"x_max":1156,"o":"m 0 0 m 1156 803 l 1006 803 l 1006 -15 l 890 -15 l 890 139 q 726 48 819 81 q 540 15 633 15 q 292 81 397 15 q 133 267 188 146 q 82 547 79 388 l 186 558 q 188 488 186 510 q 224 475 204 475 q 274 501 254 475 q 294 583 294 526 q 282 691 294 629 q 250 803 269 753 l -28 803 l -28 899 l 1156 899 l 1156 803 m 890 803 l 365 803 q 408 576 408 678 q 362 428 408 478 q 250 378 315 378 q 204 386 222 378 q 324 182 236 251 q 540 113 413 113 q 725 149 632 113 q 890 253 818 185 l 890 347 q 788 278 839 304 q 678 253 736 253 q 565 281 613 253 q 493 354 518 308 q 468 451 468 400 q 498 567 468 517 q 576 644 528 617 q 682 672 625 672 q 798 644 742 672 q 890 579 854 617 l 890 803 m 889 461 q 800 549 850 517 q 692 581 750 581 q 609 545 642 581 q 576 457 576 510 q 608 376 576 408 q 688 343 639 343 q 789 376 735 343 q 889 461 843 410 m 111 -50 q 138 14 111 -12 q 200 40 164 40 q 264 14 238 40 q 290 -50 290 -12 q 264 -112 290 -86 q 200 -139 238 -139 q 138 -112 164 -139 q 111 -50 111 -86 z "},"ग़":{"ha":868,"x_min":-28,"x_max":868,"o":"m 0 0 m 868 803 l 715 803 l 715 0 l 601 0 l 601 803 l 331 803 l 331 401 q 303 301 331 336 q 226 265 275 265 q 134 303 171 265 q 97 401 97 342 q 107 460 97 431 l 215 460 l 215 803 l -28 803 l -28 899 l 868 899 l 868 803 m 131 57 q 157 121 131 94 q 219 147 183 147 q 283 121 257 147 q 310 57 310 94 q 283 -6 310 21 q 219 -32 257 -32 q 157 -6 183 -32 q 131 57 131 21 z "},"ज़":{"ha":1025,"x_min":-28,"x_max":1025,"o":"m 0 0 m 1025 803 l 874 803 l 874 0 l 758 0 l 758 511 l 503 511 q 599 417 565 467 q 633 308 633 368 q 606 211 633 253 q 531 147 578 169 q 431 124 485 124 q 186 237 279 124 q 29 569 93 350 l 121 604 q 249 319 175 418 q 410 219 322 219 q 490 246 463 219 q 518 317 518 272 q 471 425 518 375 q 328 539 424 475 l 357 607 l 758 607 l 758 803 l -28 803 l -28 899 l 1025 899 l 1025 803 m 94 -11 q 121 53 94 26 q 183 79 147 79 q 247 53 221 79 q 274 -11 274 26 q 247 -74 274 -47 q 183 -100 221 -100 q 121 -74 147 -100 q 94 -11 94 -47 z "},"ड़":{"ha":797,"x_min":-28,"x_max":799,"o":"m 0 0 m 333 558 q 272 538 293 558 q 250 482 250 518 q 283 415 250 439 q 388 390 317 390 q 521 403 453 390 q 644 443 589 415 q 725 352 692 408 q 758 236 758 296 q 676 70 758 133 q 447 7 594 7 q 231 61 331 7 q 50 215 131 115 l 111 286 q 263 151 179 200 q 439 103 346 103 q 591 139 539 103 q 643 232 643 175 q 601 328 643 281 q 390 294 501 294 q 197 348 260 294 q 135 486 135 401 q 184 606 135 558 q 324 654 233 654 l 538 654 l 538 803 l -28 803 l -28 899 l 799 899 l 799 803 l 651 803 l 651 558 l 333 558 m 356 -192 q 382 -128 356 -154 q 444 -101 408 -101 q 508 -128 482 -101 q 535 -192 535 -154 q 508 -254 535 -228 q 444 -281 482 -281 q 382 -254 408 -281 q 356 -192 356 -228 z "},"ढ़":{"ha":776,"x_min":-28,"x_max":776,"o":"m 0 0 m 382 556 q 233 511 282 556 q 185 396 185 467 q 236 224 185 296 q 361 119 288 153 q 325 236 325 169 q 378 367 325 317 q 510 417 432 417 q 649 363 593 417 q 704 225 704 310 q 669 107 704 156 q 576 34 633 58 q 456 10 519 10 q 273 60 363 10 q 126 199 183 110 q 69 399 69 288 q 144 582 69 513 q 369 651 219 651 l 481 651 l 481 803 l -28 803 l -28 899 l 776 899 l 776 803 l 594 803 l 594 556 l 382 556 m 514 325 q 452 298 476 325 q 428 224 428 271 q 438 158 428 190 q 468 101 449 125 q 567 140 532 107 q 601 225 601 174 q 576 299 601 272 q 514 325 551 325 m 343 -181 q 369 -117 343 -143 q 432 -90 396 -90 q 496 -117 469 -90 q 522 -181 522 -143 q 496 -243 522 -217 q 432 -269 469 -269 q 369 -243 396 -269 q 343 -181 343 -217 z "},"फ़":{"ha":1136,"x_min":-28,"x_max":1138,"o":"m 0 0 m 636 515 q 741 590 689 563 q 850 617 793 617 q 970 586 919 617 q 1047 504 1021 556 q 1074 390 1074 453 q 1034 231 1074 301 q 922 99 994 160 l 828 169 q 924 276 890 222 q 958 390 958 331 q 928 484 958 449 q 847 519 899 519 q 747 487 799 519 q 636 397 696 454 l 636 0 l 521 0 l 521 314 q 344 254 438 254 q 178 314 235 254 q 121 488 121 374 l 121 803 l -28 803 l -28 899 l 1138 899 l 1138 803 l 636 803 l 636 515 m 521 803 l 236 803 l 236 485 q 267 385 236 418 q 350 353 297 353 q 441 370 400 353 q 521 421 482 388 l 521 803 m 114 69 q 140 133 114 107 q 203 160 167 160 q 267 133 240 160 q 293 69 293 107 q 267 7 293 33 q 203 -19 240 -19 q 140 7 167 -19 q 114 69 114 33 z "},"य़":{"ha":856,"x_min":-28,"x_max":856,"o":"m 0 0 m 856 803 l 703 803 l 703 0 l 589 0 l 589 286 q 476 212 539 240 q 344 183 414 183 q 144 257 226 183 q 33 463 61 331 q 199 538 149 496 q 250 639 250 581 q 219 727 250 688 q 129 803 189 767 l -28 803 l -28 899 l 856 899 l 856 803 m 589 803 l 275 803 q 364 636 364 733 q 313 505 364 567 q 164 403 263 443 q 233 313 188 346 q 344 281 279 281 q 472 315 407 281 q 589 407 538 350 l 589 803 m 13 67 q 39 131 13 104 q 101 157 65 157 q 165 131 139 157 q 192 67 192 104 q 165 4 192 31 q 101 -22 139 -22 q 39 4 65 -22 q 13 67 13 31 z "},"ॹ":{"ha":1025,"x_min":-28,"x_max":1025,"o":"m 0 0 m 1025 803 l 874 803 l 874 0 l 758 0 l 758 511 l 503 511 q 599 417 565 467 q 633 308 633 368 q 606 211 633 253 q 531 147 578 169 q 431 124 485 124 q 186 237 279 124 q 29 569 93 350 l 121 604 q 249 319 175 418 q 410 219 322 219 q 490 246 463 219 q 518 317 518 272 q 471 425 518 375 q 328 539 424 475 l 357 607 l 758 607 l 758 803 l -28 803 l -28 899 l 1025 899 l 1025 803 m 183 -57 q 210 7 183 -19 q 272 33 236 33 q 336 7 310 33 q 363 -57 363 -19 q 336 -119 363 -93 q 272 -146 310 -146 q 210 -119 236 -146 q 183 -57 183 -93 m 481 -57 q 507 7 481 -19 q 569 33 533 33 q 633 7 607 33 q 660 -57 660 -19 q 633 -119 660 -93 q 569 -146 607 -146 q 507 -119 533 -146 q 481 -57 481 -93 m 332 -233 q 358 -169 332 -196 q 421 -143 385 -143 q 485 -169 458 -143 q 511 -233 511 -196 q 485 -296 511 -269 q 421 -322 458 -322 q 358 -296 385 -322 q 332 -233 332 -269 z "},"ॺ":{"ha":856,"x_min":-28,"x_max":856,"o":"m 856 803 l 703 803 l 703 0 l 589 0 l 589 286 q 476 212 539 240 q 344 183 414 183 q 144 257 226 183 q 33 463 61 331 q 199 538 149 496 q 250 639 250 581 q 219 727 250 688 q 129 803 189 767 l -28 803 l -28 899 l 856 899 l 856 803 m 589 803 l 275 803 q 322 757 306 779 l 589 424 l 589 803 m 164 403 q 233 313 188 346 q 344 281 279 281 q 447 303 394 281 q 546 365 500 326 l 360 597 q 298 488 347 539 q 164 403 249 438 z "},"ॻ":{"ha":868,"x_min":-28,"x_max":868,"o":"m 715 803 l 715 54 l 717 54 l 717 -42 l 121 -42 l 121 54 l 601 54 l 601 803 l 331 803 l 331 401 q 303 301 331 336 q 226 265 275 265 q 134 303 171 265 q 97 401 97 342 q 107 460 97 431 l 215 460 l 215 803 l -28 803 l -28 899 l 868 899 l 868 803 l 715 803 z "},"ॼ":{"ha":1025,"x_min":-28,"x_max":1025,"o":"m 1025 803 l 874 803 l 874 -51 l 58 -51 l 58 43 l 758 43 l 758 511 l 503 511 q 599 417 565 467 q 633 308 633 368 q 606 211 633 253 q 531 147 578 169 q 431 124 485 124 q 186 237 279 124 q 29 569 93 350 l 121 604 q 249 319 175 418 q 410 219 322 219 q 490 246 463 219 q 518 317 518 272 q 471 425 518 375 q 328 539 424 475 l 357 607 l 758 607 l 758 803 l -28 803 l -28 899 l 1025 899 l 1025 803 z "},"ॾ":{"ha":797,"x_min":-28,"x_max":799,"o":"m 333 558 q 272 538 293 558 q 250 482 250 518 q 283 415 250 439 q 388 390 317 390 q 521 403 453 390 q 644 443 589 415 q 725 352 692 408 q 758 236 758 296 q 676 70 758 133 q 447 7 594 7 q 231 61 331 7 q 50 215 131 115 l 111 286 q 263 151 179 200 q 439 103 346 103 q 591 139 539 103 q 643 232 643 175 q 601 328 643 281 q 390 294 501 294 q 197 348 260 294 q 135 486 135 401 q 184 606 135 558 q 324 654 233 654 l 538 654 l 538 803 l -28 803 l -28 899 l 799 899 l 799 803 l 651 803 l 651 558 l 333 558 m 75 -136 l 735 -136 l 735 -232 l 75 -232 l 75 -136 z "},"ॿ":{"ha":890,"x_min":-28,"x_max":886,"o":"m 886 803 l 735 803 l 735 -51 l 114 -51 l 114 43 l 619 43 l 619 272 q 485 177 551 213 q 339 142 418 142 q 194 176 256 142 q 102 266 133 210 q 71 389 71 322 q 107 526 71 465 q 206 622 143 588 q 346 657 269 657 q 499 619 428 657 q 619 526 569 581 l 619 803 l -28 803 l -28 899 l 886 899 l 886 803 m 492 290 q 619 397 561 335 l 619 401 q 497 515 564 472 q 358 558 429 558 q 318 554 338 558 l 492 290 m 186 393 q 228 282 186 326 q 342 238 271 238 q 431 257 385 238 l 254 526 q 204 469 222 504 q 186 393 186 435 z "},"⁄":{"ha":122,"x_min":-256,"x_max":386,"o":"m 386 922 l -169 -39 l -256 13 l 300 974 l 386 922 z "},"½":{"ha":1282,"x_min":92,"x_max":1235,"o":"m 92 0 m 996 922 l 440 -39 l 354 13 l 910 974 l 996 922 m 440 461 l 440 378 l 110 378 l 110 461 l 222 461 l 222 838 l 126 782 l 92 853 l 239 944 l 326 944 l 326 461 l 440 461 m 832 481 q 1026 576 915 576 q 1169 529 1119 576 q 1219 408 1219 482 q 1185 291 1219 347 q 1061 154 1150 235 l 986 85 l 986 83 l 1235 83 l 1235 0 l 847 0 l 847 74 l 990 201 q 1088 313 1060 265 q 1115 403 1115 360 q 1090 470 1115 446 q 1024 494 1065 494 q 949 475 983 494 q 872 414 914 456 l 832 481 z "},"¼":{"ha":1243,"x_min":92,"x_max":1232,"o":"m 92 0 m 996 922 l 440 -39 l 354 13 l 910 974 l 996 922 m 440 461 l 440 378 l 110 378 l 110 461 l 222 461 l 222 838 l 126 782 l 92 853 l 239 944 l 326 944 l 326 461 l 440 461 m 1232 136 l 1142 136 l 1142 -4 l 1038 -4 l 1038 136 l 769 136 l 769 199 l 1036 567 l 1038 567 l 1142 567 l 1142 219 l 1232 219 l 1232 136 m 1038 219 l 1038 314 l 1039 443 l 950 318 l 881 219 l 1038 219 z "},"¾":{"ha":1178,"x_min":35,"x_max":1167,"o":"m 35 0 m 931 922 l 375 -39 l 289 13 l 844 974 l 931 922 m 321 685 q 412 633 375 671 q 449 539 449 596 q 388 413 449 464 q 224 363 328 363 q 120 378 165 363 q 35 432 75 393 l 72 499 q 145 453 110 467 q 225 440 181 440 q 312 469 278 440 q 346 542 346 497 q 317 608 346 583 q 239 633 289 633 q 153 618 194 633 l 139 694 q 238 722 203 710 q 294 757 274 735 q 315 815 315 779 q 294 860 315 843 q 238 876 274 876 q 163 859 201 876 q 89 807 124 842 l 51 865 q 142 931 92 908 q 246 954 193 954 q 371 918 324 954 q 418 821 418 882 q 391 742 418 778 q 321 685 364 707 m 1167 136 l 1076 136 l 1076 -4 l 972 -4 l 972 136 l 704 136 l 704 199 l 971 567 l 972 567 l 1076 567 l 1076 219 l 1167 219 l 1167 136 m 972 219 l 972 314 l 974 443 l 885 318 l 815 219 l 972 219 z "},"¹":{"ha":489,"x_min":92,"x_max":440,"o":"m 440 722 l 440 639 l 110 639 l 110 722 l 222 722 l 222 1099 l 126 1043 l 92 1114 l 239 1206 l 326 1206 l 326 722 l 440 722 z "},"²":{"ha":489,"x_min":39,"x_max":442,"o":"m 39 1119 q 233 1215 122 1215 q 376 1168 326 1215 q 426 1047 426 1121 q 392 930 426 986 q 268 793 357 874 l 193 724 l 193 722 l 442 722 l 442 639 l 54 639 l 54 713 l 197 840 q 294 951 267 904 q 322 1042 322 999 q 297 1109 322 1085 q 231 1133 272 1133 q 156 1114 190 1133 q 79 1053 121 1094 l 39 1119 z "},"³":{"ha":490,"x_min":35,"x_max":449,"o":"m 321 946 q 412 894 375 932 q 449 800 449 857 q 388 674 449 725 q 224 624 328 624 q 120 639 165 624 q 35 693 75 654 l 72 760 q 145 715 110 728 q 225 701 181 701 q 312 730 278 701 q 346 803 346 758 q 317 869 346 844 q 239 894 289 894 q 153 879 194 894 l 139 956 q 238 983 203 971 q 294 1018 274 996 q 315 1076 315 1040 q 294 1121 315 1104 q 238 1138 274 1138 q 163 1120 201 1138 q 89 1068 124 1103 l 51 1126 q 142 1192 92 1169 q 246 1215 193 1215 q 371 1179 324 1215 q 418 1082 418 1143 q 391 1003 418 1039 q 321 946 364 968 z "},"०":{"ha":876,"x_min":144,"x_max":724,"o":"m 435 88 q 277 128 343 88 q 178 237 211 168 q 144 390 144 306 q 178 547 144 478 q 277 658 211 617 q 435 699 343 699 q 592 658 526 699 q 690 547 657 617 q 724 390 724 478 q 690 237 724 306 q 592 128 657 168 q 435 88 526 88 m 435 186 q 560 245 514 186 q 606 390 606 304 q 560 542 606 482 q 435 601 515 601 q 310 542 354 601 q 265 390 265 482 q 310 245 265 304 q 435 186 356 186 z "},"१":{"ha":876,"x_min":192,"x_max":715,"o":"m 624 42 q 695 -47 675 -8 q 715 -124 715 -85 q 701 -194 715 -161 q 654 -261 688 -226 l 551 -208 q 590 -129 590 -167 q 580 -77 590 -101 q 533 -18 569 -53 l 229 288 q 414 465 344 393 q 252 565 313 500 q 192 725 192 631 q 258 885 192 824 q 432 946 324 946 q 557 915 503 946 q 641 832 611 885 q 671 714 671 779 q 635 577 671 644 q 542 445 599 510 q 383 282 485 381 l 624 42 m 307 717 q 353 610 307 656 q 483 544 400 564 q 556 717 556 640 q 522 813 556 776 q 432 849 488 849 q 341 813 375 849 q 307 717 307 776 z "},"२":{"ha":876,"x_min":146,"x_max":721,"o":"m 721 621 q 641 400 721 490 q 428 271 561 310 l 671 -89 l 569 -147 l 326 261 q 215 298 257 269 q 174 365 174 326 q 207 433 174 407 q 299 461 240 460 l 365 364 q 542 458 476 390 q 607 626 607 526 q 553 769 607 713 q 410 826 500 826 q 197 753 322 826 l 146 843 q 410 922 281 922 q 569 885 499 922 q 681 781 640 849 q 721 621 721 713 z "},"३":{"ha":876,"x_min":117,"x_max":782,"o":"m 782 329 q 702 144 782 221 q 479 35 622 67 l 603 -153 l 504 -210 l 376 25 q 269 61 308 32 q 229 131 229 90 q 263 195 229 169 q 356 222 296 221 l 421 124 q 602 199 538 143 q 667 333 667 256 q 621 443 667 401 q 489 485 575 485 q 283 421 397 485 l 233 508 q 482 581 353 579 q 510 689 510 629 q 469 785 510 746 q 353 824 428 824 q 169 756 265 824 l 117 843 q 354 919 231 919 q 548 855 471 919 q 625 676 625 790 q 597 565 625 614 q 733 479 683 540 q 782 329 782 418 z "},"४":{"ha":876,"x_min":33,"x_max":835,"o":"m 524 560 q 665 412 621 485 q 710 261 710 339 q 676 143 710 196 q 582 60 642 90 q 450 29 522 29 q 318 61 378 29 q 224 146 258 93 q 189 261 189 199 q 228 407 189 338 q 358 556 267 476 l 306 593 q 33 800 142 710 l 96 885 q 176 823 143 850 q 233 778 210 796 q 438 622 381 663 q 772 918 543 710 l 835 835 q 524 560 678 692 m 450 126 q 553 165 510 126 q 596 261 596 204 q 560 374 596 321 q 443 492 525 426 q 336 370 368 424 q 304 261 304 317 q 347 165 304 203 q 450 126 389 126 z "},"५":{"ha":876,"x_min":154,"x_max":872,"o":"m 772 -151 l 599 203 q 413 157 514 157 q 226 226 297 157 q 154 415 154 296 q 317 899 154 607 l 424 850 q 308 614 347 715 q 269 415 269 513 q 310 294 269 335 q 415 254 350 254 q 551 297 492 254 l 497 408 q 551 457 519 438 q 617 476 582 476 q 692 445 664 476 q 719 368 719 414 q 671 257 719 310 l 872 -99 l 772 -151 z "},"६":{"ha":876,"x_min":63,"x_max":882,"o":"m 781 -194 l 649 76 q 456 28 560 28 q 303 58 371 28 q 198 146 236 89 q 160 278 160 203 q 228 451 160 375 q 102 565 142 504 q 63 699 63 625 q 93 810 63 758 q 180 894 124 863 q 310 925 236 925 q 465 893 389 925 l 439 800 q 322 828 383 828 q 215 788 253 828 q 178 692 178 749 q 207 600 178 643 q 313 515 236 557 q 560 578 415 569 l 571 483 q 349 422 424 478 q 275 275 275 367 q 326 163 275 201 q 457 125 378 125 q 604 168 546 125 l 550 279 q 602 324 569 306 q 668 343 635 343 q 741 313 714 343 q 768 239 768 283 q 722 132 768 182 l 882 -142 l 781 -194 z "},"७":{"ha":876,"x_min":40,"x_max":843,"o":"m 565 875 q 711 820 649 875 q 808 667 774 765 q 843 442 843 568 q 760 141 843 254 q 528 28 678 28 q 40 886 99 28 l 142 903 q 270 318 169 513 q 528 124 371 124 q 670 201 619 124 q 726 407 721 278 q 614 378 668 378 q 412 450 482 378 q 342 631 342 522 q 369 751 342 696 q 447 841 396 807 q 565 875 497 875 m 608 474 q 726 504 661 474 q 674 706 717 632 q 565 779 631 779 q 488 737 518 779 q 457 631 457 694 q 493 517 457 560 q 608 474 529 474 z "},"८":{"ha":876,"x_min":103,"x_max":785,"o":"m 401 -37 q 183 38 263 -37 q 103 238 103 113 q 154 429 103 333 q 291 622 206 525 q 546 890 376 719 l 590 936 l 669 861 q 410 595 501 696 q 268 406 318 494 q 218 238 218 318 q 265 108 218 157 q 401 58 313 58 q 718 231 567 58 l 785 146 q 401 -37 613 -37 z "},"९":{"ha":876,"x_min":69,"x_max":865,"o":"m 774 42 q 845 -46 825 -7 q 865 -124 865 -85 q 851 -194 865 -161 q 804 -261 838 -226 l 703 -208 q 742 -129 742 -167 q 731 -77 742 -101 q 683 -17 719 -53 l 236 424 q 149 513 181 476 q 93 602 117 549 q 69 724 69 656 q 99 837 69 786 q 183 917 128 888 q 314 946 239 946 q 485 881 422 946 q 547 715 547 817 q 489 567 547 631 q 333 472 431 503 l 335 471 l 774 42 m 185 718 q 203 634 185 674 q 256 553 221 594 q 387 617 342 572 q 432 719 432 661 q 399 813 432 778 q 314 849 367 849 q 219 813 254 849 q 185 718 185 778 z "},"*":{"ha":682,"x_min":49,"x_max":633,"o":"m 392 635 l 558 456 l 463 386 l 340 596 l 219 386 l 124 456 l 289 638 l 49 689 l 85 799 l 308 703 l 283 944 l 399 944 l 376 703 l 597 799 l 633 689 l 392 635 z "},"\\":{"ha":506,"x_min":-10,"x_max":517,"o":"m -10 983 l 118 983 l 517 -328 l 390 -328 l -10 983 z "},"·":{"ha":388,"x_min":110,"x_max":279,"o":"m 194 294 q 135 319 160 294 q 110 379 110 344 q 135 439 110 414 q 194 464 160 464 q 254 439 229 464 q 279 379 279 414 q 254 319 279 344 q 194 294 229 294 z "},"•":{"ha":704,"x_min":190,"x_max":514,"o":"m 351 218 q 238 265 285 218 q 190 379 190 313 q 238 495 190 447 q 351 543 285 543 q 467 495 419 543 q 514 379 514 447 q 467 265 514 313 q 351 218 419 218 z "},":":{"ha":389,"x_min":110,"x_max":279,"o":"m 194 533 q 135 558 160 533 q 110 618 110 583 q 135 678 110 653 q 194 703 160 703 q 254 678 229 703 q 279 618 279 653 q 255 558 279 583 q 194 533 231 533 m 194 -12 q 135 13 160 -12 q 110 72 110 38 q 135 132 110 107 q 194 157 160 157 q 254 132 229 157 q 279 72 279 107 q 255 13 279 38 q 194 -12 231 -12 z "},",":{"ha":389,"x_min":60,"x_max":264,"o":"m 60 -162 q 144 11 144 -106 q 124 136 144 72 l 249 153 q 264 44 264 92 q 221 -113 264 -46 q 103 -219 178 -181 l 60 -162 z "},"…":{"ha":1068,"x_min":110,"x_max":958,"o":"m 194 -12 q 135 13 160 -12 q 110 72 110 38 q 135 132 110 107 q 194 157 160 157 q 254 132 229 157 q 279 72 279 107 q 255 13 279 38 q 194 -12 231 -12 m 535 -12 q 475 13 500 -12 q 450 72 450 38 q 475 132 450 107 q 535 157 500 157 q 594 132 569 157 q 619 72 619 107 q 595 13 619 38 q 535 -12 571 -12 m 874 -12 q 814 13 839 -12 q 789 72 789 38 q 814 132 789 107 q 874 157 839 157 q 933 132 908 157 q 958 72 958 107 q 934 13 958 38 q 874 -12 910 -12 z "},"!":{"ha":388,"x_min":110,"x_max":279,"o":"m 118 944 l 256 944 l 242 267 l 146 267 l 118 944 m 194 -12 q 135 13 160 -12 q 110 72 110 38 q 135 132 110 107 q 194 157 160 157 q 254 132 229 157 q 279 72 279 107 q 255 13 279 38 q 194 -12 231 -12 z "},"¡":{"ha":388,"x_min":108,"x_max":278,"o":"m 108 0 m 269 -190 l 132 -190 l 146 488 l 242 488 l 269 -190 m 193 767 q 253 742 228 767 q 278 682 278 717 q 253 622 278 647 q 193 597 228 597 q 133 622 158 597 q 108 682 108 647 q 133 742 108 717 q 193 767 157 767 z "},"#":{"ha":929,"x_min":32,"x_max":899,"o":"m 721 590 l 647 354 l 796 354 l 765 260 l 618 260 l 539 0 l 429 0 l 508 260 l 289 260 l 210 0 l 100 0 l 179 260 l 32 260 l 61 354 l 208 354 l 282 590 l 135 590 l 164 685 l 311 685 l 390 944 l 500 944 l 421 685 l 640 685 l 719 944 l 829 944 l 750 685 l 899 685 l 869 590 l 721 590 m 611 590 l 392 590 l 318 354 l 538 354 l 611 590 z "},".":{"ha":389,"x_min":110,"x_max":279,"o":"m 194 -12 q 135 13 160 -12 q 110 72 110 38 q 135 132 110 107 q 194 157 160 157 q 254 132 229 157 q 279 72 279 107 q 255 13 279 38 q 194 -12 231 -12 z "},"?":{"ha":643,"x_min":99,"x_max":551,"o":"m 163 499 q 364 566 303 525 q 425 689 425 607 q 355 805 425 760 q 99 850 285 850 l 99 946 q 445 874 339 946 q 551 688 551 801 q 476 518 551 583 q 264 417 400 453 l 258 267 l 172 267 l 163 499 m 215 -12 q 156 13 181 -12 q 131 72 131 38 q 156 132 131 107 q 215 157 181 157 q 275 132 250 157 q 300 72 300 107 q 276 13 300 38 q 215 -12 251 -12 z "},"¿":{"ha":643,"x_min":96,"x_max":549,"o":"m 96 0 m 485 256 q 283 188 344 229 q 222 65 222 147 q 292 -51 222 -6 q 549 -96 363 -96 l 549 -192 q 202 -119 308 -192 q 96 67 96 -47 q 172 236 96 171 q 383 338 247 301 l 389 488 l 475 488 l 485 256 m 432 767 q 492 742 467 767 q 517 682 517 717 q 492 622 517 647 q 432 597 467 597 q 372 622 397 597 q 347 682 347 647 q 372 742 347 717 q 432 767 396 767 z "},"\"":{"ha":664,"x_min":129,"x_max":535,"o":"m 129 642 m 129 1042 l 267 1042 l 250 642 l 156 642 l 129 1042 m 397 1042 l 535 1042 l 518 642 l 424 642 l 397 1042 z "},"'":{"ha":396,"x_min":129,"x_max":267,"o":"m 129 1042 l 267 1042 l 250 642 l 156 642 l 129 1042 z "},";":{"ha":389,"x_min":60,"x_max":279,"o":"m 194 533 q 135 558 160 533 q 110 618 110 583 q 135 678 110 653 q 194 703 160 703 q 254 678 229 703 q 279 618 279 653 q 255 558 279 583 q 194 533 231 533 m 60 -162 q 144 7 144 -106 q 124 126 144 57 l 249 143 q 264 38 264 85 q 222 -115 264 -50 q 103 -219 179 -181 l 60 -162 z "},"/":{"ha":506,"x_min":-10,"x_max":517,"o":"m 389 983 l 517 983 l 117 -328 l -10 -328 l 389 983 z "},"_":{"ha":694,"x_min":0,"x_max":694,"o":"m 0 -253 l 694 -253 l 694 -346 l 0 -346 l 0 -253 z "},"{":{"ha":451,"x_min":19,"x_max":397,"o":"m 397 -181 q 139 15 139 -181 q 151 126 139 57 q 165 251 165 207 q 130 326 165 301 q 19 358 94 350 l 19 442 q 128 474 93 449 q 164 547 164 499 q 150 674 164 590 q 138 785 138 742 q 211 938 138 894 q 397 979 285 981 l 397 892 q 258 799 258 893 q 272 661 258 739 q 285 556 285 601 q 257 458 285 499 q 178 401 229 418 l 178 399 q 258 342 231 382 q 285 243 285 303 q 272 138 285 197 q 258 1 258 63 q 397 -92 258 -92 l 397 -181 z "},"}":{"ha":451,"x_min":54,"x_max":432,"o":"m 54 -92 q 193 1 193 -93 q 179 139 193 61 q 167 244 167 199 q 194 342 167 301 q 274 399 222 382 l 274 401 q 194 458 221 418 q 167 557 167 497 q 179 663 167 603 q 193 799 193 738 q 54 892 193 892 l 54 981 q 314 785 314 981 q 301 674 314 743 q 288 547 288 593 q 322 474 288 499 q 432 442 357 450 l 432 358 q 323 326 358 351 q 288 253 288 301 q 301 125 288 208 q 314 15 314 57 q 240 -137 314 -94 q 54 -179 167 -181 l 54 -92 z "},"[":{"ha":451,"x_min":101,"x_max":350,"o":"m 101 965 l 350 965 l 350 883 l 225 869 l 225 -81 l 350 -94 l 350 -176 l 101 -176 l 101 965 z "},"]":{"ha":451,"x_min":101,"x_max":350,"o":"m 101 -92 l 226 -81 l 226 869 l 101 881 l 101 965 l 350 965 l 350 -176 l 101 -176 l 101 -92 z "},"(":{"ha":432,"x_min":78,"x_max":385,"o":"m 314 -175 q 144 76 211 -75 q 78 408 78 226 q 144 741 78 590 q 314 992 211 892 l 385 933 q 254 707 306 850 q 203 408 203 564 q 254 110 203 251 q 385 -117 306 -32 l 314 -175 z "},")":{"ha":432,"x_min":46,"x_max":353,"o":"m 46 -117 q 178 110 126 -33 q 229 408 229 253 q 178 707 229 565 q 46 933 126 849 l 117 992 q 286 741 219 892 q 353 408 353 590 q 286 76 353 226 q 117 -175 219 -75 l 46 -117 z "},"—":{"ha":1389,"x_min":174,"x_max":1215,"o":"m 174 428 l 1215 428 l 1215 335 l 174 335 l 174 428 z "},"–":{"ha":694,"x_min":0,"x_max":694,"o":"m 0 428 l 694 428 l 694 335 l 0 335 l 0 428 z "},"-":{"ha":368,"x_min":28,"x_max":340,"o":"m 28 428 l 340 428 l 340 335 l 28 335 l 28 428 z "},"­":{"ha":833,"x_min":28,"x_max":340,"o":"m 28 335 m 28 428 l 340 428 l 340 335 l 28 335 l 28 428 z "},"«":{"ha":774,"x_min":60,"x_max":717,"o":"m 60 67 m 60 360 l 315 653 l 399 586 l 200 360 l 399 132 l 315 67 l 60 360 m 378 360 l 633 653 l 717 586 l 518 360 l 717 132 l 633 67 l 378 360 z "},"»":{"ha":774,"x_min":57,"x_max":714,"o":"m 57 67 m 57 133 l 256 360 l 57 588 l 140 653 l 396 360 l 140 67 l 57 133 m 375 133 l 574 360 l 375 588 l 458 653 l 714 360 l 458 67 l 375 133 z "},"‹":{"ha":456,"x_min":60,"x_max":399,"o":"m 60 360 l 315 653 l 399 586 l 200 360 l 399 132 l 315 67 l 60 360 z "},"›":{"ha":456,"x_min":57,"x_max":396,"o":"m 57 133 l 256 360 l 57 588 l 140 653 l 396 360 l 140 67 l 57 133 z "},"„":{"ha":658,"x_min":60,"x_max":533,"o":"m 60 0 m 60 -162 q 144 11 144 -106 q 124 136 144 72 l 249 153 q 264 44 264 92 q 221 -113 264 -46 q 103 -219 178 -181 l 60 -162 m 329 -162 q 414 11 414 -106 q 393 136 414 72 l 518 153 q 533 44 533 92 q 490 -113 533 -46 q 372 -219 447 -181 l 329 -162 z "},"“":{"ha":658,"x_min":124,"x_max":597,"o":"m 124 656 m 139 656 q 124 764 124 717 q 167 922 124 854 q 285 1028 210 989 l 328 971 q 243 796 243 914 q 264 672 243 744 l 139 656 m 408 656 q 393 764 393 717 q 436 922 393 854 q 554 1028 479 989 l 597 971 q 513 796 513 914 q 533 672 513 744 l 408 656 z "},"”":{"ha":658,"x_min":60,"x_max":533,"o":"m 60 656 m 60 714 q 144 889 144 771 q 124 1013 144 940 l 249 1028 q 264 919 264 967 q 221 763 264 831 q 103 656 178 696 l 60 714 m 329 714 q 414 889 414 771 q 393 1013 414 940 l 518 1028 q 533 919 533 967 q 490 763 533 831 q 372 656 447 696 l 329 714 z "},"‘":{"ha":389,"x_min":124,"x_max":328,"o":"m 139 656 q 124 764 124 717 q 167 922 124 854 q 285 1028 210 989 l 328 971 q 243 796 243 914 q 264 672 243 744 l 139 656 z "},"’":{"ha":389,"x_min":60,"x_max":264,"o":"m 60 714 q 144 889 144 771 q 124 1013 144 940 l 249 1028 q 264 919 264 967 q 221 763 264 831 q 103 656 178 696 l 60 714 z "},"‚":{"ha":389,"x_min":60,"x_max":264,"o":"m 60 0 m 60 -162 q 144 11 144 -106 q 124 136 144 72 l 249 153 q 264 44 264 92 q 221 -113 264 -46 q 103 -219 178 -181 l 60 -162 z "},"ॽ":{"ha":781,"x_min":140,"x_max":657,"o":"m 657 644 q 588 463 657 536 q 385 365 518 390 l 385 0 l 269 0 l 269 449 q 543 653 543 474 q 506 776 543 729 q 397 824 468 824 q 294 803 340 824 q 190 742 247 782 l 140 828 q 265 896 206 872 q 394 919 324 919 q 583 847 510 919 q 657 644 657 774 z "},"।":{"ha":529,"x_min":263,"x_max":378,"o":"m 263 899 l 378 899 l 378 0 l 263 0 l 263 899 z "},"॥":{"ha":897,"x_min":263,"x_max":744,"o":"m 263 899 l 378 899 l 378 0 l 263 0 l 263 899 m 629 899 l 744 899 l 744 0 l 629 0 l 629 899 z "},"॰":{"ha":672,"x_min":107,"x_max":563,"o":"m 335 147 q 168 213 229 147 q 107 378 107 278 q 168 548 107 481 q 335 615 229 615 q 501 548 440 615 q 563 378 563 481 q 501 213 563 278 q 335 147 440 147 m 333 243 q 413 282 385 243 q 442 378 442 321 q 414 480 442 440 q 333 519 386 519 q 253 480 282 519 q 225 378 225 440 q 253 282 225 321 q 333 243 282 243 z "},"ॱ":{"ha":439,"x_min":119,"x_max":299,"o":"m 119 758 m 119 849 q 146 911 119 885 q 208 938 172 938 q 272 911 246 938 q 299 849 299 885 q 272 785 299 811 q 208 758 246 758 q 146 785 172 758 q 119 849 119 811 z "}," ":{"ha":1225,"x_min":0,"x_max":0,"o":""}," ":{"ha":1225,"x_min":0,"x_max":0,"o":""}," ":{"ha":1715,"x_min":0,"x_max":0,"o":""}," ":{"ha":735,"x_min":0,"x_max":0,"o":""}," ":{"ha":861,"x_min":0,"x_max":0,"o":""}," ":{"ha":490,"x_min":0,"x_max":0,"o":""}," ":{"ha":343,"x_min":0,"x_max":0,"o":""}," ":{"ha":592,"x_min":0,"x_max":0,"o":""}," ":{"ha":408,"x_min":0,"x_max":0,"o":""}," ":{"ha":347,"x_min":0,"x_max":0,"o":""}," ":{"ha":442,"x_min":0,"x_max":0,"o":""}," ":{"ha":572,"x_min":0,"x_max":0,"o":""},"‍":{"ha":244,"x_min":0,"x_max":0,"o":""},"‌":{"ha":244,"x_min":0,"x_max":0,"o":""},"":{"ha":244,"x_min":0,"x_max":0,"o":""},"¢":{"ha":761,"x_min":53,"x_max":718,"o":"m 718 221 q 612 129 674 167 q 475 81 550 92 l 475 -107 l 361 -107 l 361 82 q 132 209 211 101 q 53 469 53 317 q 131 722 53 615 q 361 853 210 829 l 361 1047 l 475 1047 l 475 857 q 599 822 539 850 q 699 751 660 794 l 654 665 q 572 728 618 703 q 475 760 525 754 l 475 179 q 579 220 532 189 q 671 300 626 251 l 718 221 m 181 471 q 228 281 181 357 q 361 182 275 204 l 361 751 q 228 652 275 726 q 181 471 181 578 z "},"¤":{"ha":761,"x_min":104,"x_max":657,"o":"m 618 381 q 583 247 618 304 l 656 175 l 582 101 l 511 171 q 381 136 454 136 q 250 172 303 136 l 179 101 l 104 175 l 176 247 q 143 378 143 306 q 176 506 143 450 l 104 578 l 179 653 l 249 583 q 381 621 306 621 q 513 583 457 621 l 582 653 l 657 578 l 586 507 q 618 381 618 447 m 242 379 q 281 268 242 313 q 381 224 319 224 q 482 268 443 224 q 521 379 521 313 q 481 490 521 446 q 381 535 442 535 q 281 490 319 535 q 242 379 242 446 z "},"$":{"ha":761,"x_min":58,"x_max":700,"o":"m 700 271 q 631 103 700 169 q 444 21 563 38 l 444 -107 l 331 -107 l 331 18 q 181 44 246 22 q 58 104 115 65 l 103 197 q 331 115 204 125 l 331 443 q 209 494 258 467 q 127 567 160 521 q 94 685 94 614 q 169 853 94 790 q 367 924 244 917 l 367 1047 l 482 1047 l 482 919 q 692 838 599 903 l 647 746 q 482 819 567 804 l 482 508 q 642 419 585 471 q 700 271 700 368 m 219 690 q 258 604 219 636 q 367 547 296 572 l 367 825 q 260 783 301 817 q 219 690 219 749 m 444 122 q 538 174 503 136 q 574 265 574 211 q 540 349 574 317 q 444 406 507 381 l 444 122 z "},"€":{"ha":761,"x_min":51,"x_max":717,"o":"m 511 78 q 601 97 564 78 q 669 151 638 115 l 717 75 q 500 -21 635 -21 q 281 68 363 -21 q 174 321 199 157 l 51 321 l 51 417 l 164 417 q 163 474 163 435 q 164 535 163 515 l 51 535 l 51 629 l 174 629 q 281 876 199 789 q 500 963 364 963 q 717 869 629 963 l 668 790 q 599 846 636 826 q 511 865 563 865 q 301 629 340 865 l 585 629 l 585 535 l 292 535 q 290 472 290 515 q 292 417 290 435 l 585 417 l 585 321 l 300 321 q 511 78 336 78 z "},"ƒ":{"ha":761,"x_min":150,"x_max":661,"o":"m 419 606 l 657 606 l 657 511 l 411 511 l 351 -240 l 229 -240 l 289 511 l 150 511 l 150 606 l 297 606 l 301 661 q 378 903 314 826 q 569 981 442 981 q 661 968 618 981 l 633 878 q 578 885 606 885 q 467 833 500 885 q 424 658 433 781 l 419 606 z "},"₹":{"ha":890,"x_min":201,"x_max":789,"o":"m 510 803 q 575 685 560 749 l 789 685 l 789 589 l 578 589 q 517 463 567 517 q 390 379 468 408 l 708 38 l 632 -33 l 267 361 l 269 424 q 458 589 439 467 l 201 589 l 201 685 l 454 685 q 426 747 446 719 q 372 803 406 775 l 201 803 l 201 899 l 789 899 l 789 803 l 510 803 z "},"£":{"ha":761,"x_min":74,"x_max":682,"o":"m 682 94 l 682 0 l 79 0 l 79 71 q 247 308 247 204 q 217 428 247 367 l 74 428 l 74 522 l 171 522 q 135 700 135 610 q 170 833 135 774 q 272 928 206 893 q 429 963 339 963 q 565 935 507 961 q 671 864 624 910 l 624 786 q 539 843 582 824 q 440 864 496 863 q 307 816 353 864 q 261 694 261 768 q 272 605 261 644 q 304 522 283 565 l 596 522 l 596 428 l 350 428 q 372 308 372 368 q 344 201 372 251 q 257 94 315 151 l 682 94 z "},"¥":{"ha":761,"x_min":56,"x_max":706,"o":"m 481 594 l 665 594 l 665 499 l 443 499 l 443 411 l 665 411 l 665 317 l 443 317 l 443 0 l 318 0 l 318 317 l 94 317 l 94 411 l 318 411 l 318 499 l 94 499 l 94 594 l 278 594 l 56 944 l 193 944 l 382 624 l 572 944 l 706 944 l 481 594 z "},"≈":{"ha":763,"x_min":22,"x_max":742,"o":"m 22 468 q 124 570 71 531 q 251 610 178 610 q 326 596 293 610 q 400 557 360 582 q 462 524 438 535 q 515 514 486 514 q 676 614 606 514 l 742 553 q 640 451 690 489 q 515 414 589 414 q 449 426 478 414 q 374 464 419 439 q 309 499 336 488 q 251 510 282 510 q 162 481 201 510 q 88 406 122 453 l 22 468 m 22 185 q 124 287 71 247 q 251 326 178 326 q 326 313 293 326 q 400 274 360 299 q 462 241 438 251 q 515 231 486 231 q 676 331 606 231 l 742 269 q 640 168 690 206 q 515 131 589 131 q 449 143 478 131 q 374 181 419 156 q 309 215 336 204 q 251 226 282 226 q 162 198 201 226 q 88 122 122 169 l 22 185 z "},"~":{"ha":761,"x_min":22,"x_max":742,"o":"m 22 343 q 124 445 71 406 q 251 485 178 485 q 326 471 293 485 q 400 432 360 457 q 462 399 438 410 q 515 389 486 389 q 676 489 606 389 l 742 428 q 640 326 690 364 q 515 289 589 289 q 449 301 478 289 q 374 339 419 314 q 309 374 336 363 q 251 385 282 385 q 162 356 201 385 q 88 281 122 328 l 22 343 z "},"÷":{"ha":761,"x_min":46,"x_max":717,"o":"m 381 572 q 321 597 346 572 q 296 656 296 621 q 321 717 296 692 q 381 742 346 742 q 440 717 415 742 q 465 656 465 692 q 440 597 465 621 q 381 572 415 572 m 46 432 l 717 432 l 717 339 l 46 339 l 46 432 m 381 31 q 321 56 346 31 q 296 115 296 81 q 321 175 296 150 q 381 200 346 200 q 440 175 415 200 q 465 115 465 150 q 441 56 465 81 q 381 31 417 31 z "},"=":{"ha":761,"x_min":46,"x_max":717,"o":"m 46 575 l 717 575 l 717 482 l 46 482 l 46 575 m 46 289 l 717 289 l 717 196 l 46 196 l 46 289 z "},">":{"ha":761,"x_min":46,"x_max":717,"o":"m 717 426 l 717 339 l 46 38 l 46 140 l 603 383 l 46 626 l 46 729 l 717 426 z "},"≥":{"ha":761,"x_min":46,"x_max":717,"o":"m 717 497 l 717 411 l 46 181 l 46 279 l 592 454 l 46 629 l 46 729 l 717 497 m 46 90 l 717 90 l 717 0 l 46 0 l 46 90 z "},"∆":{"ha":906,"x_min":26,"x_max":879,"o":"m 879 0 l 26 0 l 393 957 l 511 957 l 879 0 m 713 97 l 451 808 l 190 97 l 713 97 z "},"∞":{"ha":774,"x_min":35,"x_max":740,"o":"m 553 572 q 688 522 636 572 q 740 372 740 471 q 686 222 740 274 q 551 171 632 171 q 383 269 440 171 q 313 194 350 218 q 221 171 275 171 q 86 222 138 171 q 35 371 35 272 q 89 521 35 469 q 222 572 143 572 q 385 472 328 572 q 458 548 418 524 q 553 572 497 572 m 221 263 q 290 292 264 263 q 339 382 315 321 q 344 393 342 390 q 292 458 324 435 q 222 481 260 481 q 156 453 183 481 q 128 371 128 426 q 154 290 128 317 q 221 263 181 263 m 551 263 q 619 290 592 263 q 647 372 647 317 q 621 454 647 428 q 553 481 594 481 q 483 453 508 481 q 431 364 457 425 l 425 350 q 478 285 446 308 q 551 263 511 263 z "},"∫":{"ha":761,"x_min":93,"x_max":667,"o":"m 185 -283 q 93 -272 144 -283 l 108 -179 q 172 -186 143 -186 q 283 -135 249 -186 q 318 24 318 -83 l 318 810 q 381 1035 318 957 q 576 1114 444 1114 q 667 1103 618 1114 l 651 1010 q 588 1017 617 1017 q 476 965 511 1017 q 442 807 442 914 l 442 21 q 378 -205 442 -126 q 185 -283 315 -283 z "},"<":{"ha":761,"x_min":46,"x_max":717,"o":"m 717 626 l 160 383 l 717 140 l 717 38 l 46 340 l 46 426 l 717 729 l 717 626 z "},"≤":{"ha":761,"x_min":46,"x_max":717,"o":"m 717 629 l 171 454 l 717 279 l 717 181 l 46 411 l 46 497 l 717 729 l 717 629 m 46 90 l 717 90 l 717 0 l 46 0 l 46 90 z "},"¬":{"ha":761,"x_min":46,"x_max":717,"o":"m 717 339 l 715 339 l 715 49 l 618 49 l 618 339 l 46 339 l 46 432 l 717 432 l 717 339 z "},"−":{"ha":761,"x_min":46,"x_max":717,"o":"m 46 432 l 717 432 l 717 339 l 46 339 l 46 432 z "},"×":{"ha":761,"x_min":110,"x_max":651,"o":"m 585 114 l 379 319 l 175 115 l 110 181 l 314 385 l 111 588 l 176 654 l 381 451 l 585 656 l 650 589 l 446 385 l 651 179 l 585 114 z "},"≠":{"ha":761,"x_min":46,"x_max":717,"o":"m 493 482 l 382 289 l 717 289 l 717 196 l 329 196 l 217 0 l 107 0 l 219 196 l 46 196 l 46 289 l 272 289 l 383 482 l 46 482 l 46 575 l 436 575 l 549 771 l 658 771 l 546 575 l 717 575 l 717 482 l 493 482 z "},"∂":{"ha":761,"x_min":54,"x_max":707,"o":"m 154 963 q 560 748 413 906 q 707 357 707 590 q 666 152 707 238 q 551 23 625 67 q 381 -21 478 -21 q 204 19 278 -21 q 92 127 131 60 q 54 274 54 194 q 90 421 54 353 q 193 530 125 489 q 353 571 261 571 q 465 551 411 571 q 563 497 519 532 q 418 731 528 642 q 126 871 308 821 l 154 963 m 381 76 q 526 146 472 76 q 579 347 579 215 l 579 357 q 361 474 494 474 q 229 417 276 474 q 182 269 182 361 q 233 131 182 186 q 381 76 285 76 z "},"%":{"ha":1218,"x_min":15,"x_max":1204,"o":"m 15 0 m 931 922 l 375 -39 l 289 13 l 844 974 l 931 922 m 244 363 q 74 443 132 363 q 15 658 15 524 q 74 874 15 793 q 244 954 132 954 q 416 874 357 954 q 475 658 475 793 q 416 443 475 524 q 244 363 357 363 m 244 443 q 337 497 307 443 q 367 658 367 550 q 337 820 367 767 q 244 874 307 874 q 124 658 124 874 q 244 443 124 443 m 974 -15 q 803 65 861 -15 q 744 281 744 146 q 803 496 744 415 q 974 576 861 576 q 1145 496 1086 576 q 1204 281 1204 415 q 1145 65 1204 146 q 974 -15 1086 -15 m 974 65 q 1066 119 1036 65 q 1096 281 1096 172 q 1066 442 1096 389 q 974 496 1036 496 q 853 281 853 496 q 974 65 853 65 z "},"‰":{"ha":1744,"x_min":15,"x_max":1731,"o":"m 15 0 m 931 922 l 375 -39 l 289 13 l 844 974 l 931 922 m 244 363 q 74 443 132 363 q 15 658 15 524 q 74 874 15 793 q 244 954 132 954 q 416 874 357 954 q 475 658 475 793 q 416 443 475 524 q 244 363 357 363 m 244 443 q 337 497 307 443 q 367 658 367 550 q 337 820 367 767 q 244 874 307 874 q 124 658 124 874 q 244 443 124 443 m 974 -15 q 803 65 861 -15 q 744 281 744 146 q 803 496 744 415 q 974 576 861 576 q 1145 496 1086 576 q 1204 281 1204 415 q 1145 65 1204 146 q 974 -15 1086 -15 m 974 65 q 1066 119 1036 65 q 1096 281 1096 172 q 1066 442 1096 389 q 974 496 1036 496 q 853 281 853 496 q 974 65 853 65 m 1500 -15 q 1329 65 1388 -15 q 1271 281 1271 146 q 1329 496 1271 415 q 1500 576 1388 576 q 1672 496 1613 576 q 1731 281 1731 415 q 1672 65 1731 146 q 1500 -15 1613 -15 m 1500 65 q 1592 119 1563 65 q 1622 281 1622 172 q 1592 442 1622 389 q 1500 496 1563 496 q 1379 281 1379 496 q 1500 65 1379 65 z "},"+":{"ha":761,"x_min":46,"x_max":717,"o":"m 717 339 l 429 339 l 429 49 l 332 49 l 332 339 l 46 339 l 46 432 l 332 432 l 332 718 l 429 718 l 429 432 l 717 432 l 717 339 z "},"±":{"ha":761,"x_min":46,"x_max":717,"o":"m 717 486 l 717 396 l 429 396 l 429 174 l 332 174 l 332 396 l 46 396 l 46 486 l 332 486 l 332 718 l 429 718 l 429 486 l 717 486 m 46 90 l 717 90 l 717 0 l 46 0 l 46 90 z "},"∏":{"ha":1075,"x_min":154,"x_max":919,"o":"m 919 -326 l 792 -326 l 792 847 l 282 847 l 282 -326 l 154 -326 l 154 944 l 919 944 l 919 -326 z "},"√":{"ha":761,"x_min":43,"x_max":721,"o":"m 721 944 l 438 0 l 328 0 l 158 468 l 43 468 l 43 563 l 242 563 l 379 131 l 603 944 l 721 944 z "},"∑":{"ha":926,"x_min":99,"x_max":854,"o":"m 99 -261 l 511 313 l 113 865 l 113 944 l 842 944 l 842 847 l 267 847 l 654 313 l 260 -235 l 854 -235 l 854 -332 l 99 -332 l 99 -261 z "},"◌":{"ha":1069,"x_min":129,"x_max":940,"o":"m 536 742 q 496 758 513 742 q 479 799 479 775 q 496 838 479 821 q 536 856 513 856 q 576 838 558 856 q 593 799 593 821 q 576 758 593 775 q 536 742 558 742 m 358 697 q 319 714 336 697 q 303 754 303 731 q 319 794 303 778 q 358 811 336 811 q 399 794 382 811 q 415 754 415 778 q 399 715 415 732 q 358 697 382 697 m 708 697 q 669 715 686 697 q 651 754 651 732 q 669 794 651 778 q 708 811 686 811 q 749 794 732 811 q 765 754 765 778 q 749 714 765 731 q 708 697 732 697 m 229 568 q 189 585 206 568 q 172 625 172 601 q 189 665 172 649 q 229 682 206 682 q 269 665 253 682 q 286 625 286 649 q 269 585 286 601 q 229 568 253 568 m 840 568 q 800 585 817 568 q 783 625 783 601 q 801 665 783 649 q 840 682 818 682 q 881 665 864 682 q 897 625 897 649 q 881 585 897 601 q 840 568 864 568 m 186 392 q 146 408 163 392 q 129 449 129 425 q 146 489 129 472 q 186 506 163 506 q 226 489 210 506 q 243 449 243 472 q 226 409 243 426 q 186 392 210 392 m 883 392 q 844 409 861 392 q 828 449 828 426 q 844 489 828 472 q 883 506 861 506 q 924 489 907 506 q 940 449 940 472 q 924 408 940 425 q 883 392 907 392 m 229 217 q 189 233 206 217 q 172 274 172 250 q 189 313 172 297 q 229 329 206 329 q 269 313 253 329 q 286 274 286 296 q 269 234 286 251 q 229 217 253 217 m 840 217 q 801 234 818 217 q 783 274 783 251 q 800 313 783 296 q 840 329 817 329 q 881 313 864 329 q 897 274 897 297 q 881 233 897 250 q 840 217 864 217 m 358 85 q 319 101 336 85 q 303 142 303 118 q 319 181 303 165 q 358 197 336 197 q 399 181 382 197 q 415 142 415 164 q 399 102 415 119 q 358 85 382 85 m 708 85 q 669 102 686 85 q 651 142 651 119 q 668 181 651 164 q 708 197 685 197 q 749 181 732 197 q 765 142 765 165 q 749 101 765 118 q 708 85 732 85 m 536 42 q 496 58 513 42 q 479 99 479 75 q 496 139 479 122 q 536 156 513 156 q 576 139 558 156 q 593 99 593 122 q 576 59 593 76 q 536 42 558 42 z "},"◊":{"ha":761,"x_min":83,"x_max":679,"o":"m 679 472 l 436 0 l 325 0 l 83 472 l 326 944 l 438 944 l 679 472 m 565 472 l 381 833 l 196 472 l 381 111 l 565 472 z "},"|":{"ha":494,"x_min":182,"x_max":310,"o":"m 182 1121 l 310 1121 l 310 -328 l 182 -328 l 182 1121 z "},"¦":{"ha":494,"x_min":182,"x_max":310,"o":"m 182 1121 l 310 1121 l 310 554 l 182 554 l 182 1121 m 182 239 l 310 239 l 310 -328 l 182 -328 l 182 239 z "},"@":{"ha":1182,"x_min":75,"x_max":1107,"o":"m 386 224 q 418 313 386 278 q 513 375 450 349 q 686 431 576 401 l 686 464 q 669 538 686 510 q 604 567 653 567 q 519 547 558 567 q 431 472 481 526 l 388 546 q 490 626 433 596 q 613 656 547 656 q 747 608 707 656 q 788 458 788 560 l 788 224 q 833 179 788 179 q 911 209 874 179 q 974 299 949 239 q 999 449 999 360 q 949 628 999 549 q 812 751 899 707 q 619 794 725 794 q 393 741 492 794 q 239 588 294 688 q 183 353 183 488 q 239 133 183 228 q 388 -13 294 38 q 593 -64 482 -64 q 744 -42 675 -64 q 885 28 814 -19 l 926 -47 q 767 -130 846 -104 q 592 -156 689 -156 q 341 -94 460 -156 q 149 82 222 -33 q 75 354 75 197 q 147 634 75 514 q 342 819 218 754 q 618 885 465 885 q 872 828 761 885 q 1045 673 983 772 q 1107 450 1107 574 q 1066 256 1107 338 q 959 134 1025 175 q 821 93 893 93 q 740 114 774 93 q 694 168 707 135 q 524 93 600 93 q 425 130 464 93 q 386 224 386 167 m 488 231 q 544 181 488 181 q 610 198 576 181 q 686 249 644 215 l 686 351 q 531 293 574 319 q 488 231 488 267 z "},"&":{"ha":1001,"x_min":53,"x_max":961,"o":"m 961 3 q 874 -11 919 -11 q 771 12 814 -11 q 665 100 728 35 l 661 106 q 368 -19 528 -19 q 198 15 269 -19 q 90 106 126 49 q 53 233 53 164 q 106 398 53 328 q 281 528 158 468 q 199 640 222 596 q 175 743 175 685 q 239 899 175 836 q 422 963 303 963 q 553 935 499 963 q 635 863 607 908 q 663 765 663 818 q 613 615 663 678 q 451 500 564 553 l 664 265 q 810 610 750 397 l 924 592 q 735 188 858 349 l 749 172 q 818 108 788 129 q 882 88 849 88 q 939 94 911 88 l 961 3 m 421 865 q 331 831 361 865 q 300 747 300 797 q 319 664 300 700 q 388 571 338 628 q 503 655 469 611 q 538 761 538 699 q 507 835 538 804 q 421 865 476 865 m 376 78 q 594 178 494 78 l 346 456 q 216 354 251 403 q 181 244 181 306 q 232 126 181 175 q 376 78 283 78 z "},"¶":{"ha":825,"x_min":42,"x_max":675,"o":"m 675 -33 q 611 -259 675 -181 q 415 -337 547 -337 q 324 -326 375 -337 l 339 -232 q 403 -239 374 -239 q 514 -187 479 -239 q 549 -31 549 -136 l 549 278 l 414 278 q 138 369 235 278 q 42 613 42 460 q 84 783 42 707 q 210 901 126 858 q 414 944 294 944 l 675 944 l 675 -33 z "},"©":{"ha":1138,"x_min":78,"x_max":1061,"o":"m 568 -21 q 319 46 432 -21 q 142 226 207 113 q 78 476 78 340 q 142 720 78 608 q 319 897 207 832 q 568 963 432 963 q 819 897 706 963 q 997 720 932 832 q 1061 476 1061 608 q 997 226 1061 340 q 819 46 932 113 q 568 -21 706 -21 m 568 60 q 769 115 679 60 q 912 267 860 171 q 964 476 964 363 q 912 681 964 588 q 769 828 860 774 q 568 882 679 882 q 367 828 457 882 q 224 681 276 774 q 172 476 172 588 q 224 267 172 363 q 367 115 276 171 q 568 60 457 60 m 578 219 q 444 254 501 219 q 358 347 388 289 q 329 472 329 406 q 360 596 329 539 q 449 688 390 653 q 586 722 507 722 q 681 705 636 722 q 756 658 725 688 l 715 597 q 661 629 694 617 q 593 642 628 642 q 472 593 518 642 q 425 472 425 544 q 469 348 425 397 q 585 299 514 299 q 663 315 628 299 q 722 358 699 332 l 763 297 q 682 241 729 263 q 578 219 635 219 z "},"®":{"ha":543,"x_min":47,"x_max":497,"o":"m 274 981 q 386 951 335 981 q 467 869 438 921 q 497 756 497 818 q 467 642 497 694 q 386 560 438 590 q 274 531 335 531 q 159 560 211 531 q 77 642 107 590 q 47 756 47 694 q 77 869 47 818 q 159 951 107 921 q 274 981 211 981 m 271 582 q 392 633 342 582 q 443 756 443 683 q 420 844 443 804 q 358 908 397 885 q 271 932 318 932 q 186 908 225 932 q 124 844 147 885 q 101 756 101 804 q 151 633 101 683 q 271 582 201 582 m 360 789 q 325 729 360 746 l 378 656 l 314 656 l 271 719 l 244 719 l 244 656 l 190 656 l 190 858 l 278 858 q 338 840 317 858 q 360 789 360 821 m 244 763 l 275 763 q 304 790 304 763 q 297 808 304 801 q 275 815 289 815 l 244 815 l 244 763 z "},"§":{"ha":838,"x_min":154,"x_max":707,"o":"m 596 192 q 685 32 685 133 q 607 -139 685 -79 q 400 -199 529 -199 q 154 -129 261 -199 l 192 -39 q 400 -104 290 -104 q 517 -72 471 -104 q 563 26 563 -39 q 521 103 563 75 q 393 161 479 131 q 274 210 319 188 q 196 274 228 233 q 164 378 164 315 q 285 574 164 494 q 188 736 188 631 q 260 894 188 839 q 449 949 332 949 q 685 881 582 949 l 647 790 q 450 854 557 854 q 348 827 388 854 q 308 746 308 800 q 349 668 308 696 q 475 610 390 640 q 596 558 550 582 q 674 491 642 535 q 707 381 707 447 q 596 192 707 269 m 286 388 q 308 329 286 353 q 361 290 329 306 q 451 254 393 275 l 488 242 q 586 376 586 297 q 544 455 586 426 q 417 514 503 483 q 402 520 410 518 q 389 525 394 522 q 286 388 286 472 z "},"™":{"ha":1061,"x_min":56,"x_max":894,"o":"m 394 888 l 272 888 l 272 533 l 179 533 l 179 888 l 56 888 l 56 953 l 394 953 l 394 888 m 894 953 l 894 533 l 803 533 l 803 647 l 806 819 l 706 671 l 646 671 l 546 819 l 550 647 l 550 533 l 457 533 l 457 953 l 547 953 l 676 761 l 804 953 l 894 953 z "},"°":{"ha":633,"x_min":83,"x_max":550,"o":"m 317 508 q 192 540 244 508 q 111 626 139 572 q 83 743 83 681 q 111 860 83 806 q 192 948 139 915 q 317 981 244 981 q 441 948 388 981 q 522 861 494 915 q 550 746 550 807 q 522 628 550 682 q 442 541 494 574 q 317 508 389 508 m 315 589 q 417 633 378 589 q 456 744 456 678 q 416 856 456 811 q 315 900 376 900 q 215 856 254 900 q 176 744 176 811 q 215 633 176 678 q 315 589 254 589 z "},"^":{"ha":761,"x_min":158,"x_max":604,"o":"m 493 224 l 381 454 l 268 224 l 158 224 l 325 549 l 438 549 l 604 224 l 493 224 z "},"†":{"ha":518,"x_min":33,"x_max":485,"o":"m 485 658 l 485 565 l 33 565 l 33 658 l 197 658 l 197 944 l 321 944 l 321 658 l 485 658 m 197 464 l 321 464 l 313 -210 l 206 -210 l 197 464 z "},"‡":{"ha":518,"x_min":33,"x_max":485,"o":"m 485 658 l 485 565 l 33 565 l 33 658 l 197 658 l 197 944 l 321 944 l 321 658 l 485 658 m 339 367 q 314 307 339 332 q 254 282 289 282 q 194 307 219 282 q 169 367 169 332 q 194 426 169 401 q 254 451 219 451 q 314 426 289 451 q 339 367 339 401 m 33 169 l 485 169 l 485 76 l 321 76 l 321 -210 l 197 -210 l 197 76 l 33 76 l 33 169 z "},"ऽ":{"ha":750,"x_min":54,"x_max":650,"o":"m 368 21 q 192 73 268 21 q 54 229 115 125 l 132 288 q 360 117 233 117 q 455 151 419 117 q 490 244 490 186 q 456 354 490 301 q 356 474 421 407 l 264 569 q 183 670 210 625 q 156 763 156 715 q 194 863 156 828 q 313 899 233 899 l 650 899 l 650 803 l 332 803 q 285 791 299 803 q 271 756 271 779 q 288 704 271 732 q 346 635 306 676 l 438 540 q 563 383 521 454 q 606 243 606 313 q 539 83 606 144 q 368 21 472 21 z "},"ॐ":{"ha":1522,"x_min":0,"x_max":1453,"o":"m 925 963 q 863 989 889 963 q 836 1053 836 1015 q 863 1115 836 1089 q 925 1142 889 1142 q 989 1115 963 1142 q 1015 1053 1015 1089 q 989 989 1015 1015 q 925 963 963 963 m 928 733 q 749 784 828 733 q 624 915 669 835 l 699 969 q 928 828 786 828 q 1157 969 1069 828 l 1231 915 q 1106 784 1185 835 q 928 733 1028 733 m 1221 671 q 1344 639 1292 671 q 1424 551 1396 607 q 1453 428 1453 496 q 1391 250 1453 319 q 1225 181 1329 181 q 999 313 1090 181 q 906 199 956 240 q 788 158 857 158 q 624 228 703 158 q 539 92 608 144 q 364 40 469 40 q 0 331 129 40 l 72 392 q 199 204 126 271 q 363 136 272 138 q 472 177 431 138 q 513 279 513 217 q 488 369 513 329 q 417 446 464 410 q 281 424 353 428 l 256 519 q 434 565 376 525 q 492 682 492 604 q 453 783 492 742 q 351 824 414 824 q 164 746 263 824 l 113 833 q 350 919 225 919 q 476 891 418 919 q 570 806 535 863 q 606 669 606 750 q 510 489 606 556 q 588 401 557 449 q 683 294 642 331 q 781 257 725 257 q 867 300 831 257 q 953 433 903 343 q 1029 557 996 510 q 1110 638 1063 604 q 1221 671 1158 671 m 1218 278 q 1306 320 1274 278 q 1338 429 1338 363 q 1306 534 1338 494 q 1222 574 1275 574 q 1131 530 1169 574 q 1047 400 1093 486 q 1218 278 1119 278 z "},"̦":{"ha":696,"x_min":-447,"x_max":-251,"o":"m -447 -279 q -370 -244 -392 -264 q -349 -197 -349 -225 q -365 -165 -349 -178 q -418 -146 -381 -151 l -390 -78 q -284 -117 -317 -86 q -251 -193 -251 -149 q -292 -283 -251 -244 q -418 -340 -333 -321 l -447 -279 z "},"´":{"ha":694,"x_min":215,"x_max":482,"o":"m 350 1114 l 482 1114 l 313 819 l 215 819 l 350 1114 z "},"˘":{"ha":694,"x_min":142,"x_max":551,"o":"m 347 846 q 198 908 253 846 q 142 1085 143 971 l 226 1088 q 261 968 229 1008 q 347 928 293 928 q 432 968 400 928 q 468 1088 464 1008 l 551 1085 q 496 908 550 971 q 347 846 442 846 z "},"ˇ":{"ha":694,"x_min":136,"x_max":557,"o":"m 557 1111 l 407 819 l 286 819 l 136 1111 l 233 1111 l 347 906 l 460 1111 l 557 1111 z "},"¸":{"ha":694,"x_min":232,"x_max":467,"o":"m 358 -87 q 435 -113 404 -87 q 467 -178 467 -139 q 421 -269 467 -229 q 278 -332 375 -310 l 249 -272 q 343 -231 318 -251 q 368 -186 368 -210 q 357 -162 368 -171 q 325 -153 346 -153 q 275 -165 303 -153 l 232 -121 l 308 21 l 396 21 l 338 -89 q 358 -87 344 -87 z "},"ˆ":{"ha":694,"x_min":136,"x_max":557,"o":"m 460 819 l 347 1025 l 233 819 l 136 819 l 286 1111 l 407 1111 l 557 819 l 460 819 z "},"¨":{"ha":694,"x_min":131,"x_max":564,"o":"m 206 971 q 153 993 175 971 q 131 1044 131 1015 q 153 1098 131 1075 q 206 1121 175 1121 q 260 1099 238 1121 q 282 1044 282 1076 q 259 993 282 1015 q 206 971 236 971 m 488 971 q 435 993 457 971 q 413 1044 413 1015 q 435 1098 413 1075 q 488 1121 457 1121 q 542 1099 519 1121 q 564 1044 564 1076 q 541 993 564 1015 q 488 971 518 971 z "},"˙":{"ha":694,"x_min":272,"x_max":424,"o":"m 347 971 q 294 993 317 971 q 272 1044 272 1015 q 294 1098 272 1075 q 347 1121 317 1121 q 401 1099 379 1121 q 424 1044 424 1076 q 401 993 424 1015 q 347 971 378 971 z "},"`":{"ha":694,"x_min":211,"x_max":478,"o":"m 211 1113 l 343 1113 l 478 819 l 381 819 l 211 1113 z "},"˝":{"ha":694,"x_min":110,"x_max":597,"o":"m 244 1113 l 364 1113 l 196 819 l 110 819 l 244 1113 m 478 1113 l 597 1113 l 429 819 l 343 819 l 478 1113 z "},"¯":{"ha":694,"x_min":128,"x_max":565,"o":"m 128 1086 l 565 1086 l 565 994 l 128 994 l 128 1086 z "},"˛":{"ha":694,"x_min":208,"x_max":504,"o":"m 354 -344 q 248 -308 288 -344 q 208 -208 208 -272 q 247 -92 208 -151 q 354 21 285 -32 l 464 21 q 347 -94 385 -44 q 310 -190 310 -144 q 326 -235 310 -219 q 372 -251 343 -251 q 461 -208 417 -251 l 504 -272 q 439 -324 479 -303 q 354 -344 399 -344 z "},"˚":{"ha":694,"x_min":182,"x_max":513,"o":"m 347 825 q 226 871 271 825 q 182 979 182 917 q 226 1085 182 1040 q 347 1131 271 1131 q 468 1085 424 1131 q 513 979 513 1040 q 468 871 513 917 q 347 825 424 825 m 347 890 q 407 915 385 890 q 429 979 429 940 q 407 1042 429 1017 q 347 1067 385 1067 q 286 1042 308 1067 q 264 979 264 1017 q 286 915 264 940 q 347 890 308 890 z "},"˜":{"ha":694,"x_min":114,"x_max":581,"o":"m 114 878 q 157 1022 121 971 q 253 1074 193 1074 q 311 1058 288 1074 q 363 1013 335 1042 q 401 978 386 989 q 438 967 417 967 q 481 992 465 967 q 504 1078 496 1018 l 581 1072 q 538 929 574 982 q 442 876 501 876 q 380 892 404 876 q 326 939 356 908 q 290 972 306 961 q 257 983 275 983 q 215 958 229 983 q 190 872 200 933 l 114 878 z "},"ु":{"ha":0,"x_min":-572,"x_max":11,"o":"m -237 -383 q -420 -336 -339 -383 q -572 -206 -501 -289 l -507 -137 q -380 -249 -442 -210 q -240 -287 -318 -287 q -140 -258 -176 -287 q -104 -183 -104 -229 q -134 -116 -104 -142 q -208 -90 -164 -90 q -344 -137 -278 -90 l -387 -51 q -207 7 -311 7 q -53 -44 -117 7 q 11 -183 11 -94 q -56 -328 11 -274 q -237 -383 -124 -383 z "},"ू":{"ha":0,"x_min":-461,"x_max":122,"o":"m -212 7 q -31 -40 -111 7 q 122 -171 49 -87 l 57 -239 q -70 -128 -8 -167 q -210 -89 -132 -89 q -310 -118 -274 -89 q -346 -193 -346 -147 q -316 -260 -346 -235 q -242 -286 -286 -286 q -106 -239 -172 -286 l -62 -325 q -243 -383 -139 -383 q -397 -333 -333 -383 q -461 -193 -461 -282 q -394 -48 -461 -103 q -212 7 -326 7 z "},"ृ":{"ha":0,"x_min":-393,"x_max":-28,"o":"m -193 -337 q -337 -287 -282 -337 q -393 -161 -393 -237 q -349 -47 -393 -99 q -210 53 -304 4 l -143 -18 q -252 -84 -217 -50 q -287 -157 -287 -118 q -262 -218 -287 -194 q -192 -242 -237 -242 q -128 -232 -158 -242 q -75 -206 -97 -222 l -28 -289 q -193 -337 -100 -337 z "},"ॄ":{"ha":0,"x_min":-393,"x_max":101,"o":"m 101 -519 q -107 -610 14 -610 q -247 -562 -192 -610 q -301 -439 -301 -515 q -265 -328 -301 -381 q -359 -265 -325 -310 q -393 -161 -393 -219 q -349 -47 -393 -99 q -210 53 -304 4 l -143 -18 q -252 -84 -217 -50 q -287 -157 -287 -118 q -262 -218 -287 -194 q -192 -242 -237 -242 q -128 -232 -158 -242 q -75 -206 -97 -222 l -28 -289 q -154 -335 -87 -328 q -196 -437 -196 -382 q -172 -494 -196 -474 q -104 -514 -147 -514 q -24 -495 -64 -514 q 50 -440 17 -476 l 101 -519 z "},"ॢ":{"ha":0,"x_min":-653,"x_max":38,"o":"m 38 -511 q -35 -562 3 -544 q -125 -581 -74 -581 q -229 -549 -185 -581 q -274 -462 -274 -517 q -254 -394 -274 -425 q -200 -328 -235 -364 q -161 -283 -174 -301 q -149 -244 -149 -264 q -166 -202 -149 -217 q -210 -187 -183 -187 q -288 -231 -260 -187 q -322 -347 -317 -274 l -424 -332 q -397 -218 -418 -271 q -475 -175 -433 -175 q -522 -196 -504 -175 q -539 -254 -539 -217 q -419 -449 -539 -354 l -486 -515 q -611 -383 -569 -444 q -653 -240 -653 -322 q -606 -124 -653 -168 q -487 -81 -558 -81 q -349 -144 -407 -81 q -267 -100 -312 -110 l -267 18 l -153 18 l -153 -101 q -67 -154 -99 -115 q -36 -243 -36 -193 q -55 -308 -36 -281 q -111 -374 -74 -336 q -149 -415 -137 -399 q -161 -450 -161 -432 q -149 -476 -161 -467 q -114 -486 -136 -486 q -12 -429 -69 -486 l 38 -511 z "},"ॣ":{"ha":0,"x_min":-653,"x_max":140,"o":"m 140 -662 q -10 -721 82 -721 q -115 -687 -74 -721 q -157 -600 -157 -654 q -156 -578 -157 -585 q -240 -540 -206 -569 q -274 -462 -274 -510 q -254 -394 -274 -425 q -200 -328 -235 -364 q -161 -283 -174 -301 q -149 -244 -149 -264 q -166 -202 -149 -217 q -210 -187 -183 -187 q -288 -231 -260 -187 q -322 -347 -317 -274 l -424 -332 q -397 -218 -418 -271 q -475 -175 -433 -175 q -522 -196 -504 -175 q -539 -254 -539 -217 q -419 -449 -539 -354 l -486 -515 q -611 -383 -569 -444 q -653 -240 -653 -322 q -606 -124 -653 -168 q -487 -81 -558 -81 q -349 -144 -407 -81 q -267 -100 -312 -110 l -267 18 l -153 18 l -153 -101 q -67 -154 -99 -115 q -36 -243 -36 -193 q -55 -308 -36 -281 q -111 -374 -74 -336 q -149 -415 -137 -399 q -161 -450 -161 -432 q -149 -476 -161 -467 q -114 -486 -136 -486 q -12 -429 -69 -486 l 38 -511 q -43 -565 0 -549 q -46 -585 -46 -579 q -33 -615 -46 -604 q 3 -625 -19 -625 q 92 -582 51 -625 l 140 -662 z "},"ॅ":{"ha":0,"x_min":-507,"x_max":100,"o":"m -203 1018 q -382 1069 -303 1018 q -507 1200 -461 1119 l -432 1254 q -203 1113 -344 1113 q 26 1254 -61 1113 l 100 1200 q -24 1069 54 1119 q -203 1018 -103 1018 z "},"ँ":{"ha":0,"x_min":-507,"x_max":100,"o":"m 0 1018 m -203 1018 q -382 1069 -303 1018 q -507 1200 -461 1119 l -432 1254 q -203 1113 -344 1113 q 26 1254 -61 1113 l 100 1200 q -24 1069 54 1119 q -203 1018 -103 1018 m -294 1338 q -268 1400 -294 1374 q -206 1426 -242 1426 q -142 1400 -168 1426 q -115 1338 -115 1374 q -142 1274 -115 1300 q -206 1247 -168 1247 q -268 1274 -242 1247 q -294 1338 -294 1300 z "},"ॆ":{"ha":0,"x_min":-878,"x_max":-131,"o":"m -260 868 q -244 944 -244 896 q -278 1042 -244 1003 q -393 1082 -312 1082 q -543 1074 -443 1082 q -685 1065 -640 1065 q -827 1104 -776 1065 q -878 1217 -878 1143 q -867 1284 -878 1250 q -837 1344 -856 1318 l -735 1318 q -764 1232 -764 1274 q -743 1180 -764 1197 q -675 1163 -722 1163 q -533 1171 -628 1163 q -393 1179 -436 1179 q -198 1115 -265 1179 q -131 943 -131 1050 q -146 864 -131 899 l -260 868 z "},"े":{"ha":0,"x_min":-668,"x_max":-153,"o":"m -326 1007 q -397 1147 -367 1096 q -462 1225 -426 1197 q -546 1253 -499 1253 q -647 1233 -600 1253 l -668 1325 q -547 1353 -615 1353 q -424 1319 -476 1353 q -326 1217 -371 1285 q -226 1029 -282 1149 l -153 874 l -265 874 l -326 1007 z "},"ै":{"ha":0,"x_min":-656,"x_max":-119,"o":"m -207 879 l -200 867 l -297 867 l -362 976 q -442 1072 -401 1043 q -532 1101 -482 1101 q -635 1081 -587 1101 l -656 1172 q -533 1201 -599 1201 q -390 1147 -456 1201 q -275 1001 -325 1092 l -236 932 l -269 1015 q -362 1222 -328 1154 q -437 1327 -397 1290 q -532 1364 -476 1364 q -626 1344 -581 1364 l -647 1436 q -525 1464 -594 1464 q -392 1420 -449 1464 q -287 1285 -336 1376 q -176 1029 -239 1193 l -119 879 l -207 879 z "},"ं":{"ha":0,"x_min":-287,"x_max":-108,"o":"m -287 1101 q -261 1164 -287 1138 q -199 1190 -235 1190 q -135 1164 -161 1190 q -108 1101 -108 1138 q -135 1038 -108 1064 q -199 1011 -161 1011 q -261 1038 -235 1011 q -287 1101 -287 1064 z "},"्":{"ha":0,"x_min":-494,"x_max":93,"o":"m -364 -97 q -116 -169 -233 -97 q 93 -343 1 -240 l 35 -397 q -315 -187 -129 -215 l -315 -281 q -376 -292 -344 -292 q -461 -261 -428 -292 q -494 -187 -494 -231 q -460 -120 -494 -143 q -364 -97 -426 -97 z "},"़":{"ha":0,"x_min":-89,"x_max":90,"o":"m -89 -179 q -62 -115 -89 -142 q 0 -89 -36 -89 q 64 -115 38 -89 q 90 -179 90 -142 q 64 -242 90 -215 q 0 -268 38 -268 q -62 -242 -36 -268 q -89 -179 -89 -215 z "},"ऺ":{"ha":0,"x_min":-268,"x_max":-150,"o":"m -268 1265 l -150 1265 l -150 874 l -268 874 l -268 1265 z "},"ॖ":{"ha":0,"x_min":-633,"x_max":7,"o":"m -312 -306 q -501 -253 -415 -306 q -633 -117 -587 -200 l -554 -64 q -455 -169 -515 -128 q -312 -210 -394 -210 q -170 -169 -231 -210 q -71 -64 -110 -128 l 7 -117 q -124 -253 -39 -200 q -312 -306 -210 -306 z "},"ॗ":{"ha":0,"x_min":-633,"x_max":7,"o":"m -312 -306 q -501 -253 -415 -306 q -633 -117 -587 -200 l -554 -64 q -455 -169 -515 -128 q -312 -210 -394 -210 q -170 -169 -231 -210 q -71 -64 -110 -128 l 7 -117 q -124 -253 -39 -200 q -312 -306 -210 -306 m -312 -565 q -501 -513 -415 -565 q -633 -378 -587 -461 l -554 -325 q -455 -430 -515 -389 q -312 -471 -394 -471 q -170 -430 -231 -471 q -71 -325 -110 -389 l 7 -378 q -124 -513 -39 -461 q -312 -565 -210 -565 z "},"॑":{"ha":0,"x_min":-265,"x_max":-154,"o":"m -265 1376 l -154 1376 l -154 1033 l -265 1033 l -265 1376 z "},"॒":{"ha":0,"x_min":-564,"x_max":122,"o":"m -564 -265 l 122 -265 l 122 -360 l -564 -360 l -564 -265 z "},"॓":{"ha":0,"x_min":-537,"x_max":-146,"o":"m -537 1376 l -404 1376 l -146 1051 l -260 1051 l -537 1376 z "},"॔":{"ha":0,"x_min":-264,"x_max":128,"o":"m -6 1376 l 128 1376 l -150 1051 l -264 1051 l -6 1376 z "},"ः":{"ha":475,"x_min":151,"x_max":321,"o":"m 236 533 q 176 558 201 533 q 151 618 151 583 q 176 678 151 653 q 236 703 201 703 q 296 678 271 703 q 321 618 321 653 q 297 558 321 583 q 236 533 272 533 m 236 75 q 176 100 201 75 q 151 160 151 125 q 176 219 151 194 q 236 244 201 244 q 296 219 271 244 q 321 160 321 194 q 297 100 321 125 q 236 75 272 75 z "}}}
